<svg xmlns="http://www.w3.org/2000/svg" xmlns:xlink="http://www.w3.org/1999/xlink" width="300" zoomAndPan="magnify" viewBox="0 0 224.87999 149.999998" height="200" preserveAspectRatio="xMidYMid meet" version="1.0"><defs><g/><clipPath id="7192e2745a"><path d="M 0 0.0390625 L 224.761719 0.0390625 L 224.761719 149.960938 L 0 149.960938 Z M 0 0.0390625 " clip-rule="nonzero"/></clipPath><clipPath id="740da1e8b2"><path d="M 0 0.0390625 L 224.761719 0.0390625 L 224.761719 4 L 0 4 Z M 0 0.0390625 " clip-rule="nonzero"/></clipPath><clipPath id="322126d53a"><path d="M 0 3 L 224.761719 3 L 224.761719 7 L 0 7 Z M 0 3 " clip-rule="nonzero"/></clipPath></defs><g clip-path="url(#7192e2745a)"><path fill="#ffffff" d="M 0 0.0390625 L 224.878906 0.0390625 L 224.878906 149.960938 L 0 149.960938 Z M 0 0.0390625 " fill-opacity="1" fill-rule="nonzero"/><path fill="#ff3131" d="M 0 0.0390625 L 224.878906 0.0390625 L 224.878906 149.960938 L 0 149.960938 Z M 0 0.0390625 " fill-opacity="1" fill-rule="nonzero"/></g><g fill="#fffff9" fill-opacity="1"><g transform="translate(81.844269, 82.121197)"><g><path d="M 9.375 -14.15625 C 11.5625 -14.15625 13.3125 -13.46875 14.625 -12.09375 C 15.9375 -10.71875 16.601562 -8.988281 16.625 -6.90625 C 16.625 -4.832031 15.957031 -3.113281 14.625 -1.75 C 13.289062 -0.382812 11.660156 0.316406 9.734375 0.359375 C 8.546875 0.359375 7.472656 0.101562 6.515625 -0.40625 C 5.566406 -0.914062 4.867188 -1.597656 4.421875 -2.453125 L 4.359375 -2.453125 L 4.359375 6.71875 L 2.0625 6.71875 L 2.0625 -13.796875 L 4.359375 -13.796875 L 4.359375 -11.796875 L 4.421875 -11.796875 C 5.773438 -13.367188 7.425781 -14.15625 9.375 -14.15625 Z M 4.359375 -6.90625 C 4.359375 -5.382812 4.816406 -4.15625 5.734375 -3.21875 C 6.648438 -2.289062 7.828125 -1.804688 9.265625 -1.765625 C 10.691406 -1.765625 11.859375 -2.238281 12.765625 -3.1875 C 13.671875 -4.144531 14.132812 -5.382812 14.15625 -6.90625 C 14.15625 -8.394531 13.695312 -9.617188 12.78125 -10.578125 C 11.863281 -11.546875 10.679688 -12.03125 9.234375 -12.03125 C 7.816406 -12.03125 6.65625 -11.550781 5.75 -10.59375 C 4.84375 -9.644531 4.378906 -8.414062 4.359375 -6.90625 Z M 4.359375 -6.90625 "/></g></g></g><g fill="#fffff9" fill-opacity="1"><g transform="translate(99.856755, 82.121197)"><g><path d="M 4.484375 -22.296875 L 4.484375 -11.875 L 4.546875 -11.875 C 4.953125 -12.570312 5.554688 -13.125 6.359375 -13.53125 C 7.171875 -13.945312 8.050781 -14.15625 9 -14.15625 C 10.726562 -14.15625 12.03125 -13.648438 12.90625 -12.640625 C 13.78125 -11.640625 14.21875 -10.304688 14.21875 -8.640625 L 14.21875 0 L 11.90625 0 L 11.90625 -8.375 C 11.90625 -9.4375 11.660156 -10.304688 11.171875 -10.984375 C 10.679688 -11.660156 9.875 -12.007812 8.75 -12.03125 C 7.34375 -12.03125 6.28125 -11.5625 5.5625 -10.625 C 4.84375 -9.695312 4.484375 -8.4375 4.484375 -6.84375 L 4.484375 0 L 2.1875 0 L 2.1875 -22.296875 Z M 4.484375 -22.296875 "/></g></g></g><g fill="#fffff9" fill-opacity="1"><g transform="translate(116.247825, 82.121197)"><g><path d="M 4.484375 -13.796875 L 4.484375 -5.421875 C 4.484375 -4.359375 4.734375 -3.488281 5.234375 -2.8125 C 5.734375 -2.132812 6.535156 -1.785156 7.640625 -1.765625 C 9.054688 -1.765625 10.117188 -2.234375 10.828125 -3.171875 C 11.546875 -4.117188 11.90625 -5.378906 11.90625 -6.953125 L 11.90625 -13.796875 L 14.21875 -13.796875 L 14.21875 -3.0625 C 14.226562 -2.507812 14.265625 -1.488281 14.328125 0 L 12.140625 0 C 12.128906 -0.945312 12.113281 -1.703125 12.09375 -2.265625 L 12.03125 -2.265625 C 11.675781 -1.503906 11.082031 -0.875 10.25 -0.375 C 9.414062 0.113281 8.46875 0.359375 7.40625 0.359375 C 5.707031 0.335938 4.410156 -0.164062 3.515625 -1.15625 C 2.628906 -2.15625 2.1875 -3.488281 2.1875 -5.15625 L 2.1875 -13.796875 Z M 12.46875 -21.34375 L 8.25 -17.09375 L 6.15625 -17.09375 L 9.21875 -21.34375 Z M 12.46875 -21.34375 "/></g></g></g><g fill="#fffff9" fill-opacity="1"><g transform="translate(132.638896, 82.121197)"><g><path d="M 5.65625 -17.71875 L 5.65625 -13.796875 L 9.734375 -13.796875 L 9.734375 -11.859375 L 5.65625 -11.859375 L 5.65625 -4.484375 C 5.65625 -3.378906 5.832031 -2.648438 6.1875 -2.296875 C 6.539062 -1.941406 7.050781 -1.765625 7.71875 -1.765625 C 8.488281 -1.765625 9.171875 -1.921875 9.765625 -2.234375 L 9.84375 -0.140625 C 9.0625 0.191406 8.171875 0.359375 7.171875 0.359375 C 5.753906 0.359375 4.765625 0.0078125 4.203125 -0.6875 C 3.640625 -1.382812 3.359375 -2.53125 3.359375 -4.125 L 3.359375 -11.859375 L 0.359375 -11.859375 L 0.359375 -13.796875 L 3.359375 -13.796875 L 3.359375 -17.71875 Z M 5.65625 -17.71875 "/></g></g></g><g clip-path="url(#740da1e8b2)"><path stroke-linecap="butt" transform="matrix(0.7496, 0, 0, 0.7496, -0.00000000000004261, 0.0400041)" fill="none" stroke-linejoin="miter" d="M 0.000000000000056843 1.999811 L 299.998567 1.999811 " stroke="#ffffff" stroke-width="4" stroke-opacity="1" stroke-miterlimit="4"/></g><g clip-path="url(#322126d53a)"><path stroke-linecap="butt" transform="matrix(0.7496, 0, 0, 0.7496, 0, 3.038404)" fill="none" stroke-linejoin="miter" d="M 0 2.001946 L 299.998567 2.001946 " stroke="#ffde59" stroke-width="4" stroke-opacity="1" stroke-miterlimit="4"/></g></svg>