<svg xmlns="http://www.w3.org/2000/svg" xmlns:xlink="http://www.w3.org/1999/xlink" width="300" zoomAndPan="magnify" viewBox="0 0 224.87999 149.999998" height="200" preserveAspectRatio="xMidYMid meet" version="1.0"><defs><g/><clipPath id="a0d23c6bfd"><path d="M 0 0.0390625 L 224.761719 0.0390625 L 224.761719 149.960938 L 0 149.960938 Z M 0 0.0390625 " clip-rule="nonzero"/></clipPath><clipPath id="189a084126"><path d="M 0 0.0390625 L 224.761719 0.0390625 L 224.761719 4 L 0 4 Z M 0 0.0390625 " clip-rule="nonzero"/></clipPath><clipPath id="8595464fa2"><path d="M 0 3 L 224.761719 3 L 224.761719 7 L 0 7 Z M 0 3 " clip-rule="nonzero"/></clipPath></defs><g clip-path="url(#a0d23c6bfd)"><path fill="#ffffff" d="M 0 0.0390625 L 224.878906 0.0390625 L 224.878906 149.960938 L 0 149.960938 Z M 0 0.0390625 " fill-opacity="1" fill-rule="nonzero"/><path fill="#ff3131" d="M 0 0.0390625 L 224.878906 0.0390625 L 224.878906 149.960938 L 0 149.960938 Z M 0 0.0390625 " fill-opacity="1" fill-rule="nonzero"/></g><g fill="#fffff9" fill-opacity="1"><g transform="translate(60.632933, 82.121197)"><g><path d="M 5.65625 -17.71875 L 5.65625 -13.796875 L 9.734375 -13.796875 L 9.734375 -11.859375 L 5.65625 -11.859375 L 5.65625 -4.484375 C 5.65625 -3.378906 5.832031 -2.648438 6.1875 -2.296875 C 6.539062 -1.941406 7.050781 -1.765625 7.71875 -1.765625 C 8.488281 -1.765625 9.171875 -1.921875 9.765625 -2.234375 L 9.84375 -0.140625 C 9.0625 0.191406 8.171875 0.359375 7.171875 0.359375 C 5.753906 0.359375 4.765625 0.0078125 4.203125 -0.6875 C 3.640625 -1.382812 3.359375 -2.53125 3.359375 -4.125 L 3.359375 -11.859375 L 0.359375 -11.859375 L 0.359375 -13.796875 L 3.359375 -13.796875 L 3.359375 -17.71875 Z M 5.65625 -17.71875 "/></g></g></g><g fill="#fffff9" fill-opacity="1"><g transform="translate(71.010013, 82.121197)"><g><path d="M 4.484375 -22.296875 L 4.484375 -11.875 L 4.546875 -11.875 C 4.953125 -12.570312 5.554688 -13.125 6.359375 -13.53125 C 7.171875 -13.945312 8.050781 -14.15625 9 -14.15625 C 10.726562 -14.15625 12.03125 -13.648438 12.90625 -12.640625 C 13.78125 -11.640625 14.21875 -10.304688 14.21875 -8.640625 L 14.21875 0 L 11.90625 0 L 11.90625 -8.375 C 11.90625 -9.4375 11.660156 -10.304688 11.171875 -10.984375 C 10.679688 -11.660156 9.875 -12.007812 8.75 -12.03125 C 7.34375 -12.03125 6.28125 -11.5625 5.5625 -10.625 C 4.84375 -9.695312 4.484375 -8.4375 4.484375 -6.84375 L 4.484375 0 L 2.1875 0 L 2.1875 -22.296875 Z M 4.484375 -22.296875 "/></g></g></g><g fill="#fffff9" fill-opacity="1"><g transform="translate(87.401083, 82.121197)"><g><path d="M 20.671875 -18.25 L 20.875 -17.921875 C 20.71875 -17.003906 20.460938 -16.128906 20.109375 -15.296875 C 19.753906 -14.472656 19.226562 -13.78125 18.53125 -13.21875 C 17.832031 -12.664062 16.894531 -12.328125 15.71875 -12.203125 L 15.71875 0 L 13.59375 0 L 13.203125 -2.09375 L 13.09375 -2.09375 C 12.582031 -1.269531 11.878906 -0.664062 10.984375 -0.28125 C 10.085938 0.101562 9.140625 0.296875 8.140625 0.296875 C 6.210938 0.296875 4.757812 -0.160156 3.78125 -1.078125 C 2.8125 -1.992188 2.328125 -3.453125 2.328125 -5.453125 L 2.328125 -15.78125 L 4.953125 -15.78125 L 4.953125 -5.625 C 4.953125 -3.113281 6.125 -1.859375 8.46875 -1.859375 C 10.21875 -1.859375 11.429688 -2.347656 12.109375 -3.328125 C 12.785156 -4.316406 13.125 -5.734375 13.125 -7.578125 L 13.125 -15.78125 L 15.71875 -15.78125 L 15.71875 -14.03125 C 16.65625 -14.1875 17.253906 -14.644531 17.515625 -15.40625 C 17.785156 -16.164062 17.921875 -17.113281 17.921875 -18.25 Z M 13.265625 -22.578125 L 13.265625 -22.296875 C 13.003906 -21.941406 12.632812 -21.484375 12.15625 -20.921875 C 11.675781 -20.359375 11.15625 -19.796875 10.59375 -19.234375 C 10.03125 -18.671875 9.515625 -18.21875 9.046875 -17.875 L 7.328125 -17.875 L 7.328125 -18.21875 C 7.609375 -18.570312 7.925781 -19.007812 8.28125 -19.53125 C 8.632812 -20.050781 8.976562 -20.582031 9.3125 -21.125 C 9.644531 -21.664062 9.921875 -22.148438 10.140625 -22.578125 Z M 13.265625 -22.578125 "/></g></g></g><g fill="#fffff9" fill-opacity="1"><g transform="translate(107.270835, 82.121197)"><g/></g></g><g fill="#fffff9" fill-opacity="1"><g transform="translate(115.46637, 82.121197)"><g><path d="M 4.359375 -22.296875 L 4.359375 -11.796875 L 4.421875 -11.796875 C 5.753906 -13.347656 7.40625 -14.132812 9.375 -14.15625 C 11.5625 -14.15625 13.3125 -13.46875 14.625 -12.09375 C 15.9375 -10.726562 16.601562 -9 16.625 -6.90625 C 16.625 -4.851562 15.960938 -3.140625 14.640625 -1.765625 C 13.328125 -0.390625 11.691406 0.316406 9.734375 0.359375 C 8.546875 0.359375 7.472656 0.101562 6.515625 -0.40625 C 5.566406 -0.914062 4.867188 -1.597656 4.421875 -2.453125 L 4.359375 -2.453125 L 4.359375 0 L 2.0625 0 L 2.0625 -22.296875 Z M 4.359375 -6.90625 C 4.359375 -5.382812 4.828125 -4.144531 5.765625 -3.1875 C 6.703125 -2.238281 7.867188 -1.765625 9.265625 -1.765625 C 10.691406 -1.765625 11.859375 -2.238281 12.765625 -3.1875 C 13.671875 -4.144531 14.132812 -5.382812 14.15625 -6.90625 C 14.15625 -8.394531 13.695312 -9.617188 12.78125 -10.578125 C 11.863281 -11.546875 10.679688 -12.03125 9.234375 -12.03125 C 7.816406 -12.03125 6.65625 -11.550781 5.75 -10.59375 C 4.84375 -9.644531 4.378906 -8.414062 4.359375 -6.90625 Z M 4.359375 -6.90625 "/></g></g></g><g fill="#fffff9" fill-opacity="1"><g transform="translate(133.478855, 82.121197)"><g><path d="M 8.484375 -16.0625 C 10.410156 -16.0625 11.835938 -15.640625 12.765625 -14.796875 C 13.691406 -13.953125 14.15625 -12.609375 14.15625 -10.765625 L 14.15625 0 L 12.265625 0 L 11.765625 -2.234375 L 11.640625 -2.234375 C 10.953125 -1.367188 10.222656 -0.726562 9.453125 -0.3125 C 8.691406 0.09375 7.65625 0.296875 6.34375 0.296875 C 4.90625 0.296875 3.710938 -0.078125 2.765625 -0.828125 C 1.828125 -1.585938 1.359375 -2.773438 1.359375 -4.390625 C 1.359375 -5.960938 1.976562 -7.175781 3.21875 -8.03125 C 4.457031 -8.882812 6.363281 -9.351562 8.9375 -9.4375 L 11.609375 -9.515625 L 11.609375 -10.46875 C 11.609375 -11.78125 11.320312 -12.691406 10.75 -13.203125 C 10.1875 -13.710938 9.382812 -13.96875 8.34375 -13.96875 C 7.519531 -13.96875 6.734375 -13.84375 5.984375 -13.59375 C 5.234375 -13.351562 4.535156 -13.078125 3.890625 -12.765625 L 3.09375 -14.71875 C 3.78125 -15.082031 4.59375 -15.394531 5.53125 -15.65625 C 6.476562 -15.925781 7.460938 -16.0625 8.484375 -16.0625 Z M 11.59375 -7.71875 L 9.265625 -7.640625 C 7.296875 -7.554688 5.929688 -7.238281 5.171875 -6.6875 C 4.421875 -6.144531 4.046875 -5.367188 4.046875 -4.359375 C 4.046875 -3.472656 4.3125 -2.820312 4.84375 -2.40625 C 5.382812 -2 6.078125 -1.796875 6.921875 -1.796875 C 8.242188 -1.796875 9.351562 -2.164062 10.25 -2.90625 C 11.144531 -3.644531 11.59375 -4.78125 11.59375 -6.3125 Z M 12.453125 -25.6875 C 13.347656 -25.6875 14.039062 -25.515625 14.53125 -25.171875 C 15.03125 -24.835938 15.28125 -24.328125 15.28125 -23.640625 C 15.28125 -23.078125 15.101562 -22.648438 14.75 -22.359375 C 14.394531 -22.078125 13.960938 -21.878906 13.453125 -21.765625 L 13.359375 -20.609375 L 12.15625 -20.609375 L 12 -22.46875 C 12.570312 -22.539062 13.003906 -22.65625 13.296875 -22.8125 C 13.597656 -22.976562 13.75 -23.238281 13.75 -23.59375 C 13.75 -23.925781 13.613281 -24.15625 13.34375 -24.28125 C 13.082031 -24.40625 12.742188 -24.46875 12.328125 -24.46875 C 11.878906 -24.46875 11.535156 -24.441406 11.296875 -24.390625 L 11.296875 -25.59375 C 11.535156 -25.65625 11.921875 -25.6875 12.453125 -25.6875 Z M 9.671875 -22 C 10.128906 -21.332031 10.632812 -20.671875 11.1875 -20.015625 C 11.75 -19.367188 12.285156 -18.769531 12.796875 -18.21875 L 12.796875 -17.875 L 11.359375 -17.875 C 10.867188 -18.1875 10.367188 -18.546875 9.859375 -18.953125 C 9.347656 -19.367188 8.832031 -19.800781 8.3125 -20.25 C 7.800781 -19.800781 7.289062 -19.367188 6.78125 -18.953125 C 6.269531 -18.546875 5.769531 -18.1875 5.28125 -17.875 L 3.84375 -17.875 L 3.84375 -18.21875 C 4.332031 -18.769531 4.859375 -19.367188 5.421875 -20.015625 C 5.992188 -20.671875 6.507812 -21.332031 6.96875 -22 Z M 9.671875 -22 "/></g></g></g><g fill="#fffff9" fill-opacity="1"><g transform="translate(150.017327, 82.121197)"><g><path d="M 2.984375 -13.796875 L 7.25 -2.984375 L 7.3125 -2.984375 L 11.40625 -13.796875 L 13.921875 -13.796875 L 7.171875 3.390625 C 6.640625 4.765625 6.03125 5.722656 5.34375 6.265625 C 4.664062 6.804688 3.769531 7.078125 2.65625 7.078125 C 1.8125 7.078125 1.125 6.957031 0.59375 6.71875 L 0.890625 4.71875 C 1.160156 4.875 1.726562 4.953125 2.59375 4.953125 C 3.695312 4.953125 4.492188 4.273438 4.984375 2.921875 L 6.015625 0.09375 L 0.296875 -13.796875 Z M 2.984375 -13.796875 "/></g></g></g><g clip-path="url(#189a084126)"><path stroke-linecap="butt" transform="matrix(0.7496, 0, 0, 0.7496, -0.00000000000004261, 0.0400041)" fill="none" stroke-linejoin="miter" d="M 0.000000000000056843 1.999811 L 299.998567 1.999811 " stroke="#ffffff" stroke-width="4" stroke-opacity="1" stroke-miterlimit="4"/></g><g clip-path="url(#8595464fa2)"><path stroke-linecap="butt" transform="matrix(0.7496, 0, 0, 0.7496, 0, 3.038404)" fill="none" stroke-linejoin="miter" d="M 0 2.001946 L 299.998567 2.001946 " stroke="#ffde59" stroke-width="4" stroke-opacity="1" stroke-miterlimit="4"/></g></svg>