<svg xmlns="http://www.w3.org/2000/svg" xmlns:xlink="http://www.w3.org/1999/xlink" width="300" zoomAndPan="magnify" viewBox="0 0 224.87999 149.999998" height="200" preserveAspectRatio="xMidYMid meet" version="1.0"><defs><g/><clipPath id="cbe11eff01"><path d="M 0 0.0390625 L 224.761719 0.0390625 L 224.761719 149.960938 L 0 149.960938 Z M 0 0.0390625 " clip-rule="nonzero"/></clipPath><clipPath id="220b75c157"><path d="M 0 0.0390625 L 224.761719 0.0390625 L 224.761719 4 L 0 4 Z M 0 0.0390625 " clip-rule="nonzero"/></clipPath><clipPath id="ed43680541"><path d="M 0 1 L 224.761719 1 L 224.761719 5 L 0 5 Z M 0 1 " clip-rule="nonzero"/></clipPath></defs><g clip-path="url(#cbe11eff01)"><path fill="#ffffff" d="M 0 0.0390625 L 224.878906 0.0390625 L 224.878906 149.960938 L 0 149.960938 Z M 0 0.0390625 " fill-opacity="1" fill-rule="nonzero"/><path fill="#191919" d="M 0 0.0390625 L 224.878906 0.0390625 L 224.878906 149.960938 L 0 149.960938 Z M 0 0.0390625 " fill-opacity="1" fill-rule="nonzero"/></g><g fill="#fffff9" fill-opacity="1"><g transform="translate(68.433458, 82.121197)"><g><path d="M 7.515625 -20.40625 C 5.035156 -16.945312 3.78125 -12.972656 3.75 -8.484375 C 3.75 -6.328125 4.003906 -4.382812 4.515625 -2.65625 C 5.023438 -0.925781 6.023438 1.117188 7.515625 3.484375 L 5.921875 4.59375 C 4.523438 2.65625 3.457031 0.53125 2.71875 -1.78125 C 1.988281 -4.09375 1.625 -6.335938 1.625 -8.515625 C 1.625 -13.296875 3.054688 -17.648438 5.921875 -21.578125 Z M 7.515625 -20.40625 "/></g></g></g><g fill="#fffff9" fill-opacity="1"><g transform="translate(76.628993, 82.121197)"><g><path d="M 5.65625 -17.71875 L 5.65625 -13.796875 L 9.734375 -13.796875 L 9.734375 -11.859375 L 5.65625 -11.859375 L 5.65625 -4.484375 C 5.65625 -3.378906 5.832031 -2.648438 6.1875 -2.296875 C 6.539062 -1.941406 7.050781 -1.765625 7.71875 -1.765625 C 8.488281 -1.765625 9.171875 -1.921875 9.765625 -2.234375 L 9.84375 -0.140625 C 9.0625 0.191406 8.171875 0.359375 7.171875 0.359375 C 5.753906 0.359375 4.765625 0.0078125 4.203125 -0.6875 C 3.640625 -1.382812 3.359375 -2.53125 3.359375 -4.125 L 3.359375 -11.859375 L 0.359375 -11.859375 L 0.359375 -13.796875 L 3.359375 -13.796875 L 3.359375 -17.71875 Z M 5.65625 -17.71875 "/></g></g></g><g fill="#fffff9" fill-opacity="1"><g transform="translate(87.006073, 82.121197)"><g><path d="M 8.75 -14.15625 C 10.894531 -14.15625 12.644531 -13.488281 14 -12.15625 C 15.363281 -10.832031 16.070312 -9.082031 16.125 -6.90625 C 16.125 -4.800781 15.4375 -3.070312 14.0625 -1.71875 C 12.6875 -0.375 10.914062 0.316406 8.75 0.359375 C 6.59375 0.359375 4.832031 -0.320312 3.46875 -1.6875 C 2.113281 -3.0625 1.421875 -4.800781 1.390625 -6.90625 C 1.390625 -9.019531 2.078125 -10.75 3.453125 -12.09375 C 4.828125 -13.445312 6.59375 -14.132812 8.75 -14.15625 Z M 3.859375 -6.90625 C 3.859375 -5.382812 4.316406 -4.15625 5.234375 -3.21875 C 6.148438 -2.289062 7.320312 -1.804688 8.75 -1.765625 C 10.1875 -1.765625 11.359375 -2.238281 12.265625 -3.1875 C 13.171875 -4.144531 13.632812 -5.382812 13.65625 -6.90625 C 13.65625 -8.394531 13.195312 -9.617188 12.28125 -10.578125 C 11.363281 -11.546875 10.179688 -12.03125 8.734375 -12.03125 C 7.316406 -12.03125 6.15625 -11.550781 5.25 -10.59375 C 4.34375 -9.644531 3.878906 -8.414062 3.859375 -6.90625 Z M 3.859375 -6.90625 "/></g></g></g><g fill="#fffff9" fill-opacity="1"><g transform="translate(104.517391, 82.121197)"><g><path d="M 2.265625 -21.578125 C 3.628906 -19.671875 4.6875 -17.585938 5.4375 -15.328125 C 6.195312 -13.066406 6.578125 -10.785156 6.578125 -8.484375 C 6.578125 -3.691406 5.140625 0.664062 2.265625 4.59375 L 0.671875 3.421875 C 3.148438 -0.0351562 4.410156 -4.015625 4.453125 -8.515625 C 4.453125 -10.640625 4.207031 -12.546875 3.71875 -14.234375 C 3.238281 -15.929688 2.222656 -18.007812 0.671875 -20.46875 Z M 2.265625 -21.578125 "/></g></g></g><g fill="#fffff9" fill-opacity="1"><g transform="translate(112.712927, 82.121197)"><g/></g></g><g fill="#fffff9" fill-opacity="1"><g transform="translate(120.908462, 82.121197)"><g><path d="M 8.703125 -14.15625 C 9.765625 -14.15625 10.738281 -13.90625 11.625 -13.40625 C 12.519531 -12.914062 13.175781 -12.257812 13.59375 -11.4375 L 13.65625 -11.4375 L 13.65625 -13.796875 L 15.953125 -13.796875 L 15.953125 -0.46875 C 15.953125 1.882812 15.320312 3.71875 14.0625 5.03125 C 12.800781 6.351562 10.925781 7.035156 8.4375 7.078125 C 7.070312 7.078125 5.835938 6.878906 4.734375 6.484375 C 3.640625 6.085938 2.613281 5.410156 1.65625 4.453125 L 3.296875 2.5625 C 4.773438 4.15625 6.488281 4.953125 8.4375 4.953125 C 11.914062 4.953125 13.65625 3.101562 13.65625 -0.59375 L 13.65625 -2.390625 L 13.59375 -2.390625 C 13.082031 -1.566406 12.375 -0.929688 11.46875 -0.484375 C 10.5625 -0.046875 9.640625 0.171875 8.703125 0.171875 C 6.578125 0.171875 4.832031 -0.488281 3.46875 -1.8125 C 2.113281 -3.132812 1.421875 -4.832031 1.390625 -6.90625 C 1.390625 -9.125 2.054688 -10.878906 3.390625 -12.171875 C 4.722656 -13.472656 6.492188 -14.132812 8.703125 -14.15625 Z M 3.859375 -6.90625 C 3.859375 -5.519531 4.328125 -4.347656 5.265625 -3.390625 C 6.210938 -2.441406 7.367188 -1.960938 8.734375 -1.953125 C 10.222656 -1.953125 11.414062 -2.429688 12.3125 -3.390625 C 13.207031 -4.347656 13.65625 -5.535156 13.65625 -6.953125 C 13.65625 -8.472656 13.195312 -9.691406 12.28125 -10.609375 C 11.363281 -11.535156 10.171875 -12.007812 8.703125 -12.03125 C 7.304688 -12.03125 6.148438 -11.535156 5.234375 -10.546875 C 4.316406 -9.566406 3.859375 -8.351562 3.859375 -6.90625 Z M 3.859375 -6.90625 "/></g></g></g><g fill="#fffff9" fill-opacity="1"><g transform="translate(138.920947, 82.121197)"><g><path d="M 8.75 -14.15625 C 10.894531 -14.15625 12.644531 -13.488281 14 -12.15625 C 15.363281 -10.832031 16.070312 -9.082031 16.125 -6.90625 C 16.125 -4.800781 15.4375 -3.070312 14.0625 -1.71875 C 12.6875 -0.375 10.914062 0.316406 8.75 0.359375 C 6.59375 0.359375 4.832031 -0.320312 3.46875 -1.6875 C 2.113281 -3.0625 1.421875 -4.800781 1.390625 -6.90625 C 1.390625 -9.019531 2.078125 -10.75 3.453125 -12.09375 C 4.828125 -13.445312 6.59375 -14.132812 8.75 -14.15625 Z M 3.859375 -6.90625 C 3.859375 -5.382812 4.316406 -4.15625 5.234375 -3.21875 C 6.148438 -2.289062 7.320312 -1.804688 8.75 -1.765625 C 10.1875 -1.765625 11.359375 -2.238281 12.265625 -3.1875 C 13.171875 -4.144531 13.632812 -5.382812 13.65625 -6.90625 C 13.65625 -8.394531 13.195312 -9.617188 12.28125 -10.578125 C 11.363281 -11.546875 10.179688 -12.03125 8.734375 -12.03125 C 7.316406 -12.03125 6.15625 -11.550781 5.25 -10.59375 C 4.34375 -9.644531 3.878906 -8.414062 3.859375 -6.90625 Z M 3.859375 -6.90625 "/></g></g></g><g clip-path="url(#220b75c157)"><path stroke-linecap="butt" transform="matrix(0.7496, 0, 0, 0.7496, -0.00000000000004261, 0.0400041)" fill="none" stroke-linejoin="miter" d="M 0.000000000000056843 1.999811 L 299.998567 1.999811 " stroke="#ffffff" stroke-width="4" stroke-opacity="1" stroke-miterlimit="4"/></g><g clip-path="url(#ed43680541)"><path stroke-linecap="butt" transform="matrix(0.7496, 0, 0, 0.7496, 0, 1.539204)" fill="none" stroke-linejoin="miter" d="M 0 2.000879 L 299.998567 2.000879 " stroke="#ff3131" stroke-width="4" stroke-opacity="1" stroke-miterlimit="4"/></g></svg>