<svg xmlns="http://www.w3.org/2000/svg" xmlns:xlink="http://www.w3.org/1999/xlink" width="300" zoomAndPan="magnify" viewBox="0 0 224.87999 149.999998" height="200" preserveAspectRatio="xMidYMid meet" version="1.0"><defs><g/><clipPath id="fe8924e5c4"><path d="M 0 0.0390625 L 224.761719 0.0390625 L 224.761719 149.960938 L 0 149.960938 Z M 0 0.0390625 " clip-rule="nonzero"/></clipPath><clipPath id="3343a85213"><path d="M 0 0.0390625 L 224.761719 0.0390625 L 224.761719 4 L 0 4 Z M 0 0.0390625 " clip-rule="nonzero"/></clipPath><clipPath id="c2b9410eaf"><path d="M 0 3 L 224.761719 3 L 224.761719 7 L 0 7 Z M 0 3 " clip-rule="nonzero"/></clipPath></defs><g clip-path="url(#fe8924e5c4)"><path fill="#ffffff" d="M 0 0.0390625 L 224.878906 0.0390625 L 224.878906 149.960938 L 0 149.960938 Z M 0 0.0390625 " fill-opacity="1" fill-rule="nonzero"/><path fill="#ff3131" d="M 0 0.0390625 L 224.878906 0.0390625 L 224.878906 149.960938 L 0 149.960938 Z M 0 0.0390625 " fill-opacity="1" fill-rule="nonzero"/></g><g fill="#fffff9" fill-opacity="1"><g transform="translate(69.885808, 82.121197)"><g><path d="M 5.65625 -17.71875 L 5.65625 -13.796875 L 9.734375 -13.796875 L 9.734375 -11.859375 L 5.65625 -11.859375 L 5.65625 -4.484375 C 5.65625 -3.378906 5.832031 -2.648438 6.1875 -2.296875 C 6.539062 -1.941406 7.050781 -1.765625 7.71875 -1.765625 C 8.488281 -1.765625 9.171875 -1.921875 9.765625 -2.234375 L 9.84375 -0.140625 C 9.0625 0.191406 8.171875 0.359375 7.171875 0.359375 C 5.753906 0.359375 4.765625 0.0078125 4.203125 -0.6875 C 3.640625 -1.382812 3.359375 -2.53125 3.359375 -4.125 L 3.359375 -11.859375 L 0.359375 -11.859375 L 0.359375 -13.796875 L 3.359375 -13.796875 L 3.359375 -17.71875 Z M 5.65625 -17.71875 "/></g></g></g><g fill="#fffff9" fill-opacity="1"><g transform="translate(80.262887, 82.121197)"><g><path d="M 4.484375 -22.296875 L 4.484375 -11.875 L 4.546875 -11.875 C 4.953125 -12.570312 5.554688 -13.125 6.359375 -13.53125 C 7.171875 -13.945312 8.050781 -14.15625 9 -14.15625 C 10.726562 -14.15625 12.03125 -13.648438 12.90625 -12.640625 C 13.78125 -11.640625 14.21875 -10.304688 14.21875 -8.640625 L 14.21875 0 L 11.90625 0 L 11.90625 -8.375 C 11.90625 -9.4375 11.660156 -10.304688 11.171875 -10.984375 C 10.679688 -11.660156 9.875 -12.007812 8.75 -12.03125 C 7.34375 -12.03125 6.28125 -11.5625 5.5625 -10.625 C 4.84375 -9.695312 4.484375 -8.4375 4.484375 -6.84375 L 4.484375 0 L 2.1875 0 L 2.1875 -22.296875 Z M 4.484375 -22.296875 "/></g></g></g><g fill="#fffff9" fill-opacity="1"><g transform="translate(96.653958, 82.121197)"><g><path d="M 20.671875 -18.25 L 20.875 -17.921875 C 20.71875 -17.003906 20.460938 -16.128906 20.109375 -15.296875 C 19.753906 -14.472656 19.226562 -13.78125 18.53125 -13.21875 C 17.832031 -12.664062 16.894531 -12.328125 15.71875 -12.203125 L 15.71875 0 L 13.59375 0 L 13.203125 -2.09375 L 13.09375 -2.09375 C 12.582031 -1.269531 11.878906 -0.664062 10.984375 -0.28125 C 10.085938 0.101562 9.140625 0.296875 8.140625 0.296875 C 6.210938 0.296875 4.757812 -0.160156 3.78125 -1.078125 C 2.8125 -1.992188 2.328125 -3.453125 2.328125 -5.453125 L 2.328125 -15.78125 L 4.953125 -15.78125 L 4.953125 -5.625 C 4.953125 -3.113281 6.125 -1.859375 8.46875 -1.859375 C 10.21875 -1.859375 11.429688 -2.347656 12.109375 -3.328125 C 12.785156 -4.316406 13.125 -5.734375 13.125 -7.578125 L 13.125 -15.78125 L 15.71875 -15.78125 L 15.71875 -14.03125 C 16.65625 -14.1875 17.253906 -14.644531 17.515625 -15.40625 C 17.785156 -16.164062 17.921875 -17.113281 17.921875 -18.25 Z M 13.265625 -22.578125 L 13.265625 -22.296875 C 13.003906 -21.941406 12.632812 -21.484375 12.15625 -20.921875 C 11.675781 -20.359375 11.15625 -19.796875 10.59375 -19.234375 C 10.03125 -18.671875 9.515625 -18.21875 9.046875 -17.875 L 7.328125 -17.875 L 7.328125 -18.21875 C 7.609375 -18.570312 7.925781 -19.007812 8.28125 -19.53125 C 8.632812 -20.050781 8.976562 -20.582031 9.3125 -21.125 C 9.644531 -21.664062 9.921875 -22.148438 10.140625 -22.578125 Z M 13.265625 -22.578125 "/></g></g></g><g fill="#fffff9" fill-opacity="1"><g transform="translate(116.523709, 82.121197)"><g/></g></g><g fill="#fffff9" fill-opacity="1"><g transform="translate(124.719244, 82.121197)"><g><path d="M 5.65625 -17.71875 L 5.65625 -13.796875 L 9.734375 -13.796875 L 9.734375 -11.859375 L 5.65625 -11.859375 L 5.65625 -4.484375 C 5.65625 -3.378906 5.832031 -2.648438 6.1875 -2.296875 C 6.539062 -1.941406 7.050781 -1.765625 7.71875 -1.765625 C 8.488281 -1.765625 9.171875 -1.921875 9.765625 -2.234375 L 9.84375 -0.140625 C 9.0625 0.191406 8.171875 0.359375 7.171875 0.359375 C 5.753906 0.359375 4.765625 0.0078125 4.203125 -0.6875 C 3.640625 -1.382812 3.359375 -2.53125 3.359375 -4.125 L 3.359375 -11.859375 L 0.359375 -11.859375 L 0.359375 -13.796875 L 3.359375 -13.796875 L 3.359375 -17.71875 Z M 5.65625 -17.71875 "/></g></g></g><g fill="#fffff9" fill-opacity="1"><g transform="translate(135.096324, 82.121197)"><g><path d="M 20.671875 -18.25 L 20.875 -17.921875 C 20.71875 -17.003906 20.460938 -16.128906 20.109375 -15.296875 C 19.753906 -14.472656 19.226562 -13.78125 18.53125 -13.21875 C 17.832031 -12.664062 16.894531 -12.328125 15.71875 -12.203125 L 15.71875 0 L 13.59375 0 L 13.203125 -2.09375 L 13.09375 -2.09375 C 12.582031 -1.269531 11.878906 -0.664062 10.984375 -0.28125 C 10.085938 0.101562 9.140625 0.296875 8.140625 0.296875 C 6.210938 0.296875 4.757812 -0.160156 3.78125 -1.078125 C 2.8125 -1.992188 2.328125 -3.453125 2.328125 -5.453125 L 2.328125 -15.78125 L 4.953125 -15.78125 L 4.953125 -5.625 C 4.953125 -3.113281 6.125 -1.859375 8.46875 -1.859375 C 10.21875 -1.859375 11.429688 -2.347656 12.109375 -3.328125 C 12.785156 -4.316406 13.125 -5.734375 13.125 -7.578125 L 13.125 -15.78125 L 15.71875 -15.78125 L 15.71875 -14.03125 C 16.65625 -14.1875 17.253906 -14.644531 17.515625 -15.40625 C 17.785156 -16.164062 17.921875 -17.113281 17.921875 -18.25 Z M 20.671875 -18.25 "/></g></g></g><g clip-path="url(#3343a85213)"><path stroke-linecap="butt" transform="matrix(0.7496, 0, 0, 0.7496, -0.00000000000004261, 0.0400041)" fill="none" stroke-linejoin="miter" d="M 0.000000000000056843 1.999811 L 299.998567 1.999811 " stroke="#ffffff" stroke-width="4" stroke-opacity="1" stroke-miterlimit="4"/></g><g clip-path="url(#c2b9410eaf)"><path stroke-linecap="butt" transform="matrix(0.7496, 0, 0, 0.7496, 0, 3.038404)" fill="none" stroke-linejoin="miter" d="M 0 2.001946 L 299.998567 2.001946 " stroke="#ffde59" stroke-width="4" stroke-opacity="1" stroke-miterlimit="4"/></g></svg>