<svg xmlns="http://www.w3.org/2000/svg" xmlns:xlink="http://www.w3.org/1999/xlink" width="300" zoomAndPan="magnify" viewBox="0 0 224.87999 149.999998" height="200" preserveAspectRatio="xMidYMid meet" version="1.0"><defs><g/><clipPath id="0ff5727cbc"><path d="M 0 0.0390625 L 224.761719 0.0390625 L 224.761719 149.960938 L 0 149.960938 Z M 0 0.0390625 " clip-rule="nonzero"/></clipPath><clipPath id="35cbb31ed6"><path d="M 0 0.0390625 L 224.761719 0.0390625 L 224.761719 4 L 0 4 Z M 0 0.0390625 " clip-rule="nonzero"/></clipPath><clipPath id="ddae91940c"><path d="M 0 3 L 224.761719 3 L 224.761719 7 L 0 7 Z M 0 3 " clip-rule="nonzero"/></clipPath></defs><g clip-path="url(#0ff5727cbc)"><path fill="#ffffff" d="M 0 0.0390625 L 224.878906 0.0390625 L 224.878906 149.960938 L 0 149.960938 Z M 0 0.0390625 " fill-opacity="1" fill-rule="nonzero"/><path fill="#ff3131" d="M 0 0.0390625 L 224.878906 0.0390625 L 224.878906 149.960938 L 0 149.960938 Z M 0 0.0390625 " fill-opacity="1" fill-rule="nonzero"/></g><g fill="#fffff9" fill-opacity="1"><g transform="translate(74.406832, 82.121197)"><g><path d="M 16.25 -7.9375 C 16.25 -5.320312 15.582031 -3.296875 14.25 -1.859375 C 12.925781 -0.421875 11.132812 0.296875 8.875 0.296875 C 7.476562 0.296875 6.234375 -0.0195312 5.140625 -0.65625 C 4.054688 -1.300781 3.195312 -2.238281 2.5625 -3.46875 C 1.9375 -4.695312 1.625 -6.1875 1.625 -7.9375 C 1.625 -10.550781 2.273438 -12.5625 3.578125 -13.96875 C 4.890625 -15.382812 6.6875 -16.09375 8.96875 -16.09375 C 9.988281 -16.09375 10.941406 -15.914062 11.828125 -15.5625 C 12.710938 -15.207031 13.46875 -14.707031 14.09375 -14.0625 C 14.976562 -14.320312 15.523438 -14.832031 15.734375 -15.59375 C 15.953125 -16.363281 16.0625 -17.238281 16.0625 -18.21875 L 18.84375 -18.21875 L 19.046875 -17.890625 C 18.773438 -16.535156 18.359375 -15.398438 17.796875 -14.484375 C 17.234375 -13.578125 16.382812 -12.914062 15.25 -12.5 C 15.5625 -11.875 15.804688 -11.179688 15.984375 -10.421875 C 16.160156 -9.660156 16.25 -8.832031 16.25 -7.9375 Z M 4.3125 -7.9375 C 4.3125 -5.945312 4.671875 -4.4375 5.390625 -3.40625 C 6.117188 -2.375 7.300781 -1.859375 8.9375 -1.859375 C 10.5625 -1.859375 11.738281 -2.375 12.46875 -3.40625 C 13.195312 -4.4375 13.5625 -5.945312 13.5625 -7.9375 C 13.5625 -9.914062 13.1875 -11.40625 12.4375 -12.40625 C 11.695312 -13.414062 10.519531 -13.921875 8.90625 -13.921875 C 7.289062 -13.921875 6.117188 -13.414062 5.390625 -12.40625 C 4.671875 -11.40625 4.3125 -9.914062 4.3125 -7.9375 Z M 12.21875 -21.53125 C 12.21875 -20.78125 11.988281 -20.203125 11.53125 -19.796875 C 11.082031 -19.390625 10.515625 -19.109375 9.828125 -18.953125 L 9.671875 -17.390625 L 8.09375 -17.390625 L 7.875 -19.90625 C 8.582031 -20.019531 9.144531 -20.1875 9.5625 -20.40625 C 9.988281 -20.632812 10.203125 -20.976562 10.203125 -21.4375 C 10.203125 -21.90625 10.019531 -22.21875 9.65625 -22.375 C 9.300781 -22.53125 8.847656 -22.609375 8.296875 -22.609375 C 8.035156 -22.609375 7.769531 -22.59375 7.5 -22.5625 C 7.238281 -22.539062 7.03125 -22.519531 6.875 -22.5 L 6.875 -24.03125 C 7.226562 -24.144531 7.769531 -24.203125 8.5 -24.203125 C 9.675781 -24.203125 10.585938 -23.976562 11.234375 -23.53125 C 11.890625 -23.09375 12.21875 -22.425781 12.21875 -21.53125 Z M 12.21875 -21.53125 "/></g></g></g><g fill="#fffff9" fill-opacity="1"><g transform="translate(92.566719, 82.121197)"><g/></g></g><g fill="#fffff9" fill-opacity="1"><g transform="translate(100.762254, 82.121197)"><g><path d="M 15.953125 -22.296875 L 15.953125 -18.578125 L 18.078125 -18.578125 L 18.078125 -16.8125 L 15.953125 -16.8125 L 15.953125 0 L 13.65625 0 L 13.65625 -2.453125 L 13.59375 -2.453125 C 13.125 -1.566406 12.40625 -0.875 11.4375 -0.375 C 10.476562 0.113281 9.425781 0.359375 8.28125 0.359375 C 6.332031 0.359375 4.703125 -0.332031 3.390625 -1.71875 C 2.078125 -3.101562 1.410156 -4.832031 1.390625 -6.90625 C 1.390625 -9 2.0625 -10.722656 3.40625 -12.078125 C 4.75 -13.441406 6.492188 -14.132812 8.640625 -14.15625 C 10.617188 -14.15625 12.269531 -13.367188 13.59375 -11.796875 L 13.65625 -11.796875 L 13.65625 -16.8125 L 9.9375 -16.8125 L 9.9375 -18.578125 L 13.65625 -18.578125 L 13.65625 -22.296875 Z M 3.859375 -6.90625 C 3.859375 -5.382812 4.316406 -4.15625 5.234375 -3.21875 C 6.148438 -2.289062 7.320312 -1.804688 8.75 -1.765625 C 10.1875 -1.765625 11.351562 -2.238281 12.25 -3.1875 C 13.144531 -4.144531 13.613281 -5.382812 13.65625 -6.90625 C 13.65625 -8.394531 13.195312 -9.617188 12.28125 -10.578125 C 11.363281 -11.546875 10.179688 -12.03125 8.734375 -12.03125 C 7.316406 -12.03125 6.15625 -11.550781 5.25 -10.59375 C 4.34375 -9.644531 3.878906 -8.414062 3.859375 -6.90625 Z M 3.859375 -6.90625 "/></g></g></g><g fill="#fffff9" fill-opacity="1"><g transform="translate(118.77474, 82.121197)"><g><path d="M 7.484375 -14.15625 C 9.492188 -14.15625 10.953125 -13.679688 11.859375 -12.734375 C 12.773438 -11.796875 13.242188 -10.375 13.265625 -8.46875 L 13.265625 -2.265625 C 13.265625 -1.679688 13.332031 -0.925781 13.46875 0 L 11.265625 0 C 11.160156 -0.175781 11.109375 -0.863281 11.109375 -2.0625 L 11.0625 -2.0625 C 10.019531 -0.488281 8.503906 0.316406 6.515625 0.359375 C 5.003906 0.359375 3.769531 -0.0195312 2.8125 -0.78125 C 1.863281 -1.539062 1.390625 -2.53125 1.390625 -3.75 C 1.390625 -5.414062 2.078125 -6.632812 3.453125 -7.40625 C 4.828125 -8.1875 6.976562 -8.578125 9.90625 -8.578125 L 10.96875 -8.578125 L 10.96875 -8.96875 C 10.96875 -10.96875 9.828125 -11.988281 7.546875 -12.03125 C 5.898438 -12.03125 4.535156 -11.53125 3.453125 -10.53125 L 2 -12.03125 C 3.414062 -13.40625 5.242188 -14.113281 7.484375 -14.15625 Z M 3.859375 -3.984375 C 3.859375 -2.429688 4.875 -1.632812 6.90625 -1.59375 C 8.101562 -1.59375 9.078125 -1.972656 9.828125 -2.734375 C 10.585938 -3.503906 10.96875 -4.628906 10.96875 -6.109375 L 10.96875 -6.640625 L 8.4375 -6.640625 C 7.070312 -6.640625 5.972656 -6.421875 5.140625 -5.984375 C 4.304688 -5.554688 3.878906 -4.890625 3.859375 -3.984375 Z M 8.984375 -21.34375 L 12.296875 -17.09375 L 9.90625 -17.09375 L 7.578125 -20.109375 L 5.28125 -17.09375 L 3.03125 -17.09375 L 6.3125 -21.34375 Z M 8.984375 -21.34375 "/></g></g></g><g fill="#fffff9" fill-opacity="1"><g transform="translate(134.075038, 82.121197)"><g><path d="M 4.484375 -13.796875 L 4.484375 -5.421875 C 4.484375 -4.359375 4.734375 -3.488281 5.234375 -2.8125 C 5.734375 -2.132812 6.535156 -1.785156 7.640625 -1.765625 C 9.054688 -1.765625 10.117188 -2.234375 10.828125 -3.171875 C 11.546875 -4.117188 11.90625 -5.378906 11.90625 -6.953125 L 11.90625 -13.796875 L 14.21875 -13.796875 L 14.21875 -3.0625 C 14.226562 -2.507812 14.265625 -1.488281 14.328125 0 L 12.140625 0 C 12.128906 -0.945312 12.113281 -1.703125 12.09375 -2.265625 L 12.03125 -2.265625 C 11.675781 -1.503906 11.082031 -0.875 10.25 -0.375 C 9.414062 0.113281 8.46875 0.359375 7.40625 0.359375 C 5.707031 0.335938 4.410156 -0.164062 3.515625 -1.15625 C 2.628906 -2.15625 2.1875 -3.488281 2.1875 -5.15625 L 2.1875 -13.796875 Z M 4.484375 -13.796875 "/></g></g></g><g clip-path="url(#35cbb31ed6)"><path stroke-linecap="butt" transform="matrix(0.7496, 0, 0, 0.7496, -0.00000000000004261, 0.0400041)" fill="none" stroke-linejoin="miter" d="M 0.000000000000056843 1.999811 L 299.998567 1.999811 " stroke="#ffffff" stroke-width="4" stroke-opacity="1" stroke-miterlimit="4"/></g><g clip-path="url(#ddae91940c)"><path stroke-linecap="butt" transform="matrix(0.7496, 0, 0, 0.7496, 0, 3.038404)" fill="none" stroke-linejoin="miter" d="M 0 2.001946 L 299.998567 2.001946 " stroke="#ffde59" stroke-width="4" stroke-opacity="1" stroke-miterlimit="4"/></g></svg>