<svg xmlns="http://www.w3.org/2000/svg" xmlns:xlink="http://www.w3.org/1999/xlink" width="300" zoomAndPan="magnify" viewBox="0 0 224.87999 149.999998" height="200" preserveAspectRatio="xMidYMid meet" version="1.0"><defs><g/><clipPath id="5c5a0c0571"><path d="M 0 0.0390625 L 224.761719 0.0390625 L 224.761719 149.960938 L 0 149.960938 Z M 0 0.0390625 " clip-rule="nonzero"/></clipPath><clipPath id="9f01e00aee"><path d="M 0 0.0390625 L 224.761719 0.0390625 L 224.761719 4 L 0 4 Z M 0 0.0390625 " clip-rule="nonzero"/></clipPath><clipPath id="e03ff9bcc0"><path d="M 0 3 L 224.761719 3 L 224.761719 7 L 0 7 Z M 0 3 " clip-rule="nonzero"/></clipPath></defs><g clip-path="url(#5c5a0c0571)"><path fill="#ffffff" d="M 0 0.0390625 L 224.878906 0.0390625 L 224.878906 149.960938 L 0 149.960938 Z M 0 0.0390625 " fill-opacity="1" fill-rule="nonzero"/><path fill="#ff3131" d="M 0 0.0390625 L 224.878906 0.0390625 L 224.878906 149.960938 L 0 149.960938 Z M 0 0.0390625 " fill-opacity="1" fill-rule="nonzero"/></g><g fill="#fffff9" fill-opacity="1"><g transform="translate(78.189969, 82.121197)"><g><path d="M 8.546875 -14.15625 C 10.734375 -14.15625 12.492188 -13.425781 13.828125 -11.96875 L 12 -10.34375 C 11.070312 -11.46875 9.910156 -12.03125 8.515625 -12.03125 C 7.085938 -12.03125 5.953125 -11.5625 5.109375 -10.625 C 4.273438 -9.695312 3.859375 -8.457031 3.859375 -6.90625 C 3.859375 -5.425781 4.304688 -4.203125 5.203125 -3.234375 C 6.097656 -2.273438 7.203125 -1.785156 8.515625 -1.765625 C 10.035156 -1.765625 11.207031 -2.335938 12.03125 -3.484375 L 13.734375 -1.859375 C 12.460938 -0.398438 10.722656 0.335938 8.515625 0.359375 C 6.410156 0.335938 4.703125 -0.328125 3.390625 -1.640625 C 2.085938 -2.960938 1.421875 -4.71875 1.390625 -6.90625 C 1.410156 -9.101562 2.097656 -10.859375 3.453125 -12.171875 C 4.804688 -13.492188 6.503906 -14.15625 8.546875 -14.15625 Z M 8.546875 -14.15625 "/></g></g></g><g fill="#fffff9" fill-opacity="1"><g transform="translate(92.399495, 82.121197)"><g><path d="M 20.671875 -18.25 L 20.875 -17.921875 C 20.71875 -17.003906 20.460938 -16.128906 20.109375 -15.296875 C 19.753906 -14.472656 19.226562 -13.78125 18.53125 -13.21875 C 17.832031 -12.664062 16.894531 -12.328125 15.71875 -12.203125 L 15.71875 0 L 13.59375 0 L 13.203125 -2.09375 L 13.09375 -2.09375 C 12.582031 -1.269531 11.878906 -0.664062 10.984375 -0.28125 C 10.085938 0.101562 9.140625 0.296875 8.140625 0.296875 C 6.210938 0.296875 4.757812 -0.160156 3.78125 -1.078125 C 2.8125 -1.992188 2.328125 -3.453125 2.328125 -5.453125 L 2.328125 -15.78125 L 4.953125 -15.78125 L 4.953125 -5.625 C 4.953125 -3.113281 6.125 -1.859375 8.46875 -1.859375 C 10.21875 -1.859375 11.429688 -2.347656 12.109375 -3.328125 C 12.785156 -4.316406 13.125 -5.734375 13.125 -7.578125 L 13.125 -15.78125 L 15.71875 -15.78125 L 15.71875 -14.03125 C 16.65625 -14.1875 17.253906 -14.644531 17.515625 -15.40625 C 17.785156 -16.164062 17.921875 -17.113281 17.921875 -18.25 Z M 13.265625 -22.578125 L 13.265625 -22.296875 C 13.003906 -21.941406 12.632812 -21.484375 12.15625 -20.921875 C 11.675781 -20.359375 11.15625 -19.796875 10.59375 -19.234375 C 10.03125 -18.671875 9.515625 -18.21875 9.046875 -17.875 L 7.328125 -17.875 L 7.328125 -18.21875 C 7.609375 -18.570312 7.925781 -19.007812 8.28125 -19.53125 C 8.632812 -20.050781 8.976562 -20.582031 9.3125 -21.125 C 9.644531 -21.664062 9.921875 -22.148438 10.140625 -22.578125 Z M 13.265625 -22.578125 "/></g></g></g><g fill="#fffff9" fill-opacity="1"><g transform="translate(112.269246, 82.121197)"><g><path d="M 8.96875 -14.15625 C 10.695312 -14.15625 12.003906 -13.648438 12.890625 -12.640625 C 13.773438 -11.640625 14.21875 -10.304688 14.21875 -8.640625 L 14.21875 0 L 11.90625 0 L 11.90625 -8.375 C 11.90625 -9.4375 11.660156 -10.304688 11.171875 -10.984375 C 10.679688 -11.660156 9.875 -12.007812 8.75 -12.03125 C 7.34375 -12.03125 6.28125 -11.5625 5.5625 -10.625 C 4.84375 -9.695312 4.484375 -8.40625 4.484375 -6.75 L 4.484375 0 L 2.1875 0 L 2.1875 -10.734375 C 2.1875 -10.828125 2.144531 -11.847656 2.0625 -13.796875 L 4.25 -13.796875 C 4.289062 -12.421875 4.3125 -11.664062 4.3125 -11.53125 L 4.359375 -11.53125 C 4.734375 -12.3125 5.335938 -12.941406 6.171875 -13.421875 C 7.015625 -13.910156 7.945312 -14.15625 8.96875 -14.15625 Z M 8.96875 -14.15625 "/></g></g></g><g fill="#fffff9" fill-opacity="1"><g transform="translate(128.660317, 82.121197)"><g><path d="M 8.703125 -14.15625 C 9.765625 -14.15625 10.738281 -13.90625 11.625 -13.40625 C 12.519531 -12.914062 13.175781 -12.257812 13.59375 -11.4375 L 13.65625 -11.4375 L 13.65625 -13.796875 L 15.953125 -13.796875 L 15.953125 -0.46875 C 15.953125 1.882812 15.320312 3.71875 14.0625 5.03125 C 12.800781 6.351562 10.925781 7.035156 8.4375 7.078125 C 7.070312 7.078125 5.835938 6.878906 4.734375 6.484375 C 3.640625 6.085938 2.613281 5.410156 1.65625 4.453125 L 3.296875 2.5625 C 4.773438 4.15625 6.488281 4.953125 8.4375 4.953125 C 11.914062 4.953125 13.65625 3.101562 13.65625 -0.59375 L 13.65625 -2.390625 L 13.59375 -2.390625 C 13.082031 -1.566406 12.375 -0.929688 11.46875 -0.484375 C 10.5625 -0.046875 9.640625 0.171875 8.703125 0.171875 C 6.578125 0.171875 4.832031 -0.488281 3.46875 -1.8125 C 2.113281 -3.132812 1.421875 -4.832031 1.390625 -6.90625 C 1.390625 -9.125 2.054688 -10.878906 3.390625 -12.171875 C 4.722656 -13.472656 6.492188 -14.132812 8.703125 -14.15625 Z M 3.859375 -6.90625 C 3.859375 -5.519531 4.328125 -4.347656 5.265625 -3.390625 C 6.210938 -2.441406 7.367188 -1.960938 8.734375 -1.953125 C 10.222656 -1.953125 11.414062 -2.429688 12.3125 -3.390625 C 13.207031 -4.347656 13.65625 -5.535156 13.65625 -6.953125 C 13.65625 -8.472656 13.195312 -9.691406 12.28125 -10.609375 C 11.363281 -11.535156 10.171875 -12.007812 8.703125 -12.03125 C 7.304688 -12.03125 6.148438 -11.535156 5.234375 -10.546875 C 4.316406 -9.566406 3.859375 -8.351562 3.859375 -6.90625 Z M 3.859375 -6.90625 "/></g></g></g><g clip-path="url(#9f01e00aee)"><path stroke-linecap="butt" transform="matrix(0.7496, 0, 0, 0.7496, -0.00000000000004261, 0.0400041)" fill="none" stroke-linejoin="miter" d="M 0.000000000000056843 1.999811 L 299.998567 1.999811 " stroke="#ffffff" stroke-width="4" stroke-opacity="1" stroke-miterlimit="4"/></g><g clip-path="url(#e03ff9bcc0)"><path stroke-linecap="butt" transform="matrix(0.7496, 0, 0, 0.7496, 0, 3.038404)" fill="none" stroke-linejoin="miter" d="M 0 2.001946 L 299.998567 2.001946 " stroke="#ffde59" stroke-width="4" stroke-opacity="1" stroke-miterlimit="4"/></g></svg>