<svg xmlns="http://www.w3.org/2000/svg" xmlns:xlink="http://www.w3.org/1999/xlink" width="300" zoomAndPan="magnify" viewBox="0 0 224.87999 149.999998" height="200" preserveAspectRatio="xMidYMid meet" version="1.0"><defs><g/><clipPath id="c99c831f30"><path d="M 0 0.0390625 L 224.761719 0.0390625 L 224.761719 149.960938 L 0 149.960938 Z M 0 0.0390625 " clip-rule="nonzero"/></clipPath><clipPath id="9cb7114f48"><path d="M 0 0.0390625 L 224.761719 0.0390625 L 224.761719 4 L 0 4 Z M 0 0.0390625 " clip-rule="nonzero"/></clipPath><clipPath id="20ed063088"><path d="M 0 3 L 224.761719 3 L 224.761719 7 L 0 7 Z M 0 3 " clip-rule="nonzero"/></clipPath></defs><g clip-path="url(#c99c831f30)"><path fill="#ffffff" d="M 0 0.0390625 L 224.878906 0.0390625 L 224.878906 149.960938 L 0 149.960938 Z M 0 0.0390625 " fill-opacity="1" fill-rule="nonzero"/><path fill="#ff3131" d="M 0 0.0390625 L 224.878906 0.0390625 L 224.878906 149.960938 L 0 149.960938 Z M 0 0.0390625 " fill-opacity="1" fill-rule="nonzero"/></g><g fill="#fffff9" fill-opacity="1"><g transform="translate(85.767956, 82.121197)"><g><path d="M 9 -14.15625 C 11.09375 -14.15625 12.535156 -13.28125 13.328125 -11.53125 C 13.878906 -12.4375 14.5 -13.097656 15.1875 -13.515625 C 15.875 -13.941406 16.71875 -14.15625 17.71875 -14.15625 C 19.507812 -14.15625 20.828125 -13.6875 21.671875 -12.75 C 22.515625 -11.8125 22.9375 -10.398438 22.9375 -8.515625 L 22.9375 0 L 20.640625 0 L 20.640625 -8.34375 C 20.640625 -10.757812 19.519531 -11.988281 17.28125 -12.03125 C 16.238281 -12.03125 15.378906 -11.640625 14.703125 -10.859375 C 14.035156 -10.085938 13.703125 -9.148438 13.703125 -8.046875 L 13.703125 0 L 11.40625 0 L 11.40625 -7.984375 C 11.40625 -9.347656 11.207031 -10.363281 10.8125 -11.03125 C 10.425781 -11.695312 9.734375 -12.03125 8.734375 -12.03125 C 7.335938 -12.03125 6.28125 -11.5625 5.5625 -10.625 C 4.84375 -9.695312 4.484375 -8.40625 4.484375 -6.75 L 4.484375 0 L 2.1875 0 L 2.1875 -10.734375 C 2.164062 -11.421875 2.125 -12.441406 2.0625 -13.796875 L 4.25 -13.796875 C 4.289062 -12.441406 4.3125 -11.6875 4.3125 -11.53125 L 4.359375 -11.53125 C 4.734375 -12.3125 5.332031 -12.941406 6.15625 -13.421875 C 6.988281 -13.910156 7.9375 -14.15625 9 -14.15625 Z M 9 -14.15625 "/></g></g></g><g fill="#fffff9" fill-opacity="1"><g transform="translate(110.885205, 82.121197)"><g><path d="M 16.25 -7.9375 C 16.25 -5.320312 15.582031 -3.296875 14.25 -1.859375 C 12.925781 -0.421875 11.132812 0.296875 8.875 0.296875 C 7.476562 0.296875 6.234375 -0.0195312 5.140625 -0.65625 C 4.054688 -1.300781 3.195312 -2.238281 2.5625 -3.46875 C 1.9375 -4.695312 1.625 -6.1875 1.625 -7.9375 C 1.625 -10.550781 2.273438 -12.5625 3.578125 -13.96875 C 4.890625 -15.382812 6.6875 -16.09375 8.96875 -16.09375 C 10.382812 -16.09375 11.640625 -15.773438 12.734375 -15.140625 C 13.835938 -14.503906 14.695312 -13.582031 15.3125 -12.375 C 15.9375 -11.164062 16.25 -9.6875 16.25 -7.9375 Z M 4.3125 -7.9375 C 4.3125 -6.0625 4.675781 -4.578125 5.40625 -3.484375 C 6.144531 -2.398438 7.320312 -1.859375 8.9375 -1.859375 C 10.53125 -1.859375 11.695312 -2.398438 12.4375 -3.484375 C 13.1875 -4.578125 13.5625 -6.0625 13.5625 -7.9375 C 13.5625 -9.800781 13.1875 -11.265625 12.4375 -12.328125 C 11.695312 -13.390625 10.519531 -13.921875 8.90625 -13.921875 C 7.289062 -13.921875 6.117188 -13.390625 5.390625 -12.328125 C 4.671875 -11.265625 4.3125 -9.800781 4.3125 -7.9375 Z M 8.84375 5.1875 C 8.425781 5.1875 8.066406 5.046875 7.765625 4.765625 C 7.460938 4.492188 7.3125 4.082031 7.3125 3.53125 C 7.3125 2.96875 7.460938 2.550781 7.765625 2.28125 C 8.066406 2.019531 8.425781 1.890625 8.84375 1.890625 C 9.25 1.890625 9.601562 2.019531 9.90625 2.28125 C 10.21875 2.550781 10.375 2.96875 10.375 3.53125 C 10.375 4.082031 10.21875 4.492188 9.90625 4.765625 C 9.601562 5.046875 9.25 5.1875 8.84375 5.1875 Z M 10.28125 -22.578125 C 10.519531 -22.148438 10.859375 -21.664062 11.296875 -21.125 C 11.742188 -20.582031 12.207031 -20.050781 12.6875 -19.53125 C 13.164062 -19.007812 13.59375 -18.5625 13.96875 -18.1875 L 13.96875 -17.875 L 12.140625 -17.875 C 11.628906 -18.1875 11.097656 -18.570312 10.546875 -19.03125 C 10.003906 -19.488281 9.46875 -19.984375 8.9375 -20.515625 C 8.40625 -19.984375 7.875 -19.488281 7.34375 -19.03125 C 6.8125 -18.570312 6.289062 -18.1875 5.78125 -17.875 L 4 -17.875 L 4 -18.1875 C 4.351562 -18.5625 4.765625 -19.007812 5.234375 -19.53125 C 5.710938 -20.050781 6.164062 -20.582031 6.59375 -21.125 C 7.03125 -21.664062 7.378906 -22.148438 7.640625 -22.578125 Z M 10.28125 -22.578125 "/></g></g></g><g fill="#fffff9" fill-opacity="1"><g transform="translate(128.720813, 82.121197)"><g><path d="M 5.65625 -17.71875 L 5.65625 -13.796875 L 9.734375 -13.796875 L 9.734375 -11.859375 L 5.65625 -11.859375 L 5.65625 -4.484375 C 5.65625 -3.378906 5.832031 -2.648438 6.1875 -2.296875 C 6.539062 -1.941406 7.050781 -1.765625 7.71875 -1.765625 C 8.488281 -1.765625 9.171875 -1.921875 9.765625 -2.234375 L 9.84375 -0.140625 C 9.0625 0.191406 8.171875 0.359375 7.171875 0.359375 C 5.753906 0.359375 4.765625 0.0078125 4.203125 -0.6875 C 3.640625 -1.382812 3.359375 -2.53125 3.359375 -4.125 L 3.359375 -11.859375 L 0.359375 -11.859375 L 0.359375 -13.796875 L 3.359375 -13.796875 L 3.359375 -17.71875 Z M 5.65625 -17.71875 "/></g></g></g><g clip-path="url(#9cb7114f48)"><path stroke-linecap="butt" transform="matrix(0.7496, 0, 0, 0.7496, -0.00000000000004261, 0.0400041)" fill="none" stroke-linejoin="miter" d="M 0.000000000000056843 1.999811 L 299.998567 1.999811 " stroke="#ffffff" stroke-width="4" stroke-opacity="1" stroke-miterlimit="4"/></g><g clip-path="url(#20ed063088)"><path stroke-linecap="butt" transform="matrix(0.7496, 0, 0, 0.7496, 0, 3.038404)" fill="none" stroke-linejoin="miter" d="M 0 2.001946 L 299.998567 2.001946 " stroke="#ffde59" stroke-width="4" stroke-opacity="1" stroke-miterlimit="4"/></g></svg>