<svg xmlns="http://www.w3.org/2000/svg" xmlns:xlink="http://www.w3.org/1999/xlink" width="300" zoomAndPan="magnify" viewBox="0 0 224.87999 149.999998" height="200" preserveAspectRatio="xMidYMid meet" version="1.0"><defs><g/><clipPath id="7316b95d29"><path d="M 0 0.0390625 L 224.761719 0.0390625 L 224.761719 149.960938 L 0 149.960938 Z M 0 0.0390625 " clip-rule="nonzero"/></clipPath><clipPath id="fa0b9ca31f"><path d="M 0 0.0390625 L 224.761719 0.0390625 L 224.761719 4 L 0 4 Z M 0 0.0390625 " clip-rule="nonzero"/></clipPath><clipPath id="1f1d517802"><path d="M 0 1 L 224.761719 1 L 224.761719 5 L 0 5 Z M 0 1 " clip-rule="nonzero"/></clipPath></defs><g clip-path="url(#7316b95d29)"><path fill="#ffffff" d="M 0 0.0390625 L 224.878906 0.0390625 L 224.878906 149.960938 L 0 149.960938 Z M 0 0.0390625 " fill-opacity="1" fill-rule="nonzero"/><path fill="#191919" d="M 0 0.0390625 L 224.878906 0.0390625 L 224.878906 149.960938 L 0 149.960938 Z M 0 0.0390625 " fill-opacity="1" fill-rule="nonzero"/></g><g fill="#fffff9" fill-opacity="1"><g transform="translate(90.851181, 82.121197)"><g><path d="M 2.984375 -13.796875 L 7.25 -2.984375 L 7.3125 -2.984375 L 11.40625 -13.796875 L 13.921875 -13.796875 L 7.171875 3.390625 C 6.640625 4.765625 6.03125 5.722656 5.34375 6.265625 C 4.664062 6.804688 3.769531 7.078125 2.65625 7.078125 C 1.8125 7.078125 1.125 6.957031 0.59375 6.71875 L 0.890625 4.71875 C 1.160156 4.875 1.726562 4.953125 2.59375 4.953125 C 3.695312 4.953125 4.492188 4.273438 4.984375 2.921875 L 6.015625 0.09375 L 0.296875 -13.796875 Z M 2.984375 -13.796875 "/></g></g></g><g fill="#fffff9" fill-opacity="1"><g transform="translate(105.060707, 82.121197)"><g><path d="M 8.46875 -14.15625 C 10.507812 -14.15625 12.101562 -13.507812 13.25 -12.21875 C 14.40625 -10.9375 14.988281 -9.113281 15 -6.75 L 15 -6.1875 L 3.859375 -6.1875 C 3.984375 -4.914062 4.46875 -3.863281 5.3125 -3.03125 C 6.15625 -2.207031 7.1875 -1.785156 8.40625 -1.765625 C 10.269531 -1.765625 11.722656 -2.460938 12.765625 -3.859375 L 14.5 -2.5 C 13.78125 -1.5625 12.925781 -0.847656 11.9375 -0.359375 C 10.957031 0.117188 9.78125 0.359375 8.40625 0.359375 C 6.300781 0.359375 4.609375 -0.320312 3.328125 -1.6875 C 2.054688 -3.0625 1.410156 -4.800781 1.390625 -6.90625 C 1.390625 -8.988281 2.039062 -10.707031 3.34375 -12.0625 C 4.65625 -13.414062 6.363281 -14.113281 8.46875 -14.15625 Z M 12.53125 -8.140625 C 12.46875 -9.335938 12.078125 -10.285156 11.359375 -10.984375 C 10.648438 -11.679688 9.644531 -12.03125 8.34375 -12.03125 C 7.164062 -12.03125 6.171875 -11.695312 5.359375 -11.03125 C 4.554688 -10.363281 4.054688 -9.398438 3.859375 -8.140625 Z M 12.53125 -8.140625 "/></g></g></g><g fill="#fffff9" fill-opacity="1"><g transform="translate(121.451777, 82.121197)"><g><path d="M 6.390625 -14.15625 C 8.597656 -14.132812 10.164062 -13.296875 11.09375 -11.640625 L 9.171875 -10.375 C 8.503906 -11.476562 7.53125 -12.03125 6.25 -12.03125 C 5.476562 -12.03125 4.832031 -11.851562 4.3125 -11.5 C 3.789062 -11.144531 3.53125 -10.679688 3.53125 -10.109375 C 3.53125 -9.191406 4.679688 -8.523438 6.984375 -8.109375 C 8.640625 -7.816406 9.8125 -7.332031 10.5 -6.65625 C 11.1875 -5.988281 11.53125 -5.097656 11.53125 -3.984375 C 11.53125 -2.628906 11.023438 -1.566406 10.015625 -0.796875 C 9.015625 -0.0234375 7.679688 0.359375 6.015625 0.359375 C 4.710938 0.359375 3.644531 0.148438 2.8125 -0.265625 C 1.976562 -0.679688 1.257812 -1.332031 0.65625 -2.21875 L 2.484375 -3.625 C 3.046875 -2.9375 3.601562 -2.453125 4.15625 -2.171875 C 4.707031 -1.898438 5.328125 -1.765625 6.015625 -1.765625 C 6.898438 -1.765625 7.625 -1.957031 8.1875 -2.34375 C 8.757812 -2.726562 9.046875 -3.242188 9.046875 -3.890625 C 9.046875 -4.554688 8.742188 -5.054688 8.140625 -5.390625 C 7.546875 -5.722656 6.550781 -6.03125 5.15625 -6.3125 C 3.78125 -6.601562 2.78125 -7.039062 2.15625 -7.625 C 1.539062 -8.21875 1.234375 -9.035156 1.234375 -10.078125 C 1.234375 -11.242188 1.707031 -12.207031 2.65625 -12.96875 C 3.613281 -13.738281 4.859375 -14.132812 6.390625 -14.15625 Z M 6.390625 -14.15625 "/></g></g></g><g clip-path="url(#fa0b9ca31f)"><path stroke-linecap="butt" transform="matrix(0.7496, 0, 0, 0.7496, -0.00000000000004261, 0.0400041)" fill="none" stroke-linejoin="miter" d="M 0.000000000000056843 1.999811 L 299.998567 1.999811 " stroke="#ffffff" stroke-width="4" stroke-opacity="1" stroke-miterlimit="4"/></g><g clip-path="url(#1f1d517802)"><path stroke-linecap="butt" transform="matrix(0.7496, 0, 0, 0.7496, 0, 1.539204)" fill="none" stroke-linejoin="miter" d="M 0 2.000879 L 299.998567 2.000879 " stroke="#ff3131" stroke-width="4" stroke-opacity="1" stroke-miterlimit="4"/></g></svg>