<svg xmlns="http://www.w3.org/2000/svg" xmlns:xlink="http://www.w3.org/1999/xlink" width="300" zoomAndPan="magnify" viewBox="0 0 224.87999 149.999998" height="200" preserveAspectRatio="xMidYMid meet" version="1.0"><defs><g/><clipPath id="e9eb17c37d"><path d="M 0 0.0390625 L 224.761719 0.0390625 L 224.761719 149.960938 L 0 149.960938 Z M 0 0.0390625 " clip-rule="nonzero"/></clipPath><clipPath id="9a05fc66b6"><path d="M 0 0.0390625 L 224.761719 0.0390625 L 224.761719 4 L 0 4 Z M 0 0.0390625 " clip-rule="nonzero"/></clipPath><clipPath id="c7c5f7697d"><path d="M 0 3 L 224.761719 3 L 224.761719 7 L 0 7 Z M 0 3 " clip-rule="nonzero"/></clipPath></defs><g clip-path="url(#e9eb17c37d)"><path fill="#ffffff" d="M 0 0.0390625 L 224.878906 0.0390625 L 224.878906 149.960938 L 0 149.960938 Z M 0 0.0390625 " fill-opacity="1" fill-rule="nonzero"/><path fill="#ff3131" d="M 0 0.0390625 L 224.878906 0.0390625 L 224.878906 149.960938 L 0 149.960938 Z M 0 0.0390625 " fill-opacity="1" fill-rule="nonzero"/></g><g fill="#fffff9" fill-opacity="1"><g transform="translate(86.306731, 82.121197)"><g><path d="M 4.359375 -22.296875 L 4.359375 -11.796875 L 4.421875 -11.796875 C 5.753906 -13.347656 7.40625 -14.132812 9.375 -14.15625 C 11.5625 -14.15625 13.3125 -13.46875 14.625 -12.09375 C 15.9375 -10.726562 16.601562 -9 16.625 -6.90625 C 16.625 -4.851562 15.960938 -3.140625 14.640625 -1.765625 C 13.328125 -0.390625 11.691406 0.316406 9.734375 0.359375 C 8.546875 0.359375 7.472656 0.101562 6.515625 -0.40625 C 5.566406 -0.914062 4.867188 -1.597656 4.421875 -2.453125 L 4.359375 -2.453125 L 4.359375 0 L 2.0625 0 L 2.0625 -22.296875 Z M 4.359375 -6.90625 C 4.359375 -5.382812 4.828125 -4.144531 5.765625 -3.1875 C 6.703125 -2.238281 7.867188 -1.765625 9.265625 -1.765625 C 10.691406 -1.765625 11.859375 -2.238281 12.765625 -3.1875 C 13.671875 -4.144531 14.132812 -5.382812 14.15625 -6.90625 C 14.15625 -8.394531 13.695312 -9.617188 12.78125 -10.578125 C 11.863281 -11.546875 10.679688 -12.03125 9.234375 -12.03125 C 7.816406 -12.03125 6.65625 -11.550781 5.75 -10.59375 C 4.84375 -9.644531 4.378906 -8.414062 4.359375 -6.90625 Z M 4.359375 -6.90625 "/></g></g></g><g fill="#fffff9" fill-opacity="1"><g transform="translate(104.319217, 82.121197)"><g><path d="M 16.25 -7.9375 C 16.25 -5.320312 15.582031 -3.296875 14.25 -1.859375 C 12.925781 -0.421875 11.132812 0.296875 8.875 0.296875 C 7.476562 0.296875 6.234375 -0.0195312 5.140625 -0.65625 C 4.054688 -1.300781 3.195312 -2.238281 2.5625 -3.46875 C 1.9375 -4.695312 1.625 -6.1875 1.625 -7.9375 C 1.625 -10.550781 2.273438 -12.5625 3.578125 -13.96875 C 4.890625 -15.382812 6.6875 -16.09375 8.96875 -16.09375 C 10.382812 -16.09375 11.640625 -15.773438 12.734375 -15.140625 C 13.835938 -14.503906 14.695312 -13.582031 15.3125 -12.375 C 15.9375 -11.164062 16.25 -9.6875 16.25 -7.9375 Z M 4.3125 -7.9375 C 4.3125 -6.0625 4.675781 -4.578125 5.40625 -3.484375 C 6.144531 -2.398438 7.320312 -1.859375 8.9375 -1.859375 C 10.53125 -1.859375 11.695312 -2.398438 12.4375 -3.484375 C 13.1875 -4.578125 13.5625 -6.0625 13.5625 -7.9375 C 13.5625 -9.800781 13.1875 -11.265625 12.4375 -12.328125 C 11.695312 -13.390625 10.519531 -13.921875 8.90625 -13.921875 C 7.289062 -13.921875 6.117188 -13.390625 5.390625 -12.328125 C 4.671875 -11.265625 4.3125 -9.800781 4.3125 -7.9375 Z M 12.21875 -21.015625 C 12.59375 -21.515625 12.910156 -21.96875 13.171875 -22.375 C 13.429688 -22.789062 13.722656 -23.3125 14.046875 -23.9375 L 16.640625 -23.9375 L 16.640625 -23.640625 C 16.203125 -23.078125 15.726562 -22.539062 15.21875 -22.03125 C 14.707031 -21.53125 14.195312 -21.078125 13.6875 -20.671875 L 12.21875 -20.671875 Z M 13.359375 -17.875 L 11.921875 -17.875 C 11.429688 -18.1875 10.929688 -18.546875 10.421875 -18.953125 C 9.910156 -19.367188 9.394531 -19.800781 8.875 -20.25 C 8.363281 -19.800781 7.851562 -19.367188 7.34375 -18.953125 C 6.832031 -18.546875 6.332031 -18.1875 5.84375 -17.875 L 4.40625 -17.875 L 4.40625 -18.21875 C 4.894531 -18.769531 5.421875 -19.367188 5.984375 -20.015625 C 6.554688 -20.671875 7.070312 -21.332031 7.53125 -22 L 10.234375 -22 C 10.691406 -21.332031 11.195312 -20.671875 11.75 -20.015625 C 12.3125 -19.367188 12.847656 -18.769531 13.359375 -18.21875 Z M 13.359375 -17.875 "/></g></g></g><g fill="#fffff9" fill-opacity="1"><g transform="translate(122.154825, 82.121197)"><g><path d="M 8.96875 -14.15625 C 10.695312 -14.15625 12.003906 -13.648438 12.890625 -12.640625 C 13.773438 -11.640625 14.21875 -10.304688 14.21875 -8.640625 L 14.21875 0 L 11.90625 0 L 11.90625 -8.375 C 11.90625 -9.4375 11.660156 -10.304688 11.171875 -10.984375 C 10.679688 -11.660156 9.875 -12.007812 8.75 -12.03125 C 7.34375 -12.03125 6.28125 -11.5625 5.5625 -10.625 C 4.84375 -9.695312 4.484375 -8.40625 4.484375 -6.75 L 4.484375 0 L 2.1875 0 L 2.1875 -10.734375 C 2.1875 -10.828125 2.144531 -11.847656 2.0625 -13.796875 L 4.25 -13.796875 C 4.289062 -12.421875 4.3125 -11.664062 4.3125 -11.53125 L 4.359375 -11.53125 C 4.734375 -12.3125 5.335938 -12.941406 6.171875 -13.421875 C 7.015625 -13.910156 7.945312 -14.15625 8.96875 -14.15625 Z M 8.96875 -14.15625 "/></g></g></g><g clip-path="url(#9a05fc66b6)"><path stroke-linecap="butt" transform="matrix(0.7496, 0, 0, 0.7496, -0.00000000000004261, 0.0400041)" fill="none" stroke-linejoin="miter" d="M 0.000000000000056843 1.999811 L 299.998567 1.999811 " stroke="#ffffff" stroke-width="4" stroke-opacity="1" stroke-miterlimit="4"/></g><g clip-path="url(#c7c5f7697d)"><path stroke-linecap="butt" transform="matrix(0.7496, 0, 0, 0.7496, 0, 3.038404)" fill="none" stroke-linejoin="miter" d="M 0 2.001946 L 299.998567 2.001946 " stroke="#ffde59" stroke-width="4" stroke-opacity="1" stroke-miterlimit="4"/></g></svg>