<svg xmlns="http://www.w3.org/2000/svg" xmlns:xlink="http://www.w3.org/1999/xlink" width="300" zoomAndPan="magnify" viewBox="0 0 224.87999 149.999998" height="200" preserveAspectRatio="xMidYMid meet" version="1.0"><defs><g/><clipPath id="47808283a3"><path d="M 0 0.0390625 L 224.761719 0.0390625 L 224.761719 149.960938 L 0 149.960938 Z M 0 0.0390625 " clip-rule="nonzero"/></clipPath><clipPath id="f9a99779e1"><path d="M 0 0.0390625 L 224.761719 0.0390625 L 224.761719 4 L 0 4 Z M 0 0.0390625 " clip-rule="nonzero"/></clipPath><clipPath id="d2e65b7084"><path d="M 0 3 L 224.761719 3 L 224.761719 7 L 0 7 Z M 0 3 " clip-rule="nonzero"/></clipPath></defs><g clip-path="url(#47808283a3)"><path fill="#ffffff" d="M 0 0.0390625 L 224.878906 0.0390625 L 224.878906 149.960938 L 0 149.960938 Z M 0 0.0390625 " fill-opacity="1" fill-rule="nonzero"/><path fill="#ff3131" d="M 0 0.0390625 L 224.878906 0.0390625 L 224.878906 149.960938 L 0 149.960938 Z M 0 0.0390625 " fill-opacity="1" fill-rule="nonzero"/></g><g fill="#fffff9" fill-opacity="1"><g transform="translate(70.904795, 82.121197)"><g><path d="M 4.484375 -22.296875 L 4.484375 -7.71875 L 10.765625 -13.796875 L 14.03125 -13.796875 L 7.375 -7.515625 L 14.71875 0 L 11.328125 0 L 4.484375 -7.25 L 4.484375 0 L 2.1875 0 L 2.1875 -22.296875 Z M 4.484375 -22.296875 "/></g></g></g><g fill="#fffff9" fill-opacity="1"><g transform="translate(85.644963, 82.121197)"><g><path d="M 4.484375 -22.296875 L 4.484375 -11.875 L 4.546875 -11.875 C 4.953125 -12.570312 5.554688 -13.125 6.359375 -13.53125 C 7.171875 -13.945312 8.050781 -14.15625 9 -14.15625 C 10.726562 -14.15625 12.03125 -13.648438 12.90625 -12.640625 C 13.78125 -11.640625 14.21875 -10.304688 14.21875 -8.640625 L 14.21875 0 L 11.90625 0 L 11.90625 -8.375 C 11.90625 -9.4375 11.660156 -10.304688 11.171875 -10.984375 C 10.679688 -11.660156 9.875 -12.007812 8.75 -12.03125 C 7.34375 -12.03125 6.28125 -11.5625 5.5625 -10.625 C 4.84375 -9.695312 4.484375 -8.4375 4.484375 -6.84375 L 4.484375 0 L 2.1875 0 L 2.1875 -22.296875 Z M 4.484375 -22.296875 "/></g></g></g><g fill="#fffff9" fill-opacity="1"><g transform="translate(102.036034, 82.121197)"><g><path d="M 8.75 -14.15625 C 10.894531 -14.15625 12.644531 -13.488281 14 -12.15625 C 15.363281 -10.832031 16.070312 -9.082031 16.125 -6.90625 C 16.125 -4.800781 15.4375 -3.070312 14.0625 -1.71875 C 12.6875 -0.375 10.914062 0.316406 8.75 0.359375 C 6.59375 0.359375 4.832031 -0.320312 3.46875 -1.6875 C 2.113281 -3.0625 1.421875 -4.800781 1.390625 -6.90625 C 1.390625 -9.019531 2.078125 -10.75 3.453125 -12.09375 C 4.828125 -13.445312 6.59375 -14.132812 8.75 -14.15625 Z M 3.859375 -6.90625 C 3.859375 -5.382812 4.316406 -4.15625 5.234375 -3.21875 C 6.148438 -2.289062 7.320312 -1.804688 8.75 -1.765625 C 10.1875 -1.765625 11.359375 -2.238281 12.265625 -3.1875 C 13.171875 -4.144531 13.632812 -5.382812 13.65625 -6.90625 C 13.65625 -8.394531 13.195312 -9.617188 12.28125 -10.578125 C 11.363281 -11.546875 10.179688 -12.03125 8.734375 -12.03125 C 7.316406 -12.03125 6.15625 -11.550781 5.25 -10.59375 C 4.34375 -9.644531 3.878906 -8.414062 3.859375 -6.90625 Z M 10.078125 -21.34375 L 13.390625 -17.09375 L 11 -17.09375 L 8.671875 -20.109375 L 6.375 -17.09375 L 4.125 -17.09375 L 7.40625 -21.34375 Z M 10.078125 -21.34375 "/></g></g></g><g fill="#fffff9" fill-opacity="1"><g transform="translate(119.547353, 82.121197)"><g><path d="M 8.96875 -14.15625 C 10.695312 -14.15625 12.003906 -13.648438 12.890625 -12.640625 C 13.773438 -11.640625 14.21875 -10.304688 14.21875 -8.640625 L 14.21875 0 L 11.90625 0 L 11.90625 -8.375 C 11.90625 -9.4375 11.660156 -10.304688 11.171875 -10.984375 C 10.679688 -11.660156 9.875 -12.007812 8.75 -12.03125 C 7.34375 -12.03125 6.28125 -11.5625 5.5625 -10.625 C 4.84375 -9.695312 4.484375 -8.40625 4.484375 -6.75 L 4.484375 0 L 2.1875 0 L 2.1875 -10.734375 C 2.1875 -10.828125 2.144531 -11.847656 2.0625 -13.796875 L 4.25 -13.796875 C 4.289062 -12.421875 4.3125 -11.664062 4.3125 -11.53125 L 4.359375 -11.53125 C 4.734375 -12.3125 5.335938 -12.941406 6.171875 -13.421875 C 7.015625 -13.910156 7.945312 -14.15625 8.96875 -14.15625 Z M 8.96875 -14.15625 "/></g></g></g><g fill="#fffff9" fill-opacity="1"><g transform="translate(135.938424, 82.121197)"><g><path d="M 8.703125 -14.15625 C 9.765625 -14.15625 10.738281 -13.90625 11.625 -13.40625 C 12.519531 -12.914062 13.175781 -12.257812 13.59375 -11.4375 L 13.65625 -11.4375 L 13.65625 -13.796875 L 15.953125 -13.796875 L 15.953125 -0.46875 C 15.953125 1.882812 15.320312 3.71875 14.0625 5.03125 C 12.800781 6.351562 10.925781 7.035156 8.4375 7.078125 C 7.070312 7.078125 5.835938 6.878906 4.734375 6.484375 C 3.640625 6.085938 2.613281 5.410156 1.65625 4.453125 L 3.296875 2.5625 C 4.773438 4.15625 6.488281 4.953125 8.4375 4.953125 C 11.914062 4.953125 13.65625 3.101562 13.65625 -0.59375 L 13.65625 -2.390625 L 13.59375 -2.390625 C 13.082031 -1.566406 12.375 -0.929688 11.46875 -0.484375 C 10.5625 -0.046875 9.640625 0.171875 8.703125 0.171875 C 6.578125 0.171875 4.832031 -0.488281 3.46875 -1.8125 C 2.113281 -3.132812 1.421875 -4.832031 1.390625 -6.90625 C 1.390625 -9.125 2.054688 -10.878906 3.390625 -12.171875 C 4.722656 -13.472656 6.492188 -14.132812 8.703125 -14.15625 Z M 3.859375 -6.90625 C 3.859375 -5.519531 4.328125 -4.347656 5.265625 -3.390625 C 6.210938 -2.441406 7.367188 -1.960938 8.734375 -1.953125 C 10.222656 -1.953125 11.414062 -2.429688 12.3125 -3.390625 C 13.207031 -4.347656 13.65625 -5.535156 13.65625 -6.953125 C 13.65625 -8.472656 13.195312 -9.691406 12.28125 -10.609375 C 11.363281 -11.535156 10.171875 -12.007812 8.703125 -12.03125 C 7.304688 -12.03125 6.148438 -11.535156 5.234375 -10.546875 C 4.316406 -9.566406 3.859375 -8.351562 3.859375 -6.90625 Z M 3.859375 -6.90625 "/></g></g></g><g clip-path="url(#f9a99779e1)"><path stroke-linecap="butt" transform="matrix(0.7496, 0, 0, 0.7496, -0.00000000000004261, 0.0400041)" fill="none" stroke-linejoin="miter" d="M 0.000000000000056843 1.999811 L 299.998567 1.999811 " stroke="#ffffff" stroke-width="4" stroke-opacity="1" stroke-miterlimit="4"/></g><g clip-path="url(#d2e65b7084)"><path stroke-linecap="butt" transform="matrix(0.7496, 0, 0, 0.7496, 0, 3.038404)" fill="none" stroke-linejoin="miter" d="M 0 2.001946 L 299.998567 2.001946 " stroke="#ffde59" stroke-width="4" stroke-opacity="1" stroke-miterlimit="4"/></g></svg>