<svg xmlns="http://www.w3.org/2000/svg" xmlns:xlink="http://www.w3.org/1999/xlink" width="300" zoomAndPan="magnify" viewBox="0 0 224.87999 149.999998" height="200" preserveAspectRatio="xMidYMid meet" version="1.0"><defs><g/><clipPath id="032de25197"><path d="M 0 0.0390625 L 224.761719 0.0390625 L 224.761719 149.960938 L 0 149.960938 Z M 0 0.0390625 " clip-rule="nonzero"/></clipPath><clipPath id="ec855bc3f2"><path d="M 0 0.0390625 L 224.761719 0.0390625 L 224.761719 4 L 0 4 Z M 0 0.0390625 " clip-rule="nonzero"/></clipPath><clipPath id="ec8914b022"><path d="M 0 3 L 224.761719 3 L 224.761719 7 L 0 7 Z M 0 3 " clip-rule="nonzero"/></clipPath></defs><g clip-path="url(#032de25197)"><path fill="#ffffff" d="M 0 0.0390625 L 224.878906 0.0390625 L 224.878906 149.960938 L 0 149.960938 Z M 0 0.0390625 " fill-opacity="1" fill-rule="nonzero"/><path fill="#ff3131" d="M 0 0.0390625 L 224.878906 0.0390625 L 224.878906 149.960938 L 0 149.960938 Z M 0 0.0390625 " fill-opacity="1" fill-rule="nonzero"/></g><g fill="#fffff9" fill-opacity="1"><g transform="translate(86.107619, 82.121197)"><g><path d="M 15.953125 -22.296875 L 15.953125 -18.578125 L 18.078125 -18.578125 L 18.078125 -16.8125 L 15.953125 -16.8125 L 15.953125 0 L 13.65625 0 L 13.65625 -2.453125 L 13.59375 -2.453125 C 13.125 -1.566406 12.40625 -0.875 11.4375 -0.375 C 10.476562 0.113281 9.425781 0.359375 8.28125 0.359375 C 6.332031 0.359375 4.703125 -0.332031 3.390625 -1.71875 C 2.078125 -3.101562 1.410156 -4.832031 1.390625 -6.90625 C 1.390625 -9 2.0625 -10.722656 3.40625 -12.078125 C 4.75 -13.441406 6.492188 -14.132812 8.640625 -14.15625 C 10.617188 -14.15625 12.269531 -13.367188 13.59375 -11.796875 L 13.65625 -11.796875 L 13.65625 -16.8125 L 9.9375 -16.8125 L 9.9375 -18.578125 L 13.65625 -18.578125 L 13.65625 -22.296875 Z M 3.859375 -6.90625 C 3.859375 -5.382812 4.316406 -4.15625 5.234375 -3.21875 C 6.148438 -2.289062 7.320312 -1.804688 8.75 -1.765625 C 10.1875 -1.765625 11.351562 -2.238281 12.25 -3.1875 C 13.144531 -4.144531 13.613281 -5.382812 13.65625 -6.90625 C 13.65625 -8.394531 13.195312 -9.617188 12.28125 -10.578125 C 11.363281 -11.546875 10.179688 -12.03125 8.734375 -12.03125 C 7.316406 -12.03125 6.15625 -11.550781 5.25 -10.59375 C 4.34375 -9.644531 3.878906 -8.414062 3.859375 -6.90625 Z M 3.859375 -6.90625 "/></g></g></g><g fill="#fffff9" fill-opacity="1"><g transform="translate(104.120104, 82.121197)"><g><path d="M 8.609375 -16.09375 C 9.941406 -16.09375 11.097656 -15.796875 12.078125 -15.203125 C 13.066406 -14.617188 13.820312 -13.789062 14.34375 -12.71875 C 14.863281 -11.644531 15.125 -10.394531 15.125 -8.96875 L 15.125 -7.40625 L 4.3125 -7.40625 C 4.34375 -5.613281 4.796875 -4.25 5.671875 -3.3125 C 6.546875 -2.382812 7.769531 -1.921875 9.34375 -1.921875 C 10.34375 -1.921875 11.226562 -2.015625 12 -2.203125 C 12.78125 -2.390625 13.585938 -2.65625 14.421875 -3 L 14.421875 -0.734375 C 13.609375 -0.378906 12.804688 -0.117188 12.015625 0.046875 C 11.234375 0.210938 10.304688 0.296875 9.234375 0.296875 C 7.710938 0.296875 6.378906 -0.00390625 5.234375 -0.609375 C 4.097656 -1.222656 3.210938 -2.128906 2.578125 -3.328125 C 1.941406 -4.523438 1.625 -6.007812 1.625 -7.78125 C 1.625 -9.507812 1.910156 -10.992188 2.484375 -12.234375 C 3.066406 -13.472656 3.882812 -14.425781 4.9375 -15.09375 C 5.988281 -15.757812 7.210938 -16.09375 8.609375 -16.09375 Z M 8.578125 -13.96875 C 7.335938 -13.96875 6.359375 -13.570312 5.640625 -12.78125 C 4.921875 -11.988281 4.492188 -10.882812 4.359375 -9.46875 L 12.40625 -9.46875 C 12.394531 -10.800781 12.082031 -11.882812 11.46875 -12.71875 C 10.863281 -13.550781 9.898438 -13.96875 8.578125 -13.96875 Z M 8.84375 5.1875 C 8.425781 5.1875 8.066406 5.046875 7.765625 4.765625 C 7.460938 4.492188 7.3125 4.082031 7.3125 3.53125 C 7.3125 2.96875 7.460938 2.550781 7.765625 2.28125 C 8.066406 2.019531 8.425781 1.890625 8.84375 1.890625 C 9.25 1.890625 9.601562 2.019531 9.90625 2.28125 C 10.21875 2.550781 10.375 2.96875 10.375 3.53125 C 10.375 4.082031 10.21875 4.492188 9.90625 4.765625 C 9.601562 5.046875 9.25 5.1875 8.84375 5.1875 Z M 8.84375 5.1875 "/></g></g></g><g fill="#fffff9" fill-opacity="1"><g transform="translate(120.747014, 82.121197)"><g><path d="M 9.375 -14.15625 C 11.5625 -14.15625 13.3125 -13.46875 14.625 -12.09375 C 15.9375 -10.71875 16.601562 -8.988281 16.625 -6.90625 C 16.625 -4.832031 15.957031 -3.113281 14.625 -1.75 C 13.289062 -0.382812 11.660156 0.316406 9.734375 0.359375 C 8.546875 0.359375 7.472656 0.101562 6.515625 -0.40625 C 5.566406 -0.914062 4.867188 -1.597656 4.421875 -2.453125 L 4.359375 -2.453125 L 4.359375 6.71875 L 2.0625 6.71875 L 2.0625 -13.796875 L 4.359375 -13.796875 L 4.359375 -11.796875 L 4.421875 -11.796875 C 5.773438 -13.367188 7.425781 -14.15625 9.375 -14.15625 Z M 4.359375 -6.90625 C 4.359375 -5.382812 4.816406 -4.15625 5.734375 -3.21875 C 6.648438 -2.289062 7.828125 -1.804688 9.265625 -1.765625 C 10.691406 -1.765625 11.859375 -2.238281 12.765625 -3.1875 C 13.671875 -4.144531 14.132812 -5.382812 14.15625 -6.90625 C 14.15625 -8.394531 13.695312 -9.617188 12.78125 -10.578125 C 11.863281 -11.546875 10.679688 -12.03125 9.234375 -12.03125 C 7.816406 -12.03125 6.65625 -11.550781 5.75 -10.59375 C 4.84375 -9.644531 4.378906 -8.414062 4.359375 -6.90625 Z M 4.359375 -6.90625 "/></g></g></g><g clip-path="url(#ec855bc3f2)"><path stroke-linecap="butt" transform="matrix(0.7496, 0, 0, 0.7496, -0.00000000000004261, 0.0400041)" fill="none" stroke-linejoin="miter" d="M 0.000000000000056843 1.999811 L 299.998567 1.999811 " stroke="#ffffff" stroke-width="4" stroke-opacity="1" stroke-miterlimit="4"/></g><g clip-path="url(#ec8914b022)"><path stroke-linecap="butt" transform="matrix(0.7496, 0, 0, 0.7496, 0, 3.038404)" fill="none" stroke-linejoin="miter" d="M 0 2.001946 L 299.998567 2.001946 " stroke="#ffde59" stroke-width="4" stroke-opacity="1" stroke-miterlimit="4"/></g></svg>