<svg xmlns="http://www.w3.org/2000/svg" xmlns:xlink="http://www.w3.org/1999/xlink" width="300" zoomAndPan="magnify" viewBox="0 0 224.87999 149.999998" height="200" preserveAspectRatio="xMidYMid meet" version="1.0"><defs><g/><clipPath id="a270bdd2cb"><path d="M 0 0.0390625 L 224.761719 0.0390625 L 224.761719 149.960938 L 0 149.960938 Z M 0 0.0390625 " clip-rule="nonzero"/></clipPath><clipPath id="4e01254c3e"><path d="M 0 0.0390625 L 224.761719 0.0390625 L 224.761719 4 L 0 4 Z M 0 0.0390625 " clip-rule="nonzero"/></clipPath><clipPath id="0ef2798a89"><path d="M 0 1 L 224.761719 1 L 224.761719 5 L 0 5 Z M 0 1 " clip-rule="nonzero"/></clipPath></defs><g clip-path="url(#a270bdd2cb)"><path fill="#ffffff" d="M 0 0.0390625 L 224.878906 0.0390625 L 224.878906 149.960938 L 0 149.960938 Z M 0 0.0390625 " fill-opacity="1" fill-rule="nonzero"/><path fill="#191919" d="M 0 0.0390625 L 224.878906 0.0390625 L 224.878906 149.960938 L 0 149.960938 Z M 0 0.0390625 " fill-opacity="1" fill-rule="nonzero"/></g><g fill="#fffff9" fill-opacity="1"><g transform="translate(77.744894, 82.121197)"><g><path d="M 2.953125 -13.796875 L 6.109375 -3.1875 L 6.15625 -3.1875 L 9.734375 -13.796875 L 12.140625 -13.796875 L 15.78125 -3.1875 L 15.828125 -3.1875 L 18.953125 -13.796875 L 21.4375 -13.796875 L 16.984375 0 L 14.71875 0 L 10.796875 -10.609375 L 10.734375 -10.609375 L 7.25 0 L 4.890625 0 L 0.40625 -13.796875 Z M 2.953125 -13.796875 "/></g></g></g><g fill="#fffff9" fill-opacity="1"><g transform="translate(99.589826, 82.121197)"><g><path d="M 8.46875 -14.15625 C 10.507812 -14.15625 12.101562 -13.507812 13.25 -12.21875 C 14.40625 -10.9375 14.988281 -9.113281 15 -6.75 L 15 -6.1875 L 3.859375 -6.1875 C 3.984375 -4.914062 4.46875 -3.863281 5.3125 -3.03125 C 6.15625 -2.207031 7.1875 -1.785156 8.40625 -1.765625 C 10.269531 -1.765625 11.722656 -2.460938 12.765625 -3.859375 L 14.5 -2.5 C 13.78125 -1.5625 12.925781 -0.847656 11.9375 -0.359375 C 10.957031 0.117188 9.78125 0.359375 8.40625 0.359375 C 6.300781 0.359375 4.609375 -0.320312 3.328125 -1.6875 C 2.054688 -3.0625 1.410156 -4.800781 1.390625 -6.90625 C 1.390625 -8.988281 2.039062 -10.707031 3.34375 -12.0625 C 4.65625 -13.414062 6.363281 -14.113281 8.46875 -14.15625 Z M 12.53125 -8.140625 C 12.46875 -9.335938 12.078125 -10.285156 11.359375 -10.984375 C 10.648438 -11.679688 9.644531 -12.03125 8.34375 -12.03125 C 7.164062 -12.03125 6.171875 -11.695312 5.359375 -11.03125 C 4.554688 -10.363281 4.054688 -9.398438 3.859375 -8.140625 Z M 12.53125 -8.140625 "/></g></g></g><g fill="#fffff9" fill-opacity="1"><g transform="translate(115.980897, 82.121197)"><g><path d="M 8.46875 -14.15625 C 10.507812 -14.15625 12.101562 -13.507812 13.25 -12.21875 C 14.40625 -10.9375 14.988281 -9.113281 15 -6.75 L 15 -6.1875 L 3.859375 -6.1875 C 3.984375 -4.914062 4.46875 -3.863281 5.3125 -3.03125 C 6.15625 -2.207031 7.1875 -1.785156 8.40625 -1.765625 C 10.269531 -1.765625 11.722656 -2.460938 12.765625 -3.859375 L 14.5 -2.5 C 13.78125 -1.5625 12.925781 -0.847656 11.9375 -0.359375 C 10.957031 0.117188 9.78125 0.359375 8.40625 0.359375 C 6.300781 0.359375 4.609375 -0.320312 3.328125 -1.6875 C 2.054688 -3.0625 1.410156 -4.800781 1.390625 -6.90625 C 1.390625 -8.988281 2.039062 -10.707031 3.34375 -12.0625 C 4.65625 -13.414062 6.363281 -14.113281 8.46875 -14.15625 Z M 12.53125 -8.140625 C 12.46875 -9.335938 12.078125 -10.285156 11.359375 -10.984375 C 10.648438 -11.679688 9.644531 -12.03125 8.34375 -12.03125 C 7.164062 -12.03125 6.171875 -11.695312 5.359375 -11.03125 C 4.554688 -10.363281 4.054688 -9.398438 3.859375 -8.140625 Z M 12.53125 -8.140625 "/></g></g></g><g fill="#fffff9" fill-opacity="1"><g transform="translate(132.371967, 82.121197)"><g><path d="M 4.484375 -22.296875 L 4.484375 -7.71875 L 10.765625 -13.796875 L 14.03125 -13.796875 L 7.375 -7.515625 L 14.71875 0 L 11.328125 0 L 4.484375 -7.25 L 4.484375 0 L 2.1875 0 L 2.1875 -22.296875 Z M 4.484375 -22.296875 "/></g></g></g><g clip-path="url(#4e01254c3e)"><path stroke-linecap="butt" transform="matrix(0.7496, 0, 0, 0.7496, -0.00000000000004261, 0.0400041)" fill="none" stroke-linejoin="miter" d="M 0.000000000000056843 1.999811 L 299.998567 1.999811 " stroke="#ffffff" stroke-width="4" stroke-opacity="1" stroke-miterlimit="4"/></g><g clip-path="url(#0ef2798a89)"><path stroke-linecap="butt" transform="matrix(0.7496, 0, 0, 0.7496, 0, 1.539204)" fill="none" stroke-linejoin="miter" d="M 0 2.000879 L 299.998567 2.000879 " stroke="#ff3131" stroke-width="4" stroke-opacity="1" stroke-miterlimit="4"/></g></svg>