<svg xmlns="http://www.w3.org/2000/svg" xmlns:xlink="http://www.w3.org/1999/xlink" width="300" zoomAndPan="magnify" viewBox="0 0 224.87999 149.999998" height="200" preserveAspectRatio="xMidYMid meet" version="1.0"><defs><g/><clipPath id="b8ebc63e9d"><path d="M 0 0.0390625 L 224.761719 0.0390625 L 224.761719 149.960938 L 0 149.960938 Z M 0 0.0390625 " clip-rule="nonzero"/></clipPath><clipPath id="a776e8bf32"><path d="M 0 0.0390625 L 224.761719 0.0390625 L 224.761719 4 L 0 4 Z M 0 0.0390625 " clip-rule="nonzero"/></clipPath><clipPath id="bf9adc59da"><path d="M 0 3 L 224.761719 3 L 224.761719 7 L 0 7 Z M 0 3 " clip-rule="nonzero"/></clipPath></defs><g clip-path="url(#b8ebc63e9d)"><path fill="#ffffff" d="M 0 0.0390625 L 224.878906 0.0390625 L 224.878906 149.960938 L 0 149.960938 Z M 0 0.0390625 " fill-opacity="1" fill-rule="nonzero"/><path fill="#ff3131" d="M 0 0.0390625 L 224.878906 0.0390625 L 224.878906 149.960938 L 0 149.960938 Z M 0 0.0390625 " fill-opacity="1" fill-rule="nonzero"/></g><g fill="#fffff9" fill-opacity="1"><g transform="translate(77.323245, 82.121197)"><g><path d="M 9 -14.15625 C 11.09375 -14.15625 12.535156 -13.28125 13.328125 -11.53125 C 13.878906 -12.4375 14.5 -13.097656 15.1875 -13.515625 C 15.875 -13.941406 16.71875 -14.15625 17.71875 -14.15625 C 19.507812 -14.15625 20.828125 -13.6875 21.671875 -12.75 C 22.515625 -11.8125 22.9375 -10.398438 22.9375 -8.515625 L 22.9375 0 L 20.640625 0 L 20.640625 -8.34375 C 20.640625 -10.757812 19.519531 -11.988281 17.28125 -12.03125 C 16.238281 -12.03125 15.378906 -11.640625 14.703125 -10.859375 C 14.035156 -10.085938 13.703125 -9.148438 13.703125 -8.046875 L 13.703125 0 L 11.40625 0 L 11.40625 -7.984375 C 11.40625 -9.347656 11.207031 -10.363281 10.8125 -11.03125 C 10.425781 -11.695312 9.734375 -12.03125 8.734375 -12.03125 C 7.335938 -12.03125 6.28125 -11.5625 5.5625 -10.625 C 4.84375 -9.695312 4.484375 -8.40625 4.484375 -6.75 L 4.484375 0 L 2.1875 0 L 2.1875 -10.734375 C 2.164062 -11.421875 2.125 -12.441406 2.0625 -13.796875 L 4.25 -13.796875 C 4.289062 -12.441406 4.3125 -11.6875 4.3125 -11.53125 L 4.359375 -11.53125 C 4.734375 -12.3125 5.332031 -12.941406 6.15625 -13.421875 C 6.988281 -13.910156 7.9375 -14.15625 9 -14.15625 Z M 9 -14.15625 "/></g></g></g><g fill="#fffff9" fill-opacity="1"><g transform="translate(102.440493, 82.121197)"><g><path d="M 20.671875 -18.25 L 20.875 -17.921875 C 20.71875 -17.003906 20.460938 -16.128906 20.109375 -15.296875 C 19.753906 -14.472656 19.226562 -13.78125 18.53125 -13.21875 C 17.832031 -12.664062 16.894531 -12.328125 15.71875 -12.203125 L 15.71875 0 L 13.59375 0 L 13.203125 -2.09375 L 13.09375 -2.09375 C 12.582031 -1.269531 11.878906 -0.664062 10.984375 -0.28125 C 10.085938 0.101562 9.140625 0.296875 8.140625 0.296875 C 6.210938 0.296875 4.757812 -0.160156 3.78125 -1.078125 C 2.8125 -1.992188 2.328125 -3.453125 2.328125 -5.453125 L 2.328125 -15.78125 L 4.953125 -15.78125 L 4.953125 -5.625 C 4.953125 -3.113281 6.125 -1.859375 8.46875 -1.859375 C 10.21875 -1.859375 11.429688 -2.347656 12.109375 -3.328125 C 12.785156 -4.316406 13.125 -5.734375 13.125 -7.578125 L 13.125 -15.78125 L 15.71875 -15.78125 L 15.71875 -14.03125 C 16.65625 -14.1875 17.253906 -14.644531 17.515625 -15.40625 C 17.785156 -16.164062 17.921875 -17.113281 17.921875 -18.25 Z M 20.671875 -18.25 "/></g></g></g><g fill="#fffff9" fill-opacity="1"><g transform="translate(122.310244, 82.121197)"><g><path d="M 16.25 -7.9375 C 16.25 -5.320312 15.582031 -3.296875 14.25 -1.859375 C 12.925781 -0.421875 11.132812 0.296875 8.875 0.296875 C 7.476562 0.296875 6.234375 -0.0195312 5.140625 -0.65625 C 4.054688 -1.300781 3.195312 -2.238281 2.5625 -3.46875 C 1.9375 -4.695312 1.625 -6.1875 1.625 -7.9375 C 1.625 -10.550781 2.273438 -12.5625 3.578125 -13.96875 C 4.890625 -15.382812 6.6875 -16.09375 8.96875 -16.09375 C 9.988281 -16.09375 10.941406 -15.914062 11.828125 -15.5625 C 12.710938 -15.207031 13.46875 -14.707031 14.09375 -14.0625 C 14.976562 -14.320312 15.523438 -14.832031 15.734375 -15.59375 C 15.953125 -16.363281 16.0625 -17.238281 16.0625 -18.21875 L 18.84375 -18.21875 L 19.046875 -17.890625 C 18.773438 -16.535156 18.359375 -15.398438 17.796875 -14.484375 C 17.234375 -13.578125 16.382812 -12.914062 15.25 -12.5 C 15.5625 -11.875 15.804688 -11.179688 15.984375 -10.421875 C 16.160156 -9.660156 16.25 -8.832031 16.25 -7.9375 Z M 4.3125 -7.9375 C 4.3125 -5.945312 4.671875 -4.4375 5.390625 -3.40625 C 6.117188 -2.375 7.300781 -1.859375 8.9375 -1.859375 C 10.5625 -1.859375 11.738281 -2.375 12.46875 -3.40625 C 13.195312 -4.4375 13.5625 -5.945312 13.5625 -7.9375 C 13.5625 -9.914062 13.1875 -11.40625 12.4375 -12.40625 C 11.695312 -13.414062 10.519531 -13.921875 8.90625 -13.921875 C 7.289062 -13.921875 6.117188 -13.414062 5.390625 -12.40625 C 4.671875 -11.40625 4.3125 -9.914062 4.3125 -7.9375 Z M 8.171875 -22.578125 C 8.378906 -22.148438 8.644531 -21.664062 8.96875 -21.125 C 9.300781 -20.582031 9.644531 -20.050781 10 -19.53125 C 10.363281 -19.007812 10.695312 -18.570312 11 -18.21875 L 11 -17.875 L 9.25 -17.875 C 8.800781 -18.21875 8.289062 -18.671875 7.71875 -19.234375 C 7.15625 -19.796875 6.628906 -20.359375 6.140625 -20.921875 C 5.660156 -21.484375 5.300781 -21.941406 5.0625 -22.296875 L 5.0625 -22.578125 Z M 8.171875 -22.578125 "/></g></g></g><g fill="#fffff9" fill-opacity="1"><g transform="translate(140.470131, 82.121197)"><g><path d="M 3.53125 -20.875 C 3.988281 -20.875 4.382812 -20.710938 4.71875 -20.390625 C 5.050781 -20.066406 5.21875 -19.664062 5.21875 -19.1875 C 5.21875 -18.695312 5.0625 -18.296875 4.75 -17.984375 C 4.4375 -17.671875 4.03125 -17.515625 3.53125 -17.515625 C 3.039062 -17.515625 2.640625 -17.671875 2.328125 -17.984375 C 2.015625 -18.296875 1.859375 -18.695312 1.859375 -19.1875 C 1.859375 -19.664062 2.023438 -20.066406 2.359375 -20.390625 C 2.691406 -20.710938 3.082031 -20.875 3.53125 -20.875 Z M 4.6875 -13.796875 L 4.6875 0 L 2.390625 0 L 2.390625 -13.796875 Z M 4.6875 -13.796875 "/></g></g></g><g clip-path="url(#a776e8bf32)"><path stroke-linecap="butt" transform="matrix(0.7496, 0, 0, 0.7496, -0.00000000000004261, 0.0400041)" fill="none" stroke-linejoin="miter" d="M 0.000000000000056843 1.999811 L 299.998567 1.999811 " stroke="#ffffff" stroke-width="4" stroke-opacity="1" stroke-miterlimit="4"/></g><g clip-path="url(#bf9adc59da)"><path stroke-linecap="butt" transform="matrix(0.7496, 0, 0, 0.7496, 0, 3.038404)" fill="none" stroke-linejoin="miter" d="M 0 2.001946 L 299.998567 2.001946 " stroke="#ffde59" stroke-width="4" stroke-opacity="1" stroke-miterlimit="4"/></g></svg>