<svg xmlns="http://www.w3.org/2000/svg" xmlns:xlink="http://www.w3.org/1999/xlink" width="150" zoomAndPan="magnify" viewBox="0 0 112.5 74.999997" height="100" preserveAspectRatio="xMidYMid meet" version="1.0"><defs><g/><clipPath id="b66bcf3b71"><path d="M 0 0.164062 L 112.003906 0.164062 L 112.003906 74.832031 L 0 74.832031 Z M 0 0.164062 " clip-rule="nonzero"/></clipPath><clipPath id="fdb164e7a9"><path d="M 23.5625 3.441406 L 88.675781 3.441406 L 88.675781 52.1875 L 23.5625 52.1875 Z M 23.5625 3.441406 " clip-rule="nonzero"/></clipPath></defs><g clip-path="url(#b66bcf3b71)"><path fill="#ffffff" d="M 0 0.164062 L 112.5 0.164062 L 112.5 75.164062 L 0 75.164062 Z M 0 0.164062 " fill-opacity="1" fill-rule="nonzero"/><path fill="#ffffff" d="M 0 0.164062 L 112.5 0.164062 L 112.5 75.164062 L 0 75.164062 Z M 0 0.164062 " fill-opacity="1" fill-rule="nonzero"/></g><g clip-path="url(#fdb164e7a9)"><path fill="#ff3131" d="M 84.859375 39.191406 C 84.132812 39.824219 83.355469 40.394531 82.523438 40.878906 C 81.695312 41.363281 80.824219 41.769531 79.925781 42.101562 C 78.128906 42.757812 76.234375 43.164062 74.304688 43.21875 C 72.433594 43.28125 70.546875 43.023438 68.691406 42.492188 C 68.539062 42.351562 68.386719 42.207031 68.238281 42.0625 C 67.609375 41.464844 66.996094 40.839844 66.324219 40.261719 C 65.652344 39.683594 64.917969 39.152344 64.097656 38.761719 C 63.789062 38.613281 63.46875 38.480469 63.144531 38.367188 C 63.441406 38.328125 63.742188 38.277344 64.035156 38.222656 C 65.308594 37.976562 66.550781 37.578125 67.746094 37.085938 C 68.945312 36.597656 70.097656 36.003906 71.199219 35.332031 C 71.753906 34.992188 72.28125 34.644531 72.820312 34.257812 C 72.894531 34.199219 72.96875 34.140625 73.042969 34.082031 C 73.925781 33.953125 74.816406 33.96875 75.699219 34.054688 C 77.085938 34.195312 78.460938 34.503906 79.855469 34.808594 C 81.25 35.109375 82.683594 35.355469 84.148438 35.4375 C 84.878906 35.476562 85.617188 35.476562 86.351562 35.382812 C 86.925781 35.308594 87.5 35.164062 88.03125 34.914062 C 87.734375 35.683594 87.328125 36.410156 86.839844 37.070312 C 86.265625 37.859375 85.582031 38.554688 84.859375 39.191406 Z M 72.0625 45.648438 C 72.558594 45.972656 73.089844 46.257812 73.652344 46.484375 C 72.875 47.070312 72.058594 47.582031 71.191406 47.9375 C 70.078125 48.386719 68.90625 48.582031 67.769531 48.375 C 66.632812 48.171875 65.5625 47.5625 64.671875 46.71875 C 64.445312 46.511719 64.230469 46.289062 64.03125 46.050781 C 63.828125 45.816406 63.632812 45.570312 63.457031 45.3125 C 63.285156 45.0625 63.125 44.804688 62.980469 44.539062 C 63.027344 44.363281 63.0625 44.183594 63.089844 44.003906 C 63.125 43.789062 63.136719 43.515625 63.113281 43.277344 C 63.070312 42.785156 62.910156 42.316406 62.671875 41.917969 C 62.433594 41.519531 62.132812 41.183594 61.804688 40.898438 C 61.480469 40.609375 61.121094 40.378906 60.761719 40.171875 C 60.03125 39.765625 59.257812 39.492188 58.484375 39.269531 C 57.789062 39.078125 57.09375 38.921875 56.382812 38.859375 C 57.21875 38.75 58.042969 38.667969 58.859375 38.660156 C 59.703125 38.652344 60.53125 38.726562 61.335938 38.898438 C 62.140625 39.066406 62.914062 39.339844 63.660156 39.691406 C 64.402344 40.042969 65.132812 40.449219 65.855469 40.902344 C 66.578125 41.351562 67.28125 41.851562 67.960938 42.382812 C 68.644531 42.914062 69.292969 43.496094 69.964844 44.050781 C 70.628906 44.613281 71.316406 45.164062 72.0625 45.648438 Z M 61.898438 43.8125 C 61.871094 43.984375 61.828125 44.152344 61.777344 44.320312 C 61.582031 44.988281 61.222656 45.617188 60.785156 46.210938 C 60.339844 46.800781 59.808594 47.347656 59.242188 47.875 C 58.671875 48.398438 58.066406 48.894531 57.464844 49.433594 C 57.167969 49.703125 56.871094 49.976562 56.585938 50.285156 C 56.410156 50.484375 56.234375 50.6875 56.078125 50.921875 C 55.90625 50.730469 55.71875 50.566406 55.535156 50.402344 C 55.222656 50.136719 54.90625 49.894531 54.589844 49.652344 C 53.957031 49.167969 53.328125 48.6875 52.75 48.152344 C 52.171875 47.621094 51.648438 47.03125 51.226562 46.390625 C 50.808594 45.75 50.488281 45.0625 50.332031 44.359375 C 50.3125 44.269531 50.292969 44.183594 50.277344 44.09375 C 50.265625 44.011719 50.25 43.933594 50.238281 43.828125 C 50.21875 43.664062 50.210938 43.507812 50.222656 43.351562 C 50.25 43.035156 50.34375 42.726562 50.5 42.425781 C 50.808594 41.828125 51.316406 41.273438 51.898438 40.789062 C 52.480469 40.304688 53.144531 39.875 53.859375 39.554688 C 54.570312 39.230469 55.335938 39 56.121094 38.957031 C 56.902344 39.003906 57.667969 39.238281 58.378906 39.5625 C 59.089844 39.882812 59.75 40.3125 60.332031 40.800781 C 60.910156 41.289062 61.410156 41.851562 61.699219 42.449219 C 61.84375 42.746094 61.925781 43.050781 61.9375 43.355469 C 61.941406 43.515625 61.929688 43.636719 61.898438 43.8125 Z M 49.609375 41.941406 C 49.382812 42.335938 49.230469 42.800781 49.203125 43.28125 C 49.1875 43.519531 49.207031 43.761719 49.253906 43.992188 C 49.269531 44.082031 49.292969 44.195312 49.320312 44.308594 C 49.328125 44.332031 49.335938 44.351562 49.339844 44.375 C 49.179688 44.703125 48.988281 45.011719 48.78125 45.3125 C 48.605469 45.570312 48.410156 45.816406 48.207031 46.050781 C 48.007812 46.289062 47.792969 46.511719 47.570312 46.71875 C 46.675781 47.5625 45.605469 48.171875 44.46875 48.375 C 43.332031 48.582031 42.160156 48.386719 41.046875 47.9375 C 40.179688 47.582031 39.363281 47.070312 38.585938 46.484375 C 39.132812 46.261719 39.652344 45.980469 40.140625 45.664062 C 40.875 45.183594 41.546875 44.636719 42.199219 44.078125 C 42.855469 43.523438 43.488281 42.949219 44.15625 42.417969 C 44.820312 41.886719 45.507812 41.386719 46.214844 40.9375 C 46.917969 40.488281 47.636719 40.085938 48.367188 39.742188 C 49.097656 39.394531 49.859375 39.128906 50.648438 38.964844 C 51.441406 38.800781 52.257812 38.734375 53.089844 38.746094 C 53.835938 38.757812 54.59375 38.828125 55.359375 38.925781 C 54.820312 39.007812 54.289062 39.132812 53.757812 39.277344 C 52.984375 39.5 52.214844 39.777344 51.488281 40.1875 C 50.769531 40.597656 50.066406 41.140625 49.609375 41.941406 Z M 38.171875 43.007812 C 36.226562 42.972656 34.308594 42.601562 32.484375 41.976562 C 31.574219 41.667969 30.683594 41.277344 29.839844 40.8125 C 28.992188 40.34375 28.195312 39.789062 27.449219 39.171875 C 26.707031 38.546875 26.007812 37.863281 25.421875 37.078125 C 25.125 36.6875 24.859375 36.269531 24.625 35.839844 C 24.46875 35.539062 24.328125 35.226562 24.203125 34.910156 C 24.734375 35.164062 25.3125 35.308594 25.886719 35.382812 C 26.621094 35.480469 27.359375 35.480469 28.089844 35.441406 C 29.554688 35.359375 30.988281 35.113281 32.382812 34.808594 C 33.777344 34.503906 35.152344 34.195312 36.539062 34.054688 C 37.425781 33.96875 38.316406 33.953125 39.199219 34.085938 C 39.339844 34.191406 39.484375 34.296875 39.628906 34.398438 C 40.160156 34.769531 40.714844 35.132812 41.277344 35.464844 C 42.402344 36.136719 43.589844 36.710938 44.816406 37.179688 C 46.039062 37.648438 47.304688 38.019531 48.597656 38.246094 C 48.777344 38.277344 48.960938 38.304688 49.144531 38.332031 C 48.726562 38.460938 48.316406 38.621094 47.925781 38.808594 C 47.117188 39.199219 46.394531 39.726562 45.738281 40.300781 C 45.085938 40.882812 44.484375 41.5 43.875 42.101562 C 43.8125 42.164062 43.746094 42.222656 43.683594 42.285156 C 41.859375 42.792969 40.007812 43.050781 38.171875 43.007812 Z M 30.898438 32.410156 C 30.289062 31.683594 29.84375 30.828125 29.496094 29.933594 C 29.148438 29.039062 28.886719 28.09375 28.792969 27.117188 C 28.710938 26.300781 28.660156 25.449219 28.808594 24.621094 C 29.226562 25.203125 29.707031 25.730469 30.226562 26.222656 C 30.875 26.832031 31.59375 27.386719 32.347656 27.800781 C 33.101562 28.214844 33.863281 28.550781 34.566406 28.96875 C 35.007812 29.21875 35.421875 29.503906 35.832031 29.816406 C 36.386719 31.007812 37.140625 32.125 38.082031 33.082031 C 38.191406 33.195312 38.304688 33.308594 38.421875 33.417969 C 38.152344 33.363281 37.882812 33.320312 37.609375 33.289062 C 37.242188 33.253906 36.871094 33.238281 36.5 33.238281 C 35.148438 33.238281 33.828125 33.457031 32.539062 33.722656 C 31.890625 33.390625 31.34375 32.941406 30.898438 32.410156 Z M 31.753906 21.289062 C 31.710938 20.675781 31.714844 20.058594 31.734375 19.4375 C 31.746094 18.816406 31.757812 18.183594 31.804688 17.554688 C 31.878906 16.492188 32.105469 15.429688 32.53125 14.457031 C 32.773438 14.859375 33.074219 15.230469 33.414062 15.550781 C 33.890625 15.996094 34.453125 16.332031 35.042969 16.59375 C 35.636719 16.847656 36.273438 17.015625 36.925781 17.054688 C 37.332031 17.078125 37.75 17.046875 38.144531 16.941406 C 38.09375 17.539062 38.082031 18.136719 38.113281 18.734375 C 38.171875 19.742188 38.355469 20.753906 38.71875 21.6875 C 37.390625 20.699219 36.195312 19.542969 35.316406 18.199219 L 34.847656 17.480469 L 34.492188 18.210938 C 34.171875 18.867188 34.042969 19.546875 33.976562 20.214844 C 33.917969 20.886719 33.925781 21.550781 33.972656 22.203125 C 34.066406 23.511719 34.265625 24.796875 34.5625 26.066406 C 34.753906 26.867188 34.980469 27.664062 35.261719 28.445312 C 35.195312 28.382812 35.125 28.320312 35.054688 28.265625 C 34.523438 27.835938 33.949219 27.480469 33.367188 27.175781 C 32.894531 26.441406 32.546875 25.667969 32.316406 24.855469 C 32.148438 24.28125 32.03125 23.695312 31.945312 23.097656 C 31.855469 22.503906 31.789062 21.898438 31.753906 21.289062 Z M 39.132812 18.746094 C 39.230469 17.511719 39.445312 16.296875 39.675781 15.074219 C 39.792969 14.460938 39.921875 13.851562 40.074219 13.242188 C 40.234375 12.632812 40.390625 12.023438 40.542969 11.40625 C 40.699219 10.792969 40.859375 10.171875 41.058594 9.566406 C 41.222656 9.078125 41.40625 8.597656 41.617188 8.128906 C 41.9375 8.726562 42.285156 9.320312 42.6875 9.875 C 43.160156 10.535156 43.722656 11.121094 44.355469 11.617188 C 44.980469 12.113281 45.648438 12.558594 46.355469 12.933594 C 46.707031 13.117188 47.070312 13.289062 47.445312 13.433594 C 47.636719 13.503906 47.828125 13.574219 48.027344 13.632812 C 47.933594 13.789062 47.84375 13.949219 47.761719 14.109375 C 47.589844 14.445312 47.449219 14.796875 47.332031 15.152344 C 47.214844 15.511719 47.132812 15.882812 47.09375 16.257812 C 47.03125 16.753906 47.046875 17.257812 47.128906 17.742188 C 46.898438 17.5625 46.675781 17.378906 46.464844 17.179688 C 46.03125 16.78125 45.648438 16.34375 45.335938 15.867188 L 44.753906 14.992188 L 44.417969 15.988281 C 44.222656 16.5625 44.042969 17.15625 43.90625 17.753906 C 43.765625 18.355469 43.65625 18.964844 43.578125 19.574219 C 43.414062 20.800781 43.320312 22.019531 43.257812 23.242188 C 43.210938 24.464844 43.214844 25.695312 43.351562 26.929688 C 43.425781 27.546875 43.53125 28.164062 43.691406 28.769531 C 43.847656 29.378906 44.0625 29.972656 44.316406 30.546875 C 44.832031 31.699219 45.515625 32.777344 46.332031 33.742188 C 47.15625 34.703125 48.125 35.527344 49.164062 36.214844 C 50.207031 36.90625 51.3125 37.476562 52.460938 37.925781 C 52.546875 37.960938 52.636719 37.996094 52.722656 38.027344 C 52.0625 37.949219 51.386719 37.9375 50.707031 38.011719 C 48.808594 37.605469 46.988281 36.949219 45.242188 36.15625 C 44.097656 35.628906 42.984375 35.035156 41.894531 34.402344 C 41.347656 34.085938 40.8125 33.761719 40.273438 33.421875 C 39.769531 33.097656 39.285156 32.71875 38.835938 32.304688 C 37.941406 31.46875 37.175781 30.480469 36.507812 29.417969 C 35.847656 28.351562 35.300781 27.1875 34.941406 25.964844 C 34.585938 24.746094 34.386719 23.464844 34.4375 22.195312 C 34.460938 21.5625 34.539062 20.933594 34.679688 20.332031 C 34.757812 20.023438 34.847656 19.71875 34.957031 19.429688 C 35.308594 19.941406 35.71875 20.40625 36.160156 20.832031 C 36.808594 21.457031 37.523438 22 38.273438 22.472656 C 38.648438 22.710938 39.039062 22.925781 39.433594 23.125 C 39.824219 23.328125 40.230469 23.507812 40.640625 23.667969 C 41.460938 23.988281 42.3125 24.238281 43.183594 24.34375 L 43.210938 24.234375 C 42.40625 23.914062 41.644531 23.53125 40.902344 23.113281 C 40.535156 22.902344 40.171875 22.679688 39.816406 22.453125 C 39.59375 22.308594 39.375 22.160156 39.160156 22.007812 C 39.046875 20.898438 39.042969 19.820312 39.132812 18.746094 Z M 49.773438 12.933594 C 50.230469 12.417969 50.710938 11.914062 51.1875 11.394531 C 52.140625 10.359375 53.089844 9.273438 54.046875 8.210938 C 54.523438 7.675781 54.996094 7.132812 55.421875 6.546875 C 55.679688 6.191406 55.925781 5.824219 56.140625 5.429688 C 56.296875 5.875 56.496094 6.300781 56.730469 6.699219 C 57.109375 7.339844 57.5625 7.921875 58.035156 8.46875 C 58.988281 9.5625 60.015625 10.546875 61.015625 11.511719 C 62.019531 12.476562 62.988281 13.449219 63.71875 14.574219 C 63.894531 14.855469 64.0625 15.144531 64.207031 15.449219 C 64.347656 15.75 64.46875 16.0625 64.566406 16.386719 C 64.714844 16.894531 64.796875 17.425781 64.820312 17.972656 C 64.710938 18.050781 64.601562 18.128906 64.492188 18.207031 C 64.242188 18.378906 63.984375 18.539062 63.722656 18.699219 C 63.464844 18.863281 63.199219 19.019531 62.929688 19.167969 C 62.542969 19.390625 62.148438 19.597656 61.753906 19.816406 C 61.328125 19.207031 60.882812 18.617188 60.4375 18.039062 C 59.605469 16.964844 58.777344 15.914062 58.070312 14.796875 C 57.363281 13.683594 56.773438 12.496094 56.425781 11.21875 L 56.066406 9.917969 L 55.816406 11.21875 C 55.5625 12.515625 55.070312 13.773438 54.398438 14.933594 C 53.730469 16.101562 52.914062 17.179688 52.085938 18.253906 C 51.671875 18.789062 51.25 19.328125 50.851562 19.882812 C 50.824219 19.917969 50.796875 19.957031 50.769531 19.992188 C 50.324219 19.738281 49.871094 19.507812 49.4375 19.25 C 49.167969 19.101562 48.902344 18.949219 48.640625 18.785156 C 48.378906 18.625 48.121094 18.464844 47.875 18.292969 C 47.722656 18.1875 47.574219 18.078125 47.425781 17.96875 C 47.457031 17.417969 47.539062 16.886719 47.691406 16.375 C 47.789062 16.050781 47.910156 15.738281 48.050781 15.433594 C 48.191406 15.128906 48.359375 14.835938 48.539062 14.550781 C 48.898438 13.980469 49.320312 13.449219 49.773438 12.933594 Z M 64.792969 13.433594 C 65.167969 13.289062 65.53125 13.117188 65.882812 12.933594 C 66.589844 12.558594 67.257812 12.113281 67.882812 11.617188 C 68.515625 11.121094 69.078125 10.535156 69.550781 9.875 C 69.953125 9.320312 70.300781 8.726562 70.621094 8.128906 C 70.832031 8.597656 71.015625 9.078125 71.179688 9.566406 C 71.378906 10.171875 71.539062 10.792969 71.695312 11.40625 C 71.847656 12.023438 72.007812 12.632812 72.164062 13.242188 C 72.316406 13.851562 72.445312 14.460938 72.5625 15.074219 C 72.792969 16.296875 73.011719 17.511719 73.109375 18.746094 C 73.195312 19.816406 73.191406 20.898438 73.078125 22.003906 C 72.863281 22.15625 72.644531 22.308594 72.421875 22.453125 C 72.066406 22.679688 71.703125 22.902344 71.335938 23.113281 C 70.597656 23.527344 69.839844 23.90625 69.042969 24.226562 C 69.042969 23.878906 69.039062 23.535156 69.03125 23.1875 C 68.988281 21.964844 68.910156 20.738281 68.761719 19.511719 C 68.617188 18.285156 68.347656 17.058594 67.945312 15.90625 L 67.605469 14.914062 L 67.03125 15.78125 C 66.71875 16.257812 66.332031 16.695312 65.898438 17.097656 C 65.648438 17.332031 65.378906 17.550781 65.097656 17.765625 C 65.179688 17.277344 65.195312 16.773438 65.136719 16.273438 C 65.058594 15.53125 64.828125 14.804688 64.503906 14.132812 C 64.417969 13.960938 64.328125 13.792969 64.234375 13.625 C 64.421875 13.570312 64.609375 13.503906 64.792969 13.433594 Z M 75.316406 17.054688 C 75.964844 17.015625 76.601562 16.847656 77.195312 16.59375 C 77.785156 16.332031 78.347656 15.996094 78.824219 15.550781 C 79.164062 15.230469 79.464844 14.859375 79.707031 14.457031 C 80.132812 15.429688 80.359375 16.492188 80.433594 17.554688 C 80.480469 18.183594 80.492188 18.816406 80.503906 19.4375 C 80.523438 20.058594 80.527344 20.675781 80.488281 21.289062 C 80.449219 21.898438 80.382812 22.503906 80.292969 23.097656 C 80.207031 23.695312 80.089844 24.28125 79.921875 24.855469 C 79.691406 25.667969 79.34375 26.441406 78.871094 27.175781 C 78.289062 27.480469 77.714844 27.835938 77.183594 28.265625 C 77.117188 28.316406 77.054688 28.371094 76.992188 28.429688 C 77.28125 27.621094 77.511719 26.792969 77.703125 25.964844 C 77.992188 24.710938 78.175781 23.441406 78.261719 22.148438 C 78.304688 21.503906 78.308594 20.851562 78.25 20.191406 C 78.1875 19.53125 78.054688 18.859375 77.742188 18.210938 L 77.390625 17.488281 L 76.925781 18.203125 C 76.480469 18.882812 75.945312 19.511719 75.363281 20.101562 C 74.796875 20.667969 74.175781 21.195312 73.519531 21.683594 C 73.882812 20.75 74.066406 19.738281 74.125 18.734375 C 74.15625 18.136719 74.144531 17.539062 74.09375 16.941406 C 74.488281 17.046875 74.90625 17.078125 75.316406 17.054688 Z M 56.292969 38.839844 L 56.296875 38.855469 C 56.28125 38.855469 56.261719 38.851562 56.242188 38.851562 C 56.257812 38.847656 56.277344 38.84375 56.292969 38.839844 Z M 55.644531 38.886719 C 55.636719 38.886719 55.632812 38.886719 55.625 38.886719 L 55.628906 38.882812 C 55.632812 38.882812 55.636719 38.886719 55.644531 38.886719 Z M 64.90625 18.898438 C 65.476562 18.601562 66.023438 18.246094 66.535156 17.828125 C 66.792969 17.613281 67.039062 17.378906 67.273438 17.128906 C 67.558594 17.964844 67.847656 18.792969 68.097656 19.648438 C 68.433594 20.796875 68.660156 21.992188 68.683594 23.195312 C 68.71875 24.402344 68.570312 25.605469 68.25 26.753906 C 67.9375 27.90625 67.484375 28.996094 66.941406 30.027344 C 66.390625 31.054688 65.699219 32.003906 64.910156 32.855469 C 64.121094 33.710938 63.253906 34.488281 62.316406 35.199219 C 61.378906 35.914062 60.371094 36.542969 59.332031 37.128906 C 59.253906 37.171875 59.171875 37.214844 59.09375 37.257812 C 59.273438 37.109375 59.453125 36.957031 59.625 36.800781 C 60.636719 35.875 61.542969 34.816406 62.285156 33.632812 C 63.019531 32.453125 63.589844 31.144531 63.90625 29.761719 C 64.21875 28.378906 64.296875 26.9375 64.117188 25.515625 C 63.9375 24.09375 63.460938 22.707031 62.78125 21.472656 C 62.511719 20.976562 62.214844 20.503906 61.90625 20.042969 C 62.324219 19.929688 62.738281 19.808594 63.152344 19.664062 C 63.449219 19.558594 63.746094 19.441406 64.039062 19.316406 C 64.332031 19.191406 64.621094 19.050781 64.90625 18.898438 Z M 56.078125 12.425781 C 56.367188 13.417969 56.777344 14.375 57.28125 15.269531 C 57.957031 16.488281 58.78125 17.597656 59.570312 18.691406 C 60.363281 19.785156 61.132812 20.875 61.722656 22.03125 C 62.316406 23.1875 62.734375 24.410156 62.90625 25.679688 C 63.085938 26.949219 63.046875 28.261719 62.820312 29.539062 C 62.707031 30.175781 62.550781 30.808594 62.347656 31.433594 C 62.144531 32.054688 61.90625 32.671875 61.617188 33.265625 C 61.046875 34.457031 60.316406 35.59375 59.40625 36.582031 C 59.003906 37.023438 58.558594 37.429688 58.078125 37.792969 C 57.433594 38.121094 56.777344 38.441406 56.113281 38.757812 C 55.800781 38.707031 55.503906 38.601562 55.214844 38.460938 C 55.195312 38.453125 55.171875 38.441406 55.152344 38.429688 C 54.863281 38.285156 54.585938 38.109375 54.324219 37.925781 C 53.777344 37.535156 53.277344 37.082031 52.824219 36.585938 C 51.914062 35.601562 51.183594 34.464844 50.605469 33.273438 C 49.464844 30.890625 48.929688 28.257812 49.195312 25.664062 C 49.328125 24.371094 49.695312 23.101562 50.265625 21.898438 C 50.546875 21.296875 50.882812 20.71875 51.238281 20.148438 C 51.597656 19.582031 51.988281 19.027344 52.382812 18.476562 C 53.175781 17.378906 54.011719 16.300781 54.730469 15.132812 C 55.089844 14.550781 55.421875 13.945312 55.710938 13.316406 C 55.839844 13.023438 55.964844 12.726562 56.078125 12.425781 Z M 45.089844 17.210938 C 45.320312 17.460938 45.570312 17.695312 45.832031 17.914062 C 46.339844 18.328125 46.886719 18.6875 47.457031 18.984375 C 47.742188 19.132812 48.03125 19.273438 48.324219 19.402344 C 48.617188 19.527344 48.914062 19.640625 49.210938 19.75 C 49.683594 19.910156 50.160156 20.050781 50.636719 20.175781 C 50.3125 20.636719 49.996094 21.109375 49.707031 21.601562 C 49.355469 22.203125 49.046875 22.832031 48.796875 23.488281 C 48.550781 24.148438 48.367188 24.835938 48.253906 25.535156 C 48.03125 26.933594 48.078125 28.371094 48.378906 29.75 C 48.675781 31.132812 49.238281 32.445312 49.96875 33.625 C 50.703125 34.8125 51.609375 35.871094 52.621094 36.796875 C 52.996094 37.132812 53.382812 37.453125 53.792969 37.75 C 53.457031 37.574219 53.125 37.398438 52.796875 37.214844 C 51.757812 36.628906 50.753906 36 49.824219 35.285156 C 48.890625 34.574219 48.023438 33.792969 47.246094 32.933594 C 46.460938 32.078125 45.785156 31.128906 45.246094 30.097656 C 44.714844 29.0625 44.277344 27.964844 43.984375 26.8125 C 43.683594 25.664062 43.550781 24.457031 43.605469 23.257812 C 43.644531 22.054688 43.886719 20.867188 44.238281 19.71875 C 44.5 18.871094 44.796875 18.046875 45.089844 17.210938 Z M 61.496094 37.96875 C 60.816406 37.871094 60.128906 37.859375 59.457031 37.921875 C 59.527344 37.894531 59.597656 37.867188 59.667969 37.839844 C 60.816406 37.390625 61.925781 36.820312 62.972656 36.132812 C 64.015625 35.445312 64.984375 34.625 65.816406 33.667969 C 66.640625 32.710938 67.335938 31.636719 67.863281 30.488281 C 68.128906 29.914062 68.351562 29.324219 68.515625 28.71875 C 68.683594 28.113281 68.796875 27.496094 68.878906 26.878906 C 68.992188 26.015625 69.035156 25.148438 69.039062 24.289062 L 69.054688 24.34375 C 69.925781 24.242188 70.78125 23.992188 71.597656 23.667969 C 72.011719 23.511719 72.414062 23.328125 72.808594 23.125 C 73.203125 22.925781 73.589844 22.710938 73.964844 22.472656 C 74.714844 22 75.429688 21.457031 76.078125 20.832031 C 76.523438 20.40625 76.933594 19.933594 77.285156 19.417969 C 77.289062 19.425781 77.292969 19.433594 77.292969 19.441406 C 77.402344 19.71875 77.488281 20.007812 77.558594 20.304688 C 77.703125 20.898438 77.78125 21.519531 77.808594 22.144531 C 77.859375 23.394531 77.667969 24.660156 77.320312 25.863281 C 76.972656 27.074219 76.441406 28.222656 75.796875 29.28125 C 75.152344 30.335938 74.414062 31.320312 73.542969 32.164062 C 73.109375 32.582031 72.640625 32.960938 72.144531 33.292969 C 71.636719 33.625 71.09375 33.957031 70.5625 34.277344 C 69.496094 34.917969 68.410156 35.527344 67.296875 36.074219 C 65.566406 36.914062 63.757812 37.613281 61.863281 38.027344 C 61.742188 38.007812 61.621094 37.984375 61.496094 37.96875 Z M 82.011719 26.222656 C 82.53125 25.730469 83.011719 25.203125 83.429688 24.621094 C 83.578125 25.449219 83.527344 26.300781 83.445312 27.117188 C 83.351562 28.09375 83.089844 29.039062 82.742188 29.933594 C 82.394531 30.828125 81.949219 31.683594 81.339844 32.410156 C 80.894531 32.941406 80.347656 33.390625 79.699219 33.722656 C 78.410156 33.457031 77.089844 33.238281 75.738281 33.238281 C 75.367188 33.238281 74.996094 33.253906 74.628906 33.289062 C 74.359375 33.316406 74.09375 33.363281 73.828125 33.414062 C 73.996094 33.253906 74.160156 33.09375 74.316406 32.925781 C 75.191406 32 75.898438 30.933594 76.429688 29.800781 C 76.828125 29.492188 77.238281 29.214844 77.671875 28.96875 C 78.375 28.550781 79.136719 28.214844 79.890625 27.800781 C 80.644531 27.386719 81.363281 26.832031 82.011719 26.222656 Z M 88.261719 34.382812 C 87.695312 34.765625 87.007812 34.953125 86.3125 34.996094 C 85.617188 35.039062 84.914062 34.953125 84.222656 34.820312 C 83.011719 34.574219 81.820312 34.207031 80.59375 33.917969 C 81.105469 33.730469 81.582031 33.441406 82 33.085938 C 82.859375 32.367188 83.488281 31.402344 83.886719 30.378906 C 84.28125 29.347656 84.445312 28.253906 84.453125 27.167969 C 84.449219 26.078125 84.171875 24.996094 83.734375 24.023438 L 83.53125 23.578125 L 83.34375 23.992188 C 83 24.75 82.429688 25.40625 81.714844 25.839844 C 81.210938 26.152344 80.660156 26.367188 80.109375 26.597656 C 80.429688 26.175781 80.699219 25.714844 80.914062 25.230469 C 81.191406 24.609375 81.382812 23.957031 81.503906 23.296875 C 81.621094 22.636719 81.65625 21.96875 81.640625 21.308594 C 81.621094 20.648438 81.570312 19.992188 81.46875 19.347656 C 81.367188 18.699219 81.195312 18.070312 81.011719 17.445312 C 80.632812 16.203125 80.28125 14.992188 79.984375 13.722656 L 79.863281 13.195312 L 79.476562 13.675781 C 79.121094 14.117188 78.660156 14.464844 78.203125 14.792969 C 77.742188 15.121094 77.269531 15.4375 76.769531 15.703125 C 76.269531 15.96875 75.75 16.191406 75.203125 16.347656 C 74.832031 16.457031 74.449219 16.527344 74.054688 16.5625 C 73.984375 15.972656 73.878906 15.386719 73.734375 14.8125 C 73.578125 14.179688 73.382812 13.554688 73.171875 12.9375 C 72.964844 12.324219 72.722656 11.722656 72.445312 11.136719 C 72.171875 10.550781 71.867188 9.976562 71.585938 9.402344 C 71.304688 8.824219 71.039062 8.242188 70.800781 7.648438 L 70.667969 7.3125 L 70.476562 7.632812 C 70.089844 8.292969 69.535156 8.84375 68.964844 9.34375 C 68.386719 9.84375 67.804688 10.324219 67.234375 10.828125 C 66.660156 11.320312 66.066406 11.804688 65.460938 12.273438 C 65 12.632812 64.539062 12.988281 64.058594 13.335938 C 64.023438 13.277344 63.992188 13.21875 63.957031 13.164062 C 63.753906 12.851562 63.539062 12.554688 63.316406 12.265625 C 62.867188 11.6875 62.375 11.152344 61.875 10.640625 C 60.871094 9.621094 59.792969 8.71875 58.832031 7.734375 C 58.351562 7.242188 57.902344 6.730469 57.503906 6.191406 C 57.105469 5.648438 56.75 5.078125 56.519531 4.449219 L 56.148438 3.441406 L 55.914062 4.441406 C 55.757812 5.097656 55.476562 5.738281 55.101562 6.324219 C 54.726562 6.914062 54.273438 7.457031 53.777344 7.957031 C 52.789062 8.964844 51.605469 9.765625 50.523438 10.710938 C 49.984375 11.1875 49.46875 11.699219 49 12.265625 C 48.714844 12.609375 48.449219 12.972656 48.203125 13.351562 C 47.714844 13.003906 47.246094 12.640625 46.777344 12.273438 C 46.171875 11.804688 45.578125 11.320312 45.003906 10.828125 C 44.433594 10.324219 43.851562 9.84375 43.273438 9.34375 C 42.703125 8.84375 42.148438 8.292969 41.761719 7.632812 L 41.570312 7.3125 L 41.4375 7.648438 C 41.199219 8.242188 40.933594 8.824219 40.652344 9.402344 C 40.371094 9.976562 40.070312 10.550781 39.792969 11.136719 C 39.515625 11.722656 39.269531 12.324219 39.066406 12.9375 C 38.855469 13.554688 38.660156 14.179688 38.503906 14.8125 C 38.359375 15.386719 38.253906 15.972656 38.183594 16.5625 C 37.789062 16.527344 37.40625 16.457031 37.039062 16.347656 C 36.492188 16.191406 35.96875 15.96875 35.46875 15.703125 C 34.96875 15.4375 34.5 15.121094 34.039062 14.792969 C 33.578125 14.464844 33.117188 14.117188 32.761719 13.675781 L 32.375 13.195312 L 32.253906 13.722656 C 31.957031 14.992188 31.605469 16.203125 31.226562 17.445312 C 31.042969 18.070312 30.871094 18.699219 30.769531 19.347656 C 30.667969 19.992188 30.617188 20.648438 30.597656 21.308594 C 30.582031 21.96875 30.617188 22.636719 30.734375 23.296875 C 30.855469 23.957031 31.046875 24.609375 31.324219 25.230469 C 31.539062 25.714844 31.808594 26.175781 32.128906 26.597656 C 31.578125 26.367188 31.027344 26.152344 30.523438 25.839844 C 29.808594 25.40625 29.238281 24.75 28.894531 23.992188 L 28.707031 23.578125 L 28.503906 24.023438 C 28.066406 24.996094 27.789062 26.078125 27.789062 27.167969 C 27.796875 28.253906 27.957031 29.347656 28.351562 30.378906 C 28.75 31.402344 29.378906 32.367188 30.238281 33.085938 C 30.65625 33.441406 31.132812 33.730469 31.644531 33.917969 C 30.417969 34.207031 29.226562 34.570312 28.015625 34.816406 C 27.324219 34.949219 26.621094 35.035156 25.925781 34.992188 C 25.234375 34.949219 24.542969 34.765625 23.976562 34.382812 L 23.5625 34.101562 L 23.707031 34.585938 C 24.304688 36.535156 25.359375 38.378906 26.832031 39.851562 C 27.566406 40.585938 28.398438 41.21875 29.28125 41.765625 C 30.164062 42.316406 31.101562 42.769531 32.078125 43.132812 C 34.03125 43.851562 36.136719 44.121094 38.195312 43.992188 C 39.941406 43.878906 41.660156 43.453125 43.21875 42.722656 C 42.816406 43.09375 42.398438 43.453125 41.96875 43.792969 C 41.300781 44.3125 40.59375 44.777344 39.839844 45.125 C 39.089844 45.480469 38.304688 45.722656 37.515625 45.855469 L 36.628906 46.007812 L 37.300781 46.667969 C 37.773438 47.136719 38.277344 47.574219 38.824219 47.972656 C 39.367188 48.371094 39.949219 48.730469 40.578125 49.019531 C 41.203125 49.308594 41.878906 49.53125 42.582031 49.625 C 43.285156 49.71875 44.015625 49.691406 44.710938 49.523438 C 45.410156 49.363281 46.0625 49.058594 46.648438 48.675781 C 47.230469 48.289062 47.738281 47.8125 48.171875 47.289062 C 48.605469 46.761719 48.964844 46.183594 49.246094 45.574219 C 49.34375 45.351562 49.4375 45.125 49.515625 44.890625 C 49.800781 45.609375 50.238281 46.234375 50.730469 46.777344 C 51.28125 47.394531 51.894531 47.917969 52.507812 48.433594 C 53.121094 48.945312 53.746094 49.441406 54.34375 49.953125 C 54.644531 50.210938 54.9375 50.472656 55.203125 50.753906 C 55.464844 51.03125 55.710938 51.335938 55.839844 51.636719 L 56.074219 52.1875 L 56.402344 51.632812 C 56.566406 51.351562 56.839844 51.09375 57.128906 50.851562 C 57.417969 50.609375 57.730469 50.378906 58.046875 50.148438 C 58.679688 49.683594 59.324219 49.210938 59.949219 48.691406 C 60.578125 48.175781 61.1875 47.609375 61.722656 46.949219 C 62.167969 46.414062 62.546875 45.792969 62.800781 45.109375 C 62.859375 45.269531 62.925781 45.421875 62.992188 45.574219 C 63.273438 46.183594 63.632812 46.761719 64.066406 47.289062 C 64.5 47.8125 65.007812 48.289062 65.59375 48.675781 C 66.175781 49.058594 66.828125 49.363281 67.527344 49.523438 C 68.222656 49.691406 68.953125 49.71875 69.65625 49.625 C 70.359375 49.53125 71.035156 49.308594 71.660156 49.019531 C 72.289062 48.730469 72.871094 48.371094 73.414062 47.972656 C 73.960938 47.574219 74.464844 47.136719 74.9375 46.667969 L 75.609375 46.007812 L 74.722656 45.855469 C 73.921875 45.71875 73.125 45.472656 72.363281 45.109375 C 71.597656 44.753906 70.875 44.285156 70.191406 43.765625 C 69.835938 43.488281 69.488281 43.199219 69.148438 42.902344 C 70.738281 43.667969 72.503906 44.101562 74.289062 44.203125 C 76.339844 44.3125 78.433594 44.003906 80.359375 43.246094 C 81.320312 42.867188 82.246094 42.386719 83.109375 41.820312 C 83.972656 41.253906 84.78125 40.605469 85.496094 39.863281 C 86.929688 38.367188 87.941406 36.523438 88.53125 34.585938 L 88.675781 34.101562 L 88.261719 34.382812 " fill-opacity="1" fill-rule="nonzero"/></g><g fill="#ffde59" fill-opacity="1"><g transform="translate(12.143554, 66.995954)"><g><path d="M 1.515625 -13.125 L 2.359375 -13.125 L 2.359375 4.375 L 1.515625 4.375 Z M 1.515625 -13.125 "/></g></g></g><g fill="#000000" fill-opacity="1"><g transform="translate(16.034179, 66.995954)"><g/></g></g><g fill="#000000" fill-opacity="1"><g transform="translate(20.583148, 66.995954)"><g><path d="M 1.796875 -12.390625 L 5.375 -7.34375 L 8.890625 -12.390625 L 10.265625 -12.390625 L 6.078125 -6.515625 L 10.671875 0 L 9.234375 0 L 5.3125 -5.59375 L 1.40625 0 L 0.015625 0 L 4.671875 -6.515625 L 0.4375 -12.390625 Z M 1.796875 -12.390625 "/></g></g></g><g fill="#000000" fill-opacity="1"><g transform="translate(31.273233, 66.995954)"><g><path d="M 1.578125 -8.078125 L 2.625 -8.078125 L 2.625 0 L 1.578125 0 Z M 2.09375 -12.078125 C 2.332031 -12.078125 2.523438 -12 2.671875 -11.84375 C 2.816406 -11.695312 2.890625 -11.507812 2.890625 -11.28125 C 2.890625 -11.0625 2.816406 -10.875 2.671875 -10.71875 C 2.523438 -10.570312 2.332031 -10.5 2.09375 -10.5 C 1.875 -10.5 1.6875 -10.570312 1.53125 -10.71875 C 1.382812 -10.875 1.3125 -11.0625 1.3125 -11.28125 C 1.3125 -11.507812 1.382812 -11.695312 1.53125 -11.84375 C 1.6875 -12 1.875 -12.078125 2.09375 -12.078125 Z M 2.09375 -12.078125 "/></g></g></g><g fill="#000000" fill-opacity="1"><g transform="translate(35.472288, 66.995954)"><g><path d="M 5.25 -8.296875 C 6.300781 -8.296875 7.070312 -8.007812 7.5625 -7.4375 C 8.0625 -6.875 8.316406 -5.988281 8.328125 -4.78125 L 8.328125 0 L 7.28125 0 L 7.28125 -4.71875 C 7.28125 -5.625 7.113281 -6.285156 6.78125 -6.703125 C 6.445312 -7.128906 5.9375 -7.34375 5.25 -7.34375 C 4.394531 -7.34375 3.71875 -7.046875 3.21875 -6.453125 C 2.71875 -5.867188 2.460938 -5.050781 2.453125 -4 L 2.453125 0 L 1.40625 0 L 1.40625 -5.890625 C 1.382812 -6.234375 1.351562 -6.960938 1.3125 -8.078125 L 2.359375 -8.078125 C 2.378906 -7.160156 2.40625 -6.691406 2.4375 -6.671875 L 2.484375 -6.671875 C 2.710938 -7.160156 3.082031 -7.550781 3.59375 -7.84375 C 4.101562 -8.144531 4.65625 -8.296875 5.25 -8.296875 Z M 5.25 -8.296875 "/></g></g></g><g fill="#000000" fill-opacity="1"><g transform="translate(45.200086, 66.995954)"><g/></g></g><g fill="#000000" fill-opacity="1"><g transform="translate(49.749055, 66.995954)"><g><path d="M 5.203125 -8.296875 C 6.367188 -8.296875 7.367188 -7.828125 8.203125 -6.890625 L 7.375 -6.265625 C 6.695312 -6.984375 5.96875 -7.34375 5.1875 -7.34375 C 4.269531 -7.34375 3.507812 -7.035156 2.90625 -6.421875 C 2.3125 -5.804688 2.007812 -5.015625 2 -4.046875 C 2 -3.078125 2.300781 -2.285156 2.90625 -1.671875 C 3.507812 -1.054688 4.269531 -0.742188 5.1875 -0.734375 C 6.039062 -0.734375 6.769531 -1.109375 7.375 -1.859375 L 8.171875 -1.1875 C 7.390625 -0.269531 6.398438 0.191406 5.203125 0.203125 C 3.972656 0.203125 2.960938 -0.191406 2.171875 -0.984375 C 1.378906 -1.773438 0.96875 -2.796875 0.9375 -4.046875 C 0.9375 -5.242188 1.332031 -6.242188 2.125 -7.046875 C 2.914062 -7.859375 3.941406 -8.273438 5.203125 -8.296875 Z M 5.203125 -8.296875 "/></g></g></g><g fill="#000000" fill-opacity="1"><g transform="translate(58.16465, 66.995954)"><g><path d="M 1.40625 -13.234375 L 2.453125 -13.234375 L 2.453125 -6.671875 L 2.484375 -6.671875 C 2.710938 -7.171875 3.082031 -7.566406 3.59375 -7.859375 C 4.101562 -8.148438 4.65625 -8.296875 5.25 -8.296875 C 7.300781 -8.296875 8.328125 -7.15625 8.328125 -4.875 L 8.328125 0 L 7.28125 0 L 7.28125 -4.78125 C 7.28125 -6.488281 6.601562 -7.34375 5.25 -7.34375 C 4.375 -7.34375 3.6875 -7.039062 3.1875 -6.4375 C 2.695312 -5.84375 2.453125 -5.054688 2.453125 -4.078125 L 2.453125 0 L 1.40625 0 Z M 1.40625 -13.234375 "/></g></g></g><g fill="#000000" fill-opacity="1"><g transform="translate(67.892448, 66.995954)"><g><path d="M 2.078125 -2.234375 C 2.078125 -1.796875 2.253906 -1.4375 2.609375 -1.15625 C 2.972656 -0.875 3.414062 -0.734375 3.9375 -0.734375 C 4.882812 -0.734375 5.585938 -0.976562 6.046875 -1.46875 C 6.503906 -1.96875 6.734375 -2.644531 6.734375 -3.5 L 6.734375 -4.0625 L 5.484375 -4.0625 C 4.410156 -4.0625 3.570312 -3.894531 2.96875 -3.5625 C 2.375 -3.238281 2.078125 -2.796875 2.078125 -2.234375 Z M 4.46875 -8.296875 C 5.550781 -8.296875 6.351562 -8.046875 6.875 -7.546875 C 7.40625 -7.046875 7.675781 -6.34375 7.6875 -5.4375 L 7.6875 -3.046875 C 7.6875 -1.734375 7.738281 -0.71875 7.84375 0 L 6.859375 0 C 6.785156 -0.363281 6.75 -0.800781 6.75 -1.3125 L 6.71875 -1.3125 C 6.132812 -0.300781 5.195312 0.203125 3.90625 0.203125 C 3.03125 0.203125 2.332031 -0.0078125 1.8125 -0.4375 C 1.300781 -0.863281 1.039062 -1.445312 1.03125 -2.1875 C 1.03125 -3.082031 1.414062 -3.757812 2.1875 -4.21875 C 2.96875 -4.675781 4.050781 -4.90625 5.4375 -4.90625 L 6.734375 -4.90625 L 6.734375 -5.375 C 6.734375 -6.039062 6.53125 -6.535156 6.125 -6.859375 C 5.71875 -7.179688 5.164062 -7.34375 4.46875 -7.34375 C 3.53125 -7.34375 2.707031 -7.039062 2 -6.4375 L 1.375 -7.15625 C 1.757812 -7.53125 2.234375 -7.8125 2.796875 -8 C 3.367188 -8.195312 3.925781 -8.296875 4.46875 -8.296875 Z M 4.078125 -12.390625 L 5.890625 -9.875 L 5.015625 -9.875 L 2.671875 -12.390625 Z M 4.078125 -12.390625 "/></g></g></g><g fill="#000000" fill-opacity="1"><g transform="translate(76.972899, 66.995954)"><g><path d="M 2 -4.046875 C 2 -3.078125 2.300781 -2.28125 2.90625 -1.65625 C 3.507812 -1.039062 4.273438 -0.734375 5.203125 -0.734375 C 6.148438 -0.734375 6.921875 -1.046875 7.515625 -1.671875 C 8.109375 -2.304688 8.40625 -3.097656 8.40625 -4.046875 C 8.40625 -4.972656 8.113281 -5.75 7.53125 -6.375 C 6.945312 -7.007812 6.164062 -7.332031 5.1875 -7.34375 C 4.238281 -7.34375 3.472656 -7.023438 2.890625 -6.390625 C 2.304688 -5.765625 2.007812 -4.984375 2 -4.046875 Z M 5.203125 -8.296875 C 6.429688 -8.296875 7.441406 -7.890625 8.234375 -7.078125 C 9.035156 -6.273438 9.441406 -5.265625 9.453125 -4.046875 C 9.453125 -2.796875 9.046875 -1.773438 8.234375 -0.984375 C 7.421875 -0.203125 6.410156 0.191406 5.203125 0.203125 C 3.929688 0.191406 2.90625 -0.210938 2.125 -1.015625 C 1.351562 -1.816406 0.957031 -2.828125 0.9375 -4.046875 C 0.9375 -5.296875 1.335938 -6.3125 2.140625 -7.09375 C 2.941406 -7.882812 3.960938 -8.285156 5.203125 -8.296875 Z M 5.203125 -8.296875 "/></g></g></g><g fill="#000000" fill-opacity="1"><g transform="translate(87.365553, 66.995954)"><g/></g></g><g fill="#ffde59" fill-opacity="1"><g transform="translate(91.924799, 66.995954)"><g><path d="M 1.515625 -13.125 L 2.359375 -13.125 L 2.359375 4.375 L 1.515625 4.375 Z M 1.515625 -13.125 "/></g></g></g><g fill="#000000" fill-opacity="1"><g transform="translate(95.815423, 66.995954)"><g/></g></g></svg>