<svg xmlns="http://www.w3.org/2000/svg" xmlns:xlink="http://www.w3.org/1999/xlink" width="300" zoomAndPan="magnify" viewBox="0 0 224.87999 149.999998" height="200" preserveAspectRatio="xMidYMid meet" version="1.0"><defs><g/><clipPath id="044e0fa6c7"><path d="M 0 0.0390625 L 224.761719 0.0390625 L 224.761719 149.960938 L 0 149.960938 Z M 0 0.0390625 " clip-rule="nonzero"/></clipPath><clipPath id="7297526844"><path d="M 0 0.0390625 L 224.761719 0.0390625 L 224.761719 4 L 0 4 Z M 0 0.0390625 " clip-rule="nonzero"/></clipPath><clipPath id="a957261dab"><path d="M 0 1 L 224.761719 1 L 224.761719 5 L 0 5 Z M 0 1 " clip-rule="nonzero"/></clipPath></defs><g clip-path="url(#044e0fa6c7)"><path fill="#ffffff" d="M 0 0.0390625 L 224.878906 0.0390625 L 224.878906 149.960938 L 0 149.960938 Z M 0 0.0390625 " fill-opacity="1" fill-rule="nonzero"/><path fill="#191919" d="M 0 0.0390625 L 224.878906 0.0390625 L 224.878906 149.960938 L 0 149.960938 Z M 0 0.0390625 " fill-opacity="1" fill-rule="nonzero"/></g><g fill="#fffff9" fill-opacity="1"><g transform="translate(82.394757, 82.121197)"><g><path d="M 4.484375 -22.296875 L 4.484375 -11.875 L 4.546875 -11.875 C 4.953125 -12.570312 5.554688 -13.125 6.359375 -13.53125 C 7.171875 -13.945312 8.050781 -14.15625 9 -14.15625 C 10.726562 -14.15625 12.03125 -13.648438 12.90625 -12.640625 C 13.78125 -11.640625 14.21875 -10.304688 14.21875 -8.640625 L 14.21875 0 L 11.90625 0 L 11.90625 -8.375 C 11.90625 -9.4375 11.660156 -10.304688 11.171875 -10.984375 C 10.679688 -11.660156 9.875 -12.007812 8.75 -12.03125 C 7.34375 -12.03125 6.28125 -11.5625 5.5625 -10.625 C 4.84375 -9.695312 4.484375 -8.4375 4.484375 -6.84375 L 4.484375 0 L 2.1875 0 L 2.1875 -22.296875 Z M 4.484375 -22.296875 "/></g></g></g><g fill="#fffff9" fill-opacity="1"><g transform="translate(98.785827, 82.121197)"><g><path d="M 7.484375 -14.15625 C 9.492188 -14.15625 10.953125 -13.679688 11.859375 -12.734375 C 12.773438 -11.796875 13.242188 -10.375 13.265625 -8.46875 L 13.265625 -2.265625 C 13.265625 -1.679688 13.332031 -0.925781 13.46875 0 L 11.265625 0 C 11.160156 -0.175781 11.109375 -0.863281 11.109375 -2.0625 L 11.0625 -2.0625 C 10.019531 -0.488281 8.503906 0.316406 6.515625 0.359375 C 5.003906 0.359375 3.769531 -0.0195312 2.8125 -0.78125 C 1.863281 -1.539062 1.390625 -2.53125 1.390625 -3.75 C 1.390625 -5.414062 2.078125 -6.632812 3.453125 -7.40625 C 4.828125 -8.1875 6.976562 -8.578125 9.90625 -8.578125 L 10.96875 -8.578125 L 10.96875 -8.96875 C 10.96875 -10.96875 9.828125 -11.988281 7.546875 -12.03125 C 5.898438 -12.03125 4.535156 -11.53125 3.453125 -10.53125 L 2 -12.03125 C 3.414062 -13.40625 5.242188 -14.113281 7.484375 -14.15625 Z M 3.859375 -3.984375 C 3.859375 -2.429688 4.875 -1.632812 6.90625 -1.59375 C 8.101562 -1.59375 9.078125 -1.972656 9.828125 -2.734375 C 10.585938 -3.503906 10.96875 -4.628906 10.96875 -6.109375 L 10.96875 -6.640625 L 8.4375 -6.640625 C 7.070312 -6.640625 5.972656 -6.421875 5.140625 -5.984375 C 4.304688 -5.554688 3.878906 -4.890625 3.859375 -3.984375 Z M 3.859375 -3.984375 "/></g></g></g><g fill="#fffff9" fill-opacity="1"><g transform="translate(114.086125, 82.121197)"><g><path d="M 8.96875 -14.15625 C 9.320312 -14.15625 9.632812 -14.101562 9.90625 -14 L 9.765625 -11.671875 C 9.328125 -11.796875 8.910156 -11.859375 8.515625 -11.859375 C 7.179688 -11.859375 6.175781 -11.421875 5.5 -10.546875 C 4.820312 -9.671875 4.484375 -8.4375 4.484375 -6.84375 L 4.484375 0 L 2.1875 0 L 2.1875 -10.734375 C 2.1875 -11.003906 2.144531 -12.023438 2.0625 -13.796875 L 4.25 -13.796875 C 4.289062 -12.421875 4.3125 -11.664062 4.3125 -11.53125 L 4.359375 -11.53125 C 4.734375 -12.3125 5.335938 -12.941406 6.171875 -13.421875 C 7.015625 -13.910156 7.945312 -14.15625 8.96875 -14.15625 Z M 8.96875 -14.15625 "/></g></g></g><g fill="#fffff9" fill-opacity="1"><g transform="translate(124.463205, 82.121197)"><g><path d="M 15.953125 -22.296875 L 15.953125 0 L 13.65625 0 L 13.65625 -2.453125 L 13.59375 -2.453125 C 13.125 -1.566406 12.40625 -0.875 11.4375 -0.375 C 10.476562 0.113281 9.425781 0.359375 8.28125 0.359375 C 6.332031 0.359375 4.703125 -0.332031 3.390625 -1.71875 C 2.085938 -3.101562 1.421875 -4.832031 1.390625 -6.90625 C 1.390625 -9 2.0625 -10.722656 3.40625 -12.078125 C 4.75 -13.441406 6.492188 -14.132812 8.640625 -14.15625 C 10.617188 -14.15625 12.269531 -13.367188 13.59375 -11.796875 L 13.65625 -11.796875 L 13.65625 -22.296875 Z M 3.859375 -6.90625 C 3.859375 -5.382812 4.316406 -4.148438 5.234375 -3.203125 C 6.148438 -2.265625 7.320312 -1.785156 8.75 -1.765625 C 10.1875 -1.765625 11.351562 -2.234375 12.25 -3.171875 C 13.144531 -4.117188 13.613281 -5.363281 13.65625 -6.90625 C 13.65625 -8.394531 13.195312 -9.617188 12.28125 -10.578125 C 11.363281 -11.546875 10.179688 -12.03125 8.734375 -12.03125 C 7.316406 -12.03125 6.160156 -11.550781 5.265625 -10.59375 C 4.367188 -9.644531 3.898438 -8.414062 3.859375 -6.90625 Z M 3.859375 -6.90625 "/></g></g></g><g clip-path="url(#7297526844)"><path stroke-linecap="butt" transform="matrix(0.7496, 0, 0, 0.7496, -0.00000000000004261, 0.0400041)" fill="none" stroke-linejoin="miter" d="M 0.000000000000056843 1.999811 L 299.998567 1.999811 " stroke="#ffffff" stroke-width="4" stroke-opacity="1" stroke-miterlimit="4"/></g><g clip-path="url(#a957261dab)"><path stroke-linecap="butt" transform="matrix(0.7496, 0, 0, 0.7496, 0, 1.539204)" fill="none" stroke-linejoin="miter" d="M 0 2.000879 L 299.998567 2.000879 " stroke="#ff3131" stroke-width="4" stroke-opacity="1" stroke-miterlimit="4"/></g></svg>