<svg xmlns="http://www.w3.org/2000/svg" xmlns:xlink="http://www.w3.org/1999/xlink" width="300" zoomAndPan="magnify" viewBox="0 0 224.87999 149.999998" height="200" preserveAspectRatio="xMidYMid meet" version="1.0"><defs><g/><clipPath id="199baa2e4b"><path d="M 0 0.0390625 L 224.761719 0.0390625 L 224.761719 149.960938 L 0 149.960938 Z M 0 0.0390625 " clip-rule="nonzero"/></clipPath><clipPath id="a0c04a3303"><path d="M 0 0.0390625 L 224.761719 0.0390625 L 224.761719 4 L 0 4 Z M 0 0.0390625 " clip-rule="nonzero"/></clipPath><clipPath id="8b234f70dc"><path d="M 0 3 L 224.761719 3 L 224.761719 7 L 0 7 Z M 0 3 " clip-rule="nonzero"/></clipPath></defs><g clip-path="url(#199baa2e4b)"><path fill="#ffffff" d="M 0 0.0390625 L 224.878906 0.0390625 L 224.878906 149.960938 L 0 149.960938 Z M 0 0.0390625 " fill-opacity="1" fill-rule="nonzero"/><path fill="#ff3131" d="M 0 0.0390625 L 224.878906 0.0390625 L 224.878906 149.960938 L 0 149.960938 Z M 0 0.0390625 " fill-opacity="1" fill-rule="nonzero"/></g><g fill="#fffff9" fill-opacity="1"><g transform="translate(95.11453, 82.121197)"><g><path d="M 15.953125 -22.296875 L 15.953125 0 L 13.65625 0 L 13.65625 -2.453125 L 13.59375 -2.453125 C 13.125 -1.566406 12.40625 -0.875 11.4375 -0.375 C 10.476562 0.113281 9.425781 0.359375 8.28125 0.359375 C 6.332031 0.359375 4.703125 -0.332031 3.390625 -1.71875 C 2.085938 -3.101562 1.421875 -4.832031 1.390625 -6.90625 C 1.390625 -9 2.0625 -10.722656 3.40625 -12.078125 C 4.75 -13.441406 6.492188 -14.132812 8.640625 -14.15625 C 10.617188 -14.15625 12.269531 -13.367188 13.59375 -11.796875 L 13.65625 -11.796875 L 13.65625 -22.296875 Z M 3.859375 -6.90625 C 3.859375 -5.382812 4.316406 -4.148438 5.234375 -3.203125 C 6.148438 -2.265625 7.320312 -1.785156 8.75 -1.765625 C 10.1875 -1.765625 11.351562 -2.234375 12.25 -3.171875 C 13.144531 -4.117188 13.613281 -5.363281 13.65625 -6.90625 C 13.65625 -8.394531 13.195312 -9.617188 12.28125 -10.578125 C 11.363281 -11.546875 10.179688 -12.03125 8.734375 -12.03125 C 7.316406 -12.03125 6.160156 -11.550781 5.265625 -10.59375 C 4.367188 -9.644531 3.898438 -8.414062 3.859375 -6.90625 Z M 3.859375 -6.90625 "/></g></g></g><g fill="#fffff9" fill-opacity="1"><g transform="translate(113.127016, 82.121197)"><g><path d="M 8.609375 -16.09375 C 9.941406 -16.09375 11.097656 -15.796875 12.078125 -15.203125 C 13.066406 -14.617188 13.820312 -13.789062 14.34375 -12.71875 C 14.863281 -11.644531 15.125 -10.394531 15.125 -8.96875 L 15.125 -7.40625 L 4.3125 -7.40625 C 4.34375 -5.613281 4.796875 -4.25 5.671875 -3.3125 C 6.546875 -2.382812 7.769531 -1.921875 9.34375 -1.921875 C 10.34375 -1.921875 11.226562 -2.015625 12 -2.203125 C 12.78125 -2.390625 13.585938 -2.65625 14.421875 -3 L 14.421875 -0.734375 C 13.609375 -0.378906 12.804688 -0.117188 12.015625 0.046875 C 11.234375 0.210938 10.304688 0.296875 9.234375 0.296875 C 7.710938 0.296875 6.378906 -0.00390625 5.234375 -0.609375 C 4.097656 -1.222656 3.210938 -2.128906 2.578125 -3.328125 C 1.941406 -4.523438 1.625 -6.007812 1.625 -7.78125 C 1.625 -9.507812 1.910156 -10.992188 2.484375 -12.234375 C 3.066406 -13.472656 3.882812 -14.425781 4.9375 -15.09375 C 5.988281 -15.757812 7.210938 -16.09375 8.609375 -16.09375 Z M 8.578125 -13.96875 C 7.335938 -13.96875 6.359375 -13.570312 5.640625 -12.78125 C 4.921875 -11.988281 4.492188 -10.882812 4.359375 -9.46875 L 12.40625 -9.46875 C 12.394531 -10.800781 12.082031 -11.882812 11.46875 -12.71875 C 10.863281 -13.550781 9.898438 -13.96875 8.578125 -13.96875 Z M 13.109375 -26.03125 C 13.035156 -25.113281 12.757812 -24.351562 12.28125 -23.75 C 11.8125 -23.144531 11.1875 -22.84375 10.40625 -22.84375 C 9.925781 -22.84375 9.46875 -22.957031 9.03125 -23.1875 C 8.59375 -23.414062 8.160156 -23.640625 7.734375 -23.859375 C 7.304688 -24.085938 6.914062 -24.203125 6.5625 -24.203125 C 6.175781 -24.203125 5.882812 -24.085938 5.6875 -23.859375 C 5.488281 -23.640625 5.320312 -23.296875 5.1875 -22.828125 L 3.859375 -22.828125 C 3.953125 -23.722656 4.226562 -24.472656 4.6875 -25.078125 C 5.15625 -25.691406 5.78125 -26 6.5625 -26 C 7.039062 -26 7.507812 -25.882812 7.96875 -25.65625 C 8.425781 -25.4375 8.867188 -25.210938 9.296875 -24.984375 C 9.722656 -24.765625 10.101562 -24.65625 10.4375 -24.65625 C 10.8125 -24.65625 11.097656 -24.765625 11.296875 -24.984375 C 11.503906 -25.210938 11.664062 -25.5625 11.78125 -26.03125 Z M 9.78125 -21.9375 C 10.238281 -21.269531 10.75 -20.617188 11.3125 -19.984375 C 11.882812 -19.359375 12.425781 -18.757812 12.9375 -18.1875 L 12.9375 -17.875 L 11.515625 -17.875 C 10.515625 -18.519531 9.492188 -19.300781 8.453125 -20.21875 C 7.941406 -19.769531 7.425781 -19.34375 6.90625 -18.9375 C 6.382812 -18.539062 5.878906 -18.1875 5.390625 -17.875 L 3.96875 -17.875 L 3.96875 -18.1875 C 4.46875 -18.757812 5.003906 -19.359375 5.578125 -19.984375 C 6.160156 -20.617188 6.675781 -21.269531 7.125 -21.9375 Z M 9.78125 -21.9375 "/></g></g></g><g clip-path="url(#a0c04a3303)"><path stroke-linecap="butt" transform="matrix(0.7496, 0, 0, 0.7496, -0.00000000000004261, 0.0400041)" fill="none" stroke-linejoin="miter" d="M 0.000000000000056843 1.999811 L 299.998567 1.999811 " stroke="#ffffff" stroke-width="4" stroke-opacity="1" stroke-miterlimit="4"/></g><g clip-path="url(#8b234f70dc)"><path stroke-linecap="butt" transform="matrix(0.7496, 0, 0, 0.7496, 0, 3.038404)" fill="none" stroke-linejoin="miter" d="M 0 2.001946 L 299.998567 2.001946 " stroke="#ffde59" stroke-width="4" stroke-opacity="1" stroke-miterlimit="4"/></g></svg>