<svg xmlns="http://www.w3.org/2000/svg" xmlns:xlink="http://www.w3.org/1999/xlink" width="300" zoomAndPan="magnify" viewBox="0 0 224.87999 149.999998" height="200" preserveAspectRatio="xMidYMid meet" version="1.0"><defs><g/><clipPath id="f136dcdb76"><path d="M 0 0.0390625 L 224.761719 0.0390625 L 224.761719 149.960938 L 0 149.960938 Z M 0 0.0390625 " clip-rule="nonzero"/></clipPath><clipPath id="65724aab14"><path d="M 0 0.0390625 L 224.761719 0.0390625 L 224.761719 4 L 0 4 Z M 0 0.0390625 " clip-rule="nonzero"/></clipPath><clipPath id="2968630487"><path d="M 0 1 L 224.761719 1 L 224.761719 5 L 0 5 Z M 0 1 " clip-rule="nonzero"/></clipPath></defs><g clip-path="url(#f136dcdb76)"><path fill="#ffffff" d="M 0 0.0390625 L 224.878906 0.0390625 L 224.878906 149.960938 L 0 149.960938 Z M 0 0.0390625 " fill-opacity="1" fill-rule="nonzero"/><path fill="#191919" d="M 0 0.0390625 L 224.878906 0.0390625 L 224.878906 149.960938 L 0 149.960938 Z M 0 0.0390625 " fill-opacity="1" fill-rule="nonzero"/></g><g fill="#fffff9" fill-opacity="1"><g transform="translate(54.284759, 82.121197)"><g><path d="M 4.359375 -22.296875 L 4.359375 -11.796875 L 4.421875 -11.796875 C 5.753906 -13.347656 7.40625 -14.132812 9.375 -14.15625 C 11.5625 -14.15625 13.3125 -13.46875 14.625 -12.09375 C 15.9375 -10.726562 16.601562 -9 16.625 -6.90625 C 16.625 -4.851562 15.960938 -3.140625 14.640625 -1.765625 C 13.328125 -0.390625 11.691406 0.316406 9.734375 0.359375 C 8.546875 0.359375 7.472656 0.101562 6.515625 -0.40625 C 5.566406 -0.914062 4.867188 -1.597656 4.421875 -2.453125 L 4.359375 -2.453125 L 4.359375 0 L 2.0625 0 L 2.0625 -22.296875 Z M 4.359375 -6.90625 C 4.359375 -5.382812 4.828125 -4.144531 5.765625 -3.1875 C 6.703125 -2.238281 7.867188 -1.765625 9.265625 -1.765625 C 10.691406 -1.765625 11.859375 -2.238281 12.765625 -3.1875 C 13.671875 -4.144531 14.132812 -5.382812 14.15625 -6.90625 C 14.15625 -8.394531 13.695312 -9.617188 12.78125 -10.578125 C 11.863281 -11.546875 10.679688 -12.03125 9.234375 -12.03125 C 7.816406 -12.03125 6.65625 -11.550781 5.75 -10.59375 C 4.84375 -9.644531 4.378906 -8.414062 4.359375 -6.90625 Z M 4.359375 -6.90625 "/></g></g></g><g fill="#fffff9" fill-opacity="1"><g transform="translate(72.297244, 82.121197)"><g><path d="M 8.46875 -14.15625 C 10.507812 -14.15625 12.101562 -13.507812 13.25 -12.21875 C 14.40625 -10.9375 14.988281 -9.113281 15 -6.75 L 15 -6.1875 L 3.859375 -6.1875 C 3.984375 -4.914062 4.46875 -3.863281 5.3125 -3.03125 C 6.15625 -2.207031 7.1875 -1.785156 8.40625 -1.765625 C 10.269531 -1.765625 11.722656 -2.460938 12.765625 -3.859375 L 14.5 -2.5 C 13.78125 -1.5625 12.925781 -0.847656 11.9375 -0.359375 C 10.957031 0.117188 9.78125 0.359375 8.40625 0.359375 C 6.300781 0.359375 4.609375 -0.320312 3.328125 -1.6875 C 2.054688 -3.0625 1.410156 -4.800781 1.390625 -6.90625 C 1.390625 -8.988281 2.039062 -10.707031 3.34375 -12.0625 C 4.65625 -13.414062 6.363281 -14.113281 8.46875 -14.15625 Z M 12.53125 -8.140625 C 12.46875 -9.335938 12.078125 -10.285156 11.359375 -10.984375 C 10.648438 -11.679688 9.644531 -12.03125 8.34375 -12.03125 C 7.164062 -12.03125 6.171875 -11.695312 5.359375 -11.03125 C 4.554688 -10.363281 4.054688 -9.398438 3.859375 -8.140625 Z M 12.53125 -8.140625 "/></g></g></g><g fill="#fffff9" fill-opacity="1"><g transform="translate(88.688315, 82.121197)"><g><path d="M 7.484375 -14.15625 C 9.492188 -14.15625 10.953125 -13.679688 11.859375 -12.734375 C 12.773438 -11.796875 13.242188 -10.375 13.265625 -8.46875 L 13.265625 -2.265625 C 13.265625 -1.679688 13.332031 -0.925781 13.46875 0 L 11.265625 0 C 11.160156 -0.175781 11.109375 -0.863281 11.109375 -2.0625 L 11.0625 -2.0625 C 10.019531 -0.488281 8.503906 0.316406 6.515625 0.359375 C 5.003906 0.359375 3.769531 -0.0195312 2.8125 -0.78125 C 1.863281 -1.539062 1.390625 -2.53125 1.390625 -3.75 C 1.390625 -5.414062 2.078125 -6.632812 3.453125 -7.40625 C 4.828125 -8.1875 6.976562 -8.578125 9.90625 -8.578125 L 10.96875 -8.578125 L 10.96875 -8.96875 C 10.96875 -10.96875 9.828125 -11.988281 7.546875 -12.03125 C 5.898438 -12.03125 4.535156 -11.53125 3.453125 -10.53125 L 2 -12.03125 C 3.414062 -13.40625 5.242188 -14.113281 7.484375 -14.15625 Z M 3.859375 -3.984375 C 3.859375 -2.429688 4.875 -1.632812 6.90625 -1.59375 C 8.101562 -1.59375 9.078125 -1.972656 9.828125 -2.734375 C 10.585938 -3.503906 10.96875 -4.628906 10.96875 -6.109375 L 10.96875 -6.640625 L 8.4375 -6.640625 C 7.070312 -6.640625 5.972656 -6.421875 5.140625 -5.984375 C 4.304688 -5.554688 3.878906 -4.890625 3.859375 -3.984375 Z M 3.859375 -3.984375 "/></g></g></g><g fill="#fffff9" fill-opacity="1"><g transform="translate(103.988613, 82.121197)"><g><path d="M 4.484375 -13.796875 L 4.484375 -5.421875 C 4.484375 -4.359375 4.734375 -3.488281 5.234375 -2.8125 C 5.734375 -2.132812 6.535156 -1.785156 7.640625 -1.765625 C 9.054688 -1.765625 10.117188 -2.234375 10.828125 -3.171875 C 11.546875 -4.117188 11.90625 -5.378906 11.90625 -6.953125 L 11.90625 -13.796875 L 14.21875 -13.796875 L 14.21875 -3.0625 C 14.226562 -2.507812 14.265625 -1.488281 14.328125 0 L 12.140625 0 C 12.128906 -0.945312 12.113281 -1.703125 12.09375 -2.265625 L 12.03125 -2.265625 C 11.675781 -1.503906 11.082031 -0.875 10.25 -0.375 C 9.414062 0.113281 8.46875 0.359375 7.40625 0.359375 C 5.707031 0.335938 4.410156 -0.164062 3.515625 -1.15625 C 2.628906 -2.15625 2.1875 -3.488281 2.1875 -5.15625 L 2.1875 -13.796875 Z M 4.484375 -13.796875 "/></g></g></g><g fill="#fffff9" fill-opacity="1"><g transform="translate(120.379684, 82.121197)"><g><path d="M 5.65625 -17.71875 L 5.65625 -13.796875 L 9.734375 -13.796875 L 9.734375 -11.859375 L 5.65625 -11.859375 L 5.65625 -4.484375 C 5.65625 -3.378906 5.832031 -2.648438 6.1875 -2.296875 C 6.539062 -1.941406 7.050781 -1.765625 7.71875 -1.765625 C 8.488281 -1.765625 9.171875 -1.921875 9.765625 -2.234375 L 9.84375 -0.140625 C 9.0625 0.191406 8.171875 0.359375 7.171875 0.359375 C 5.753906 0.359375 4.765625 0.0078125 4.203125 -0.6875 C 3.640625 -1.382812 3.359375 -2.53125 3.359375 -4.125 L 3.359375 -11.859375 L 0.359375 -11.859375 L 0.359375 -13.796875 L 3.359375 -13.796875 L 3.359375 -17.71875 Z M 5.65625 -17.71875 "/></g></g></g><g fill="#fffff9" fill-opacity="1"><g transform="translate(130.756764, 82.121197)"><g><path d="M 3.53125 -20.875 C 3.988281 -20.875 4.382812 -20.710938 4.71875 -20.390625 C 5.050781 -20.066406 5.21875 -19.664062 5.21875 -19.1875 C 5.21875 -18.695312 5.0625 -18.296875 4.75 -17.984375 C 4.4375 -17.671875 4.03125 -17.515625 3.53125 -17.515625 C 3.039062 -17.515625 2.640625 -17.671875 2.328125 -17.984375 C 2.015625 -18.296875 1.859375 -18.695312 1.859375 -19.1875 C 1.859375 -19.664062 2.023438 -20.066406 2.359375 -20.390625 C 2.691406 -20.710938 3.082031 -20.875 3.53125 -20.875 Z M 4.6875 -13.796875 L 4.6875 0 L 2.390625 0 L 2.390625 -13.796875 Z M 4.6875 -13.796875 "/></g></g></g><g fill="#fffff9" fill-opacity="1"><g transform="translate(137.832051, 82.121197)"><g><path d="M 8.21875 -22.640625 C 8.988281 -22.640625 9.59375 -22.523438 10.03125 -22.296875 L 9.703125 -20.21875 C 9.148438 -20.414062 8.628906 -20.515625 8.140625 -20.515625 C 7.171875 -20.515625 6.515625 -20.234375 6.171875 -19.671875 C 5.828125 -19.117188 5.65625 -18.191406 5.65625 -16.890625 L 5.65625 -13.796875 L 9.015625 -13.796875 L 9.015625 -11.859375 L 5.65625 -11.859375 L 5.65625 0 L 3.359375 0 L 3.359375 -11.859375 L 0.359375 -11.859375 L 0.359375 -13.796875 L 3.359375 -13.796875 L 3.359375 -16.921875 C 3.359375 -20.734375 4.976562 -22.640625 8.21875 -22.640625 Z M 8.21875 -22.640625 "/></g></g></g><g fill="#fffff9" fill-opacity="1"><g transform="translate(147.118358, 82.121197)"><g><path d="M 4.484375 -13.796875 L 4.484375 -5.421875 C 4.484375 -4.359375 4.734375 -3.488281 5.234375 -2.8125 C 5.734375 -2.132812 6.535156 -1.785156 7.640625 -1.765625 C 9.054688 -1.765625 10.117188 -2.234375 10.828125 -3.171875 C 11.546875 -4.117188 11.90625 -5.378906 11.90625 -6.953125 L 11.90625 -13.796875 L 14.21875 -13.796875 L 14.21875 -3.0625 C 14.226562 -2.507812 14.265625 -1.488281 14.328125 0 L 12.140625 0 C 12.128906 -0.945312 12.113281 -1.703125 12.09375 -2.265625 L 12.03125 -2.265625 C 11.675781 -1.503906 11.082031 -0.875 10.25 -0.375 C 9.414062 0.113281 8.46875 0.359375 7.40625 0.359375 C 5.707031 0.335938 4.410156 -0.164062 3.515625 -1.15625 C 2.628906 -2.15625 2.1875 -3.488281 2.1875 -5.15625 L 2.1875 -13.796875 Z M 4.484375 -13.796875 "/></g></g></g><g fill="#fffff9" fill-opacity="1"><g transform="translate(163.509429, 82.121197)"><g><path d="M 4.6875 -22.296875 L 4.6875 0 L 2.390625 0 L 2.390625 -22.296875 Z M 4.6875 -22.296875 "/></g></g></g><g clip-path="url(#65724aab14)"><path stroke-linecap="butt" transform="matrix(0.7496, 0, 0, 0.7496, -0.00000000000004261, 0.0400041)" fill="none" stroke-linejoin="miter" d="M 0.000000000000056843 1.999811 L 299.998567 1.999811 " stroke="#ffffff" stroke-width="4" stroke-opacity="1" stroke-miterlimit="4"/></g><g clip-path="url(#2968630487)"><path stroke-linecap="butt" transform="matrix(0.7496, 0, 0, 0.7496, 0, 1.539204)" fill="none" stroke-linejoin="miter" d="M 0 2.000879 L 299.998567 2.000879 " stroke="#ff3131" stroke-width="4" stroke-opacity="1" stroke-miterlimit="4"/></g></svg>