<svg xmlns="http://www.w3.org/2000/svg" xmlns:xlink="http://www.w3.org/1999/xlink" width="300" zoomAndPan="magnify" viewBox="0 0 224.87999 149.999998" height="200" preserveAspectRatio="xMidYMid meet" version="1.0"><defs><g/><clipPath id="830781c359"><path d="M 0 0.0390625 L 224.761719 0.0390625 L 224.761719 149.960938 L 0 149.960938 Z M 0 0.0390625 " clip-rule="nonzero"/></clipPath><clipPath id="9ba693818c"><path d="M 0 0.0390625 L 224.761719 0.0390625 L 224.761719 4 L 0 4 Z M 0 0.0390625 " clip-rule="nonzero"/></clipPath><clipPath id="169ce5d3b0"><path d="M 0 3 L 224.761719 3 L 224.761719 7 L 0 7 Z M 0 3 " clip-rule="nonzero"/></clipPath></defs><g clip-path="url(#830781c359)"><path fill="#ffffff" d="M 0 0.0390625 L 224.878906 0.0390625 L 224.878906 149.960938 L 0 149.960938 Z M 0 0.0390625 " fill-opacity="1" fill-rule="nonzero"/><path fill="#ff3131" d="M 0 0.0390625 L 224.878906 0.0390625 L 224.878906 149.960938 L 0 149.960938 Z M 0 0.0390625 " fill-opacity="1" fill-rule="nonzero"/></g><g fill="#fffff9" fill-opacity="1"><g transform="translate(64.732308, 82.121197)"><g><path d="M 8.546875 -14.15625 C 10.734375 -14.15625 12.492188 -13.425781 13.828125 -11.96875 L 12 -10.34375 C 11.070312 -11.46875 9.910156 -12.03125 8.515625 -12.03125 C 7.085938 -12.03125 5.953125 -11.5625 5.109375 -10.625 C 4.273438 -9.695312 3.859375 -8.457031 3.859375 -6.90625 C 3.859375 -5.425781 4.304688 -4.203125 5.203125 -3.234375 C 6.097656 -2.273438 7.203125 -1.785156 8.515625 -1.765625 C 10.035156 -1.765625 11.207031 -2.335938 12.03125 -3.484375 L 13.734375 -1.859375 C 12.460938 -0.398438 10.722656 0.335938 8.515625 0.359375 C 6.410156 0.335938 4.703125 -0.328125 3.390625 -1.640625 C 2.085938 -2.960938 1.421875 -4.71875 1.390625 -6.90625 C 1.410156 -9.101562 2.097656 -10.859375 3.453125 -12.171875 C 4.804688 -13.492188 6.503906 -14.15625 8.546875 -14.15625 Z M 8.546875 -14.15625 "/></g></g></g><g fill="#fffff9" fill-opacity="1"><g transform="translate(78.941834, 82.121197)"><g><path d="M 20.671875 -18.25 L 20.875 -17.921875 C 20.71875 -17.003906 20.460938 -16.128906 20.109375 -15.296875 C 19.753906 -14.472656 19.226562 -13.78125 18.53125 -13.21875 C 17.832031 -12.664062 16.894531 -12.328125 15.71875 -12.203125 L 15.71875 0 L 13.59375 0 L 13.203125 -2.09375 L 13.09375 -2.09375 C 12.582031 -1.269531 11.878906 -0.664062 10.984375 -0.28125 C 10.085938 0.101562 9.140625 0.296875 8.140625 0.296875 C 6.210938 0.296875 4.757812 -0.160156 3.78125 -1.078125 C 2.8125 -1.992188 2.328125 -3.453125 2.328125 -5.453125 L 2.328125 -15.78125 L 4.953125 -15.78125 L 4.953125 -5.625 C 4.953125 -3.113281 6.125 -1.859375 8.46875 -1.859375 C 10.21875 -1.859375 11.429688 -2.347656 12.109375 -3.328125 C 12.785156 -4.316406 13.125 -5.734375 13.125 -7.578125 L 13.125 -15.78125 L 15.71875 -15.78125 L 15.71875 -14.03125 C 16.65625 -14.1875 17.253906 -14.644531 17.515625 -15.40625 C 17.785156 -16.164062 17.921875 -17.113281 17.921875 -18.25 Z M 20.671875 -18.25 "/></g></g></g><g fill="#fffff9" fill-opacity="1"><g transform="translate(98.811585, 82.121197)"><g><path d="M 16.25 -7.9375 C 16.25 -5.320312 15.582031 -3.296875 14.25 -1.859375 C 12.925781 -0.421875 11.132812 0.296875 8.875 0.296875 C 7.476562 0.296875 6.234375 -0.0195312 5.140625 -0.65625 C 4.054688 -1.300781 3.195312 -2.238281 2.5625 -3.46875 C 1.9375 -4.695312 1.625 -6.1875 1.625 -7.9375 C 1.625 -10.550781 2.273438 -12.5625 3.578125 -13.96875 C 4.890625 -15.382812 6.6875 -16.09375 8.96875 -16.09375 C 9.988281 -16.09375 10.941406 -15.914062 11.828125 -15.5625 C 12.710938 -15.207031 13.46875 -14.707031 14.09375 -14.0625 C 14.976562 -14.320312 15.523438 -14.832031 15.734375 -15.59375 C 15.953125 -16.363281 16.0625 -17.238281 16.0625 -18.21875 L 18.84375 -18.21875 L 19.046875 -17.890625 C 18.773438 -16.535156 18.359375 -15.398438 17.796875 -14.484375 C 17.234375 -13.578125 16.382812 -12.914062 15.25 -12.5 C 15.5625 -11.875 15.804688 -11.179688 15.984375 -10.421875 C 16.160156 -9.660156 16.25 -8.832031 16.25 -7.9375 Z M 4.3125 -7.9375 C 4.3125 -5.945312 4.671875 -4.4375 5.390625 -3.40625 C 6.117188 -2.375 7.300781 -1.859375 8.9375 -1.859375 C 10.5625 -1.859375 11.738281 -2.375 12.46875 -3.40625 C 13.195312 -4.4375 13.5625 -5.945312 13.5625 -7.9375 C 13.5625 -9.914062 13.1875 -11.40625 12.4375 -12.40625 C 11.695312 -13.414062 10.519531 -13.921875 8.90625 -13.921875 C 7.289062 -13.921875 6.117188 -13.414062 5.390625 -12.40625 C 4.671875 -11.40625 4.3125 -9.914062 4.3125 -7.9375 Z M 8.171875 -22.578125 C 8.378906 -22.148438 8.644531 -21.664062 8.96875 -21.125 C 9.300781 -20.582031 9.644531 -20.050781 10 -19.53125 C 10.363281 -19.007812 10.695312 -18.570312 11 -18.21875 L 11 -17.875 L 9.25 -17.875 C 8.800781 -18.21875 8.289062 -18.671875 7.71875 -19.234375 C 7.15625 -19.796875 6.628906 -20.359375 6.140625 -20.921875 C 5.660156 -21.484375 5.300781 -21.941406 5.0625 -22.296875 L 5.0625 -22.578125 Z M 8.171875 -22.578125 "/></g></g></g><g fill="#fffff9" fill-opacity="1"><g transform="translate(116.971472, 82.121197)"><g><path d="M 3.53125 -20.875 C 3.988281 -20.875 4.382812 -20.710938 4.71875 -20.390625 C 5.050781 -20.066406 5.21875 -19.664062 5.21875 -19.1875 C 5.21875 -18.695312 5.0625 -18.296875 4.75 -17.984375 C 4.4375 -17.671875 4.03125 -17.515625 3.53125 -17.515625 C 3.039062 -17.515625 2.640625 -17.671875 2.328125 -17.984375 C 2.015625 -18.296875 1.859375 -18.695312 1.859375 -19.1875 C 1.859375 -19.664062 2.023438 -20.066406 2.359375 -20.390625 C 2.691406 -20.710938 3.082031 -20.875 3.53125 -20.875 Z M 4.6875 -13.796875 L 4.6875 0 L 2.390625 0 L 2.390625 -13.796875 Z M 4.6875 -13.796875 "/></g></g></g><g fill="#fffff9" fill-opacity="1"><g transform="translate(124.046759, 82.121197)"><g/></g></g><g fill="#fffff9" fill-opacity="1"><g transform="translate(132.242294, 82.121197)"><g><path d="M 5.65625 -17.71875 L 5.65625 -13.796875 L 9.734375 -13.796875 L 9.734375 -11.859375 L 5.65625 -11.859375 L 5.65625 -4.484375 C 5.65625 -3.378906 5.832031 -2.648438 6.1875 -2.296875 C 6.539062 -1.941406 7.050781 -1.765625 7.71875 -1.765625 C 8.488281 -1.765625 9.171875 -1.921875 9.765625 -2.234375 L 9.84375 -0.140625 C 9.0625 0.191406 8.171875 0.359375 7.171875 0.359375 C 5.753906 0.359375 4.765625 0.0078125 4.203125 -0.6875 C 3.640625 -1.382812 3.359375 -2.53125 3.359375 -4.125 L 3.359375 -11.859375 L 0.359375 -11.859375 L 0.359375 -13.796875 L 3.359375 -13.796875 L 3.359375 -17.71875 Z M 5.65625 -17.71875 "/></g></g></g><g fill="#fffff9" fill-opacity="1"><g transform="translate(142.619374, 82.121197)"><g><path d="M 8.75 -14.15625 C 10.894531 -14.15625 12.644531 -13.488281 14 -12.15625 C 15.363281 -10.832031 16.070312 -9.082031 16.125 -6.90625 C 16.125 -4.800781 15.4375 -3.070312 14.0625 -1.71875 C 12.6875 -0.375 10.914062 0.316406 8.75 0.359375 C 6.59375 0.359375 4.832031 -0.320312 3.46875 -1.6875 C 2.113281 -3.0625 1.421875 -4.800781 1.390625 -6.90625 C 1.390625 -9.019531 2.078125 -10.75 3.453125 -12.09375 C 4.828125 -13.445312 6.59375 -14.132812 8.75 -14.15625 Z M 3.859375 -6.90625 C 3.859375 -5.382812 4.316406 -4.15625 5.234375 -3.21875 C 6.148438 -2.289062 7.320312 -1.804688 8.75 -1.765625 C 10.1875 -1.765625 11.359375 -2.238281 12.265625 -3.1875 C 13.171875 -4.144531 13.632812 -5.382812 13.65625 -6.90625 C 13.65625 -8.394531 13.195312 -9.617188 12.28125 -10.578125 C 11.363281 -11.546875 10.179688 -12.03125 8.734375 -12.03125 C 7.316406 -12.03125 6.15625 -11.550781 5.25 -10.59375 C 4.34375 -9.644531 3.878906 -8.414062 3.859375 -6.90625 Z M 3.859375 -6.90625 "/></g></g></g><g clip-path="url(#9ba693818c)"><path stroke-linecap="butt" transform="matrix(0.7496, 0, 0, 0.7496, -0.00000000000004261, 0.0400041)" fill="none" stroke-linejoin="miter" d="M 0.000000000000056843 1.999811 L 299.998567 1.999811 " stroke="#ffffff" stroke-width="4" stroke-opacity="1" stroke-miterlimit="4"/></g><g clip-path="url(#169ce5d3b0)"><path stroke-linecap="butt" transform="matrix(0.7496, 0, 0, 0.7496, 0, 3.038404)" fill="none" stroke-linejoin="miter" d="M 0 2.001946 L 299.998567 2.001946 " stroke="#ffde59" stroke-width="4" stroke-opacity="1" stroke-miterlimit="4"/></g></svg>