<svg xmlns="http://www.w3.org/2000/svg" xmlns:xlink="http://www.w3.org/1999/xlink" width="300" zoomAndPan="magnify" viewBox="0 0 224.87999 149.999998" height="200" preserveAspectRatio="xMidYMid meet" version="1.0"><defs><g/><clipPath id="9edfe6e216"><path d="M 0 0.0390625 L 224.761719 0.0390625 L 224.761719 149.960938 L 0 149.960938 Z M 0 0.0390625 " clip-rule="nonzero"/></clipPath><clipPath id="6bfb37d650"><path d="M 0 0.0390625 L 224.761719 0.0390625 L 224.761719 4 L 0 4 Z M 0 0.0390625 " clip-rule="nonzero"/></clipPath><clipPath id="252026eef8"><path d="M 0 3 L 224.761719 3 L 224.761719 7 L 0 7 Z M 0 3 " clip-rule="nonzero"/></clipPath></defs><g clip-path="url(#9edfe6e216)"><path fill="#ffffff" d="M 0 0.0390625 L 224.878906 0.0390625 L 224.878906 149.960938 L 0 149.960938 Z M 0 0.0390625 " fill-opacity="1" fill-rule="nonzero"/><path fill="#ff3131" d="M 0 0.0390625 L 224.878906 0.0390625 L 224.878906 149.960938 L 0 149.960938 Z M 0 0.0390625 " fill-opacity="1" fill-rule="nonzero"/></g><g fill="#fffff9" fill-opacity="1"><g transform="translate(93.053131, 82.121197)"><g><path d="M 4.484375 -22.296875 L 4.484375 -11.875 L 4.546875 -11.875 C 4.953125 -12.570312 5.554688 -13.125 6.359375 -13.53125 C 7.171875 -13.945312 8.050781 -14.15625 9 -14.15625 C 10.726562 -14.15625 12.03125 -13.648438 12.90625 -12.640625 C 13.78125 -11.640625 14.21875 -10.304688 14.21875 -8.640625 L 14.21875 0 L 11.90625 0 L 11.90625 -8.375 C 11.90625 -9.4375 11.660156 -10.304688 11.171875 -10.984375 C 10.679688 -11.660156 9.875 -12.007812 8.75 -12.03125 C 7.34375 -12.03125 6.28125 -11.5625 5.5625 -10.625 C 4.84375 -9.695312 4.484375 -8.4375 4.484375 -6.84375 L 4.484375 0 L 2.1875 0 L 2.1875 -22.296875 Z M 4.484375 -22.296875 "/></g></g></g><g fill="#fffff9" fill-opacity="1"><g transform="translate(109.444201, 82.121197)"><g><path d="M 7.484375 -14.15625 C 9.492188 -14.15625 10.953125 -13.679688 11.859375 -12.734375 C 12.773438 -11.796875 13.242188 -10.375 13.265625 -8.46875 L 13.265625 -2.265625 C 13.265625 -1.679688 13.332031 -0.925781 13.46875 0 L 11.265625 0 C 11.160156 -0.175781 11.109375 -0.863281 11.109375 -2.0625 L 11.0625 -2.0625 C 10.019531 -0.488281 8.503906 0.316406 6.515625 0.359375 C 5.003906 0.359375 3.769531 -0.0195312 2.8125 -0.78125 C 1.863281 -1.539062 1.390625 -2.53125 1.390625 -3.75 C 1.390625 -5.414062 2.078125 -6.632812 3.453125 -7.40625 C 4.828125 -8.1875 6.976562 -8.578125 9.90625 -8.578125 L 10.96875 -8.578125 L 10.96875 -8.96875 C 10.96875 -10.96875 9.828125 -11.988281 7.546875 -12.03125 C 5.898438 -12.03125 4.535156 -11.53125 3.453125 -10.53125 L 2 -12.03125 C 3.414062 -13.40625 5.242188 -14.113281 7.484375 -14.15625 Z M 3.859375 -3.984375 C 3.859375 -2.429688 4.875 -1.632812 6.90625 -1.59375 C 8.101562 -1.59375 9.078125 -1.972656 9.828125 -2.734375 C 10.585938 -3.503906 10.96875 -4.628906 10.96875 -6.109375 L 10.96875 -6.640625 L 8.4375 -6.640625 C 7.070312 -6.640625 5.972656 -6.421875 5.140625 -5.984375 C 4.304688 -5.554688 3.878906 -4.890625 3.859375 -3.984375 Z M 3.859375 -3.984375 "/></g></g></g><g fill="#fffff9" fill-opacity="1"><g transform="translate(124.744499, 82.121197)"><g><path d="M 3.53125 -20.875 C 3.988281 -20.875 4.382812 -20.710938 4.71875 -20.390625 C 5.050781 -20.066406 5.21875 -19.664062 5.21875 -19.1875 C 5.21875 -18.695312 5.0625 -18.296875 4.75 -17.984375 C 4.4375 -17.671875 4.03125 -17.515625 3.53125 -17.515625 C 3.039062 -17.515625 2.640625 -17.671875 2.328125 -17.984375 C 2.015625 -18.296875 1.859375 -18.695312 1.859375 -19.1875 C 1.859375 -19.664062 2.023438 -20.066406 2.359375 -20.390625 C 2.691406 -20.710938 3.082031 -20.875 3.53125 -20.875 Z M 4.6875 -13.796875 L 4.6875 0 L 2.390625 0 L 2.390625 -13.796875 Z M 4.6875 -13.796875 "/></g></g></g><g clip-path="url(#6bfb37d650)"><path stroke-linecap="butt" transform="matrix(0.7496, 0, 0, 0.7496, -0.00000000000004261, 0.0400041)" fill="none" stroke-linejoin="miter" d="M 0.000000000000056843 1.999811 L 299.998567 1.999811 " stroke="#ffffff" stroke-width="4" stroke-opacity="1" stroke-miterlimit="4"/></g><g clip-path="url(#252026eef8)"><path stroke-linecap="butt" transform="matrix(0.7496, 0, 0, 0.7496, 0, 3.038404)" fill="none" stroke-linejoin="miter" d="M 0 2.001946 L 299.998567 2.001946 " stroke="#ffde59" stroke-width="4" stroke-opacity="1" stroke-miterlimit="4"/></g></svg>