<svg xmlns="http://www.w3.org/2000/svg" xmlns:xlink="http://www.w3.org/1999/xlink" width="300" zoomAndPan="magnify" viewBox="0 0 224.87999 149.999998" height="200" preserveAspectRatio="xMidYMid meet" version="1.0"><defs><g/><clipPath id="1ba8d9d2ac"><path d="M 0 0.0390625 L 224.761719 0.0390625 L 224.761719 149.960938 L 0 149.960938 Z M 0 0.0390625 " clip-rule="nonzero"/></clipPath><clipPath id="bacc679a7e"><path d="M 0 0.0390625 L 224.761719 0.0390625 L 224.761719 4 L 0 4 Z M 0 0.0390625 " clip-rule="nonzero"/></clipPath><clipPath id="4db32c1d4a"><path d="M 0 3 L 224.761719 3 L 224.761719 7 L 0 7 Z M 0 3 " clip-rule="nonzero"/></clipPath></defs><g clip-path="url(#1ba8d9d2ac)"><path fill="#ffffff" d="M 0 0.0390625 L 224.878906 0.0390625 L 224.878906 149.960938 L 0 149.960938 Z M 0 0.0390625 " fill-opacity="1" fill-rule="nonzero"/><path fill="#ff3131" d="M 0 0.0390625 L 224.878906 0.0390625 L 224.878906 149.960938 L 0 149.960938 Z M 0 0.0390625 " fill-opacity="1" fill-rule="nonzero"/></g><g fill="#fffff9" fill-opacity="1"><g transform="translate(84.503006, 82.121197)"><g><path d="M 8.546875 -14.15625 C 10.734375 -14.15625 12.492188 -13.425781 13.828125 -11.96875 L 12 -10.34375 C 11.070312 -11.46875 9.910156 -12.03125 8.515625 -12.03125 C 7.085938 -12.03125 5.953125 -11.5625 5.109375 -10.625 C 4.273438 -9.695312 3.859375 -8.457031 3.859375 -6.90625 C 3.859375 -5.425781 4.304688 -4.203125 5.203125 -3.234375 C 6.097656 -2.273438 7.203125 -1.785156 8.515625 -1.765625 C 10.035156 -1.765625 11.207031 -2.335938 12.03125 -3.484375 L 13.734375 -1.859375 C 12.460938 -0.398438 10.722656 0.335938 8.515625 0.359375 C 6.410156 0.335938 4.703125 -0.328125 3.390625 -1.640625 C 2.085938 -2.960938 1.421875 -4.71875 1.390625 -6.90625 C 1.410156 -9.101562 2.097656 -10.859375 3.453125 -12.171875 C 4.804688 -13.492188 6.503906 -14.15625 8.546875 -14.15625 Z M 8.546875 -14.15625 "/></g></g></g><g fill="#fffff9" fill-opacity="1"><g transform="translate(98.712532, 82.121197)"><g><path d="M 8.484375 -16.0625 C 10.410156 -16.0625 11.835938 -15.640625 12.765625 -14.796875 C 13.691406 -13.953125 14.15625 -12.609375 14.15625 -10.765625 L 14.15625 0 L 12.265625 0 L 11.765625 -2.234375 L 11.640625 -2.234375 C 10.953125 -1.367188 10.222656 -0.726562 9.453125 -0.3125 C 8.691406 0.09375 7.65625 0.296875 6.34375 0.296875 C 4.90625 0.296875 3.710938 -0.078125 2.765625 -0.828125 C 1.828125 -1.585938 1.359375 -2.773438 1.359375 -4.390625 C 1.359375 -5.960938 1.976562 -7.175781 3.21875 -8.03125 C 4.457031 -8.882812 6.363281 -9.351562 8.9375 -9.4375 L 11.609375 -9.515625 L 11.609375 -10.46875 C 11.609375 -11.78125 11.320312 -12.691406 10.75 -13.203125 C 10.1875 -13.710938 9.382812 -13.96875 8.34375 -13.96875 C 7.519531 -13.96875 6.734375 -13.84375 5.984375 -13.59375 C 5.234375 -13.351562 4.535156 -13.078125 3.890625 -12.765625 L 3.09375 -14.71875 C 3.78125 -15.082031 4.59375 -15.394531 5.53125 -15.65625 C 6.476562 -15.925781 7.460938 -16.0625 8.484375 -16.0625 Z M 11.59375 -7.71875 L 9.265625 -7.640625 C 7.296875 -7.554688 5.929688 -7.238281 5.171875 -6.6875 C 4.421875 -6.144531 4.046875 -5.367188 4.046875 -4.359375 C 4.046875 -3.472656 4.3125 -2.820312 4.84375 -2.40625 C 5.382812 -2 6.078125 -1.796875 6.921875 -1.796875 C 8.242188 -1.796875 9.351562 -2.164062 10.25 -2.90625 C 11.144531 -3.644531 11.59375 -4.78125 11.59375 -6.3125 Z M 3.5 -20.671875 C 2.957031 -21.078125 2.429688 -21.53125 1.921875 -22.03125 C 1.421875 -22.539062 0.957031 -23.078125 0.53125 -23.640625 L 0.53125 -23.9375 L 3.09375 -23.9375 C 3.40625 -23.3125 3.691406 -22.785156 3.953125 -22.359375 C 4.222656 -21.941406 4.546875 -21.488281 4.921875 -21 L 4.921875 -20.671875 Z M 3.765625 -17.875 L 3.765625 -18.1875 C 4.265625 -18.757812 4.796875 -19.363281 5.359375 -20 C 5.929688 -20.644531 6.441406 -21.300781 6.890625 -21.96875 L 9.640625 -21.96875 C 10.085938 -21.300781 10.597656 -20.644531 11.171875 -20 C 11.742188 -19.363281 12.273438 -18.757812 12.765625 -18.1875 L 12.765625 -17.875 L 11.296875 -17.875 C 10.796875 -18.1875 10.289062 -18.546875 9.78125 -18.953125 C 9.269531 -19.367188 8.757812 -19.800781 8.25 -20.25 C 7.738281 -19.800781 7.226562 -19.367188 6.71875 -18.953125 C 6.207031 -18.546875 5.707031 -18.1875 5.21875 -17.875 Z M 3.765625 -17.875 "/></g></g></g><g fill="#fffff9" fill-opacity="1"><g transform="translate(115.251004, 82.121197)"><g><path d="M 9 -14.15625 C 11.09375 -14.15625 12.535156 -13.28125 13.328125 -11.53125 C 13.878906 -12.4375 14.5 -13.097656 15.1875 -13.515625 C 15.875 -13.941406 16.71875 -14.15625 17.71875 -14.15625 C 19.507812 -14.15625 20.828125 -13.6875 21.671875 -12.75 C 22.515625 -11.8125 22.9375 -10.398438 22.9375 -8.515625 L 22.9375 0 L 20.640625 0 L 20.640625 -8.34375 C 20.640625 -10.757812 19.519531 -11.988281 17.28125 -12.03125 C 16.238281 -12.03125 15.378906 -11.640625 14.703125 -10.859375 C 14.035156 -10.085938 13.703125 -9.148438 13.703125 -8.046875 L 13.703125 0 L 11.40625 0 L 11.40625 -7.984375 C 11.40625 -9.347656 11.207031 -10.363281 10.8125 -11.03125 C 10.425781 -11.695312 9.734375 -12.03125 8.734375 -12.03125 C 7.335938 -12.03125 6.28125 -11.5625 5.5625 -10.625 C 4.84375 -9.695312 4.484375 -8.40625 4.484375 -6.75 L 4.484375 0 L 2.1875 0 L 2.1875 -10.734375 C 2.164062 -11.421875 2.125 -12.441406 2.0625 -13.796875 L 4.25 -13.796875 C 4.289062 -12.441406 4.3125 -11.6875 4.3125 -11.53125 L 4.359375 -11.53125 C 4.734375 -12.3125 5.332031 -12.941406 6.15625 -13.421875 C 6.988281 -13.910156 7.9375 -14.15625 9 -14.15625 Z M 9 -14.15625 "/></g></g></g><g clip-path="url(#bacc679a7e)"><path stroke-linecap="butt" transform="matrix(0.7496, 0, 0, 0.7496, -0.00000000000004261, 0.0400041)" fill="none" stroke-linejoin="miter" d="M 0.000000000000056843 1.999811 L 299.998567 1.999811 " stroke="#ffffff" stroke-width="4" stroke-opacity="1" stroke-miterlimit="4"/></g><g clip-path="url(#4db32c1d4a)"><path stroke-linecap="butt" transform="matrix(0.7496, 0, 0, 0.7496, 0, 3.038404)" fill="none" stroke-linejoin="miter" d="M 0 2.001946 L 299.998567 2.001946 " stroke="#ffde59" stroke-width="4" stroke-opacity="1" stroke-miterlimit="4"/></g></svg>