<svg xmlns="http://www.w3.org/2000/svg" xmlns:xlink="http://www.w3.org/1999/xlink" width="300" zoomAndPan="magnify" viewBox="0 0 224.87999 149.999998" height="200" preserveAspectRatio="xMidYMid meet" version="1.0"><defs><g/><clipPath id="d590002b2c"><path d="M 0 0.0390625 L 224.761719 0.0390625 L 224.761719 149.960938 L 0 149.960938 Z M 0 0.0390625 " clip-rule="nonzero"/></clipPath><clipPath id="ee923451f4"><path d="M 0 0.0390625 L 224.761719 0.0390625 L 224.761719 4 L 0 4 Z M 0 0.0390625 " clip-rule="nonzero"/></clipPath><clipPath id="1bf83ced55"><path d="M 0 1 L 224.761719 1 L 224.761719 5 L 0 5 Z M 0 1 " clip-rule="nonzero"/></clipPath></defs><g clip-path="url(#d590002b2c)"><path fill="#ffffff" d="M 0 0.0390625 L 224.878906 0.0390625 L 224.878906 149.960938 L 0 149.960938 Z M 0 0.0390625 " fill-opacity="1" fill-rule="nonzero"/><path fill="#191919" d="M 0 0.0390625 L 224.878906 0.0390625 L 224.878906 149.960938 L 0 149.960938 Z M 0 0.0390625 " fill-opacity="1" fill-rule="nonzero"/></g><g fill="#fffff9" fill-opacity="1"><g transform="translate(73.961757, 82.121197)"><g><path d="M 7.515625 -20.40625 C 5.035156 -16.945312 3.78125 -12.972656 3.75 -8.484375 C 3.75 -6.328125 4.003906 -4.382812 4.515625 -2.65625 C 5.023438 -0.925781 6.023438 1.117188 7.515625 3.484375 L 5.921875 4.59375 C 4.523438 2.65625 3.457031 0.53125 2.71875 -1.78125 C 1.988281 -4.09375 1.625 -6.335938 1.625 -8.515625 C 1.625 -13.296875 3.054688 -17.648438 5.921875 -21.578125 Z M 7.515625 -20.40625 "/></g></g></g><g fill="#fffff9" fill-opacity="1"><g transform="translate(82.157293, 82.121197)"><g><path d="M 3.53125 -20.875 C 3.988281 -20.875 4.382812 -20.710938 4.71875 -20.390625 C 5.050781 -20.066406 5.21875 -19.664062 5.21875 -19.1875 C 5.21875 -18.695312 5.0625 -18.296875 4.75 -17.984375 C 4.4375 -17.671875 4.03125 -17.515625 3.53125 -17.515625 C 3.039062 -17.515625 2.640625 -17.671875 2.328125 -17.984375 C 2.015625 -18.296875 1.859375 -18.695312 1.859375 -19.1875 C 1.859375 -19.664062 2.023438 -20.066406 2.359375 -20.390625 C 2.691406 -20.710938 3.082031 -20.875 3.53125 -20.875 Z M 4.6875 -13.796875 L 4.6875 0 L 2.390625 0 L 2.390625 -13.796875 Z M 4.6875 -13.796875 "/></g></g></g><g fill="#fffff9" fill-opacity="1"><g transform="translate(89.23258, 82.121197)"><g><path d="M 2.265625 -21.578125 C 3.628906 -19.671875 4.6875 -17.585938 5.4375 -15.328125 C 6.195312 -13.066406 6.578125 -10.785156 6.578125 -8.484375 C 6.578125 -3.691406 5.140625 0.664062 2.265625 4.59375 L 0.671875 3.421875 C 3.148438 -0.0351562 4.410156 -4.015625 4.453125 -8.515625 C 4.453125 -10.640625 4.207031 -12.546875 3.71875 -14.234375 C 3.238281 -15.929688 2.222656 -18.007812 0.671875 -20.46875 Z M 2.265625 -21.578125 "/></g></g></g><g fill="#fffff9" fill-opacity="1"><g transform="translate(97.428115, 82.121197)"><g/></g></g><g fill="#fffff9" fill-opacity="1"><g transform="translate(105.62365, 82.121197)"><g><path d="M 4.6875 -22.296875 L 4.6875 0 L 2.390625 0 L 2.390625 -22.296875 Z M 4.6875 -22.296875 "/></g></g></g><g fill="#fffff9" fill-opacity="1"><g transform="translate(112.698938, 82.121197)"><g><path d="M 3.53125 -20.875 C 3.988281 -20.875 4.382812 -20.710938 4.71875 -20.390625 C 5.050781 -20.066406 5.21875 -19.664062 5.21875 -19.1875 C 5.21875 -18.695312 5.0625 -18.296875 4.75 -17.984375 C 4.4375 -17.671875 4.03125 -17.515625 3.53125 -17.515625 C 3.039062 -17.515625 2.640625 -17.671875 2.328125 -17.984375 C 2.015625 -18.296875 1.859375 -18.695312 1.859375 -19.1875 C 1.859375 -19.664062 2.023438 -20.066406 2.359375 -20.390625 C 2.691406 -20.710938 3.082031 -20.875 3.53125 -20.875 Z M 4.6875 -13.796875 L 4.6875 0 L 2.390625 0 L 2.390625 -13.796875 Z M 4.6875 -13.796875 "/></g></g></g><g fill="#fffff9" fill-opacity="1"><g transform="translate(119.774225, 82.121197)"><g><path d="M 4.484375 -22.296875 L 4.484375 -7.71875 L 10.765625 -13.796875 L 14.03125 -13.796875 L 7.375 -7.515625 L 14.71875 0 L 11.328125 0 L 4.484375 -7.25 L 4.484375 0 L 2.1875 0 L 2.1875 -22.296875 Z M 4.484375 -22.296875 "/></g></g></g><g fill="#fffff9" fill-opacity="1"><g transform="translate(134.514393, 82.121197)"><g><path d="M 8.46875 -14.15625 C 10.507812 -14.15625 12.101562 -13.507812 13.25 -12.21875 C 14.40625 -10.9375 14.988281 -9.113281 15 -6.75 L 15 -6.1875 L 3.859375 -6.1875 C 3.984375 -4.914062 4.46875 -3.863281 5.3125 -3.03125 C 6.15625 -2.207031 7.1875 -1.785156 8.40625 -1.765625 C 10.269531 -1.765625 11.722656 -2.460938 12.765625 -3.859375 L 14.5 -2.5 C 13.78125 -1.5625 12.925781 -0.847656 11.9375 -0.359375 C 10.957031 0.117188 9.78125 0.359375 8.40625 0.359375 C 6.300781 0.359375 4.609375 -0.320312 3.328125 -1.6875 C 2.054688 -3.0625 1.410156 -4.800781 1.390625 -6.90625 C 1.390625 -8.988281 2.039062 -10.707031 3.34375 -12.0625 C 4.65625 -13.414062 6.363281 -14.113281 8.46875 -14.15625 Z M 12.53125 -8.140625 C 12.46875 -9.335938 12.078125 -10.285156 11.359375 -10.984375 C 10.648438 -11.679688 9.644531 -12.03125 8.34375 -12.03125 C 7.164062 -12.03125 6.171875 -11.695312 5.359375 -11.03125 C 4.554688 -10.363281 4.054688 -9.398438 3.859375 -8.140625 Z M 12.53125 -8.140625 "/></g></g></g><g clip-path="url(#ee923451f4)"><path stroke-linecap="butt" transform="matrix(0.7496, 0, 0, 0.7496, -0.00000000000004261, 0.0400041)" fill="none" stroke-linejoin="miter" d="M 0.000000000000056843 1.999811 L 299.998567 1.999811 " stroke="#ffffff" stroke-width="4" stroke-opacity="1" stroke-miterlimit="4"/></g><g clip-path="url(#1bf83ced55)"><path stroke-linecap="butt" transform="matrix(0.7496, 0, 0, 0.7496, 0, 1.539204)" fill="none" stroke-linejoin="miter" d="M 0 2.000879 L 299.998567 2.000879 " stroke="#ff3131" stroke-width="4" stroke-opacity="1" stroke-miterlimit="4"/></g></svg>