<svg xmlns="http://www.w3.org/2000/svg" xmlns:xlink="http://www.w3.org/1999/xlink" width="300" zoomAndPan="magnify" viewBox="0 0 224.87999 149.999998" height="200" preserveAspectRatio="xMidYMid meet" version="1.0"><defs><g/><clipPath id="684c2e21ff"><path d="M 0 0.0390625 L 224.761719 0.0390625 L 224.761719 149.960938 L 0 149.960938 Z M 0 0.0390625 " clip-rule="nonzero"/></clipPath><clipPath id="a855998aab"><path d="M 0 0.0390625 L 224.761719 0.0390625 L 224.761719 4 L 0 4 Z M 0 0.0390625 " clip-rule="nonzero"/></clipPath><clipPath id="f1d8b3c921"><path d="M 0 3 L 224.761719 3 L 224.761719 7 L 0 7 Z M 0 3 " clip-rule="nonzero"/></clipPath></defs><g clip-path="url(#684c2e21ff)"><path fill="#ffffff" d="M 0 0.0390625 L 224.878906 0.0390625 L 224.878906 149.960938 L 0 149.960938 Z M 0 0.0390625 " fill-opacity="1" fill-rule="nonzero"/><path fill="#ff3131" d="M 0 0.0390625 L 224.878906 0.0390625 L 224.878906 149.960938 L 0 149.960938 Z M 0 0.0390625 " fill-opacity="1" fill-rule="nonzero"/></g><g fill="#fffff9" fill-opacity="1"><g transform="translate(90.300693, 82.121197)"><g><path d="M 6.390625 -14.15625 C 8.597656 -14.132812 10.164062 -13.296875 11.09375 -11.640625 L 9.171875 -10.375 C 8.503906 -11.476562 7.53125 -12.03125 6.25 -12.03125 C 5.476562 -12.03125 4.832031 -11.851562 4.3125 -11.5 C 3.789062 -11.144531 3.53125 -10.679688 3.53125 -10.109375 C 3.53125 -9.191406 4.679688 -8.523438 6.984375 -8.109375 C 8.640625 -7.816406 9.8125 -7.332031 10.5 -6.65625 C 11.1875 -5.988281 11.53125 -5.097656 11.53125 -3.984375 C 11.53125 -2.628906 11.023438 -1.566406 10.015625 -0.796875 C 9.015625 -0.0234375 7.679688 0.359375 6.015625 0.359375 C 4.710938 0.359375 3.644531 0.148438 2.8125 -0.265625 C 1.976562 -0.679688 1.257812 -1.332031 0.65625 -2.21875 L 2.484375 -3.625 C 3.046875 -2.9375 3.601562 -2.453125 4.15625 -2.171875 C 4.707031 -1.898438 5.328125 -1.765625 6.015625 -1.765625 C 6.898438 -1.765625 7.625 -1.957031 8.1875 -2.34375 C 8.757812 -2.726562 9.046875 -3.242188 9.046875 -3.890625 C 9.046875 -4.554688 8.742188 -5.054688 8.140625 -5.390625 C 7.546875 -5.722656 6.550781 -6.03125 5.15625 -6.3125 C 3.78125 -6.601562 2.78125 -7.039062 2.15625 -7.625 C 1.539062 -8.21875 1.234375 -9.035156 1.234375 -10.078125 C 1.234375 -11.242188 1.707031 -12.207031 2.65625 -12.96875 C 3.613281 -13.738281 4.859375 -14.132812 6.390625 -14.15625 Z M 6.390625 -14.15625 "/></g></g></g><g fill="#fffff9" fill-opacity="1"><g transform="translate(102.859317, 82.121197)"><g><path d="M 7.484375 -14.15625 C 9.492188 -14.15625 10.953125 -13.679688 11.859375 -12.734375 C 12.773438 -11.796875 13.242188 -10.375 13.265625 -8.46875 L 13.265625 -2.265625 C 13.265625 -1.679688 13.332031 -0.925781 13.46875 0 L 11.265625 0 C 11.160156 -0.175781 11.109375 -0.863281 11.109375 -2.0625 L 11.0625 -2.0625 C 10.019531 -0.488281 8.503906 0.316406 6.515625 0.359375 C 5.003906 0.359375 3.769531 -0.0195312 2.8125 -0.78125 C 1.863281 -1.539062 1.390625 -2.53125 1.390625 -3.75 C 1.390625 -5.414062 2.078125 -6.632812 3.453125 -7.40625 C 4.828125 -8.1875 6.976562 -8.578125 9.90625 -8.578125 L 10.96875 -8.578125 L 10.96875 -8.96875 C 10.96875 -10.96875 9.828125 -11.988281 7.546875 -12.03125 C 5.898438 -12.03125 4.535156 -11.53125 3.453125 -10.53125 L 2 -12.03125 C 3.414062 -13.40625 5.242188 -14.113281 7.484375 -14.15625 Z M 3.859375 -3.984375 C 3.859375 -2.429688 4.875 -1.632812 6.90625 -1.59375 C 8.101562 -1.59375 9.078125 -1.972656 9.828125 -2.734375 C 10.585938 -3.503906 10.96875 -4.628906 10.96875 -6.109375 L 10.96875 -6.640625 L 8.4375 -6.640625 C 7.070312 -6.640625 5.972656 -6.421875 5.140625 -5.984375 C 4.304688 -5.554688 3.878906 -4.890625 3.859375 -3.984375 Z M 11.9375 -21.34375 L 7.71875 -17.09375 L 5.625 -17.09375 L 8.6875 -21.34375 Z M 11.9375 -21.34375 "/></g></g></g><g fill="#fffff9" fill-opacity="1"><g transform="translate(118.159615, 82.121197)"><g><path d="M 4.484375 -13.796875 L 4.484375 -5.421875 C 4.484375 -4.359375 4.734375 -3.488281 5.234375 -2.8125 C 5.734375 -2.132812 6.535156 -1.785156 7.640625 -1.765625 C 9.054688 -1.765625 10.117188 -2.234375 10.828125 -3.171875 C 11.546875 -4.117188 11.90625 -5.378906 11.90625 -6.953125 L 11.90625 -13.796875 L 14.21875 -13.796875 L 14.21875 -3.0625 C 14.226562 -2.507812 14.265625 -1.488281 14.328125 0 L 12.140625 0 C 12.128906 -0.945312 12.113281 -1.703125 12.09375 -2.265625 L 12.03125 -2.265625 C 11.675781 -1.503906 11.082031 -0.875 10.25 -0.375 C 9.414062 0.113281 8.46875 0.359375 7.40625 0.359375 C 5.707031 0.335938 4.410156 -0.164062 3.515625 -1.15625 C 2.628906 -2.15625 2.1875 -3.488281 2.1875 -5.15625 L 2.1875 -13.796875 Z M 4.484375 -13.796875 "/></g></g></g><g clip-path="url(#a855998aab)"><path stroke-linecap="butt" transform="matrix(0.7496, 0, 0, 0.7496, -0.00000000000004261, 0.0400041)" fill="none" stroke-linejoin="miter" d="M 0.000000000000056843 1.999811 L 299.998567 1.999811 " stroke="#ffffff" stroke-width="4" stroke-opacity="1" stroke-miterlimit="4"/></g><g clip-path="url(#f1d8b3c921)"><path stroke-linecap="butt" transform="matrix(0.7496, 0, 0, 0.7496, 0, 3.038404)" fill="none" stroke-linejoin="miter" d="M 0 2.001946 L 299.998567 2.001946 " stroke="#ffde59" stroke-width="4" stroke-opacity="1" stroke-miterlimit="4"/></g></svg>