<svg xmlns="http://www.w3.org/2000/svg" xmlns:xlink="http://www.w3.org/1999/xlink" width="300" zoomAndPan="magnify" viewBox="0 0 224.87999 149.999998" height="200" preserveAspectRatio="xMidYMid meet" version="1.0"><defs><g/><clipPath id="e59f9291d1"><path d="M 0 0.0390625 L 224.761719 0.0390625 L 224.761719 149.960938 L 0 149.960938 Z M 0 0.0390625 " clip-rule="nonzero"/></clipPath><clipPath id="6195ee2241"><path d="M 0 0.0390625 L 224.761719 0.0390625 L 224.761719 4 L 0 4 Z M 0 0.0390625 " clip-rule="nonzero"/></clipPath><clipPath id="583c1721eb"><path d="M 0 1 L 224.761719 1 L 224.761719 5 L 0 5 Z M 0 1 " clip-rule="nonzero"/></clipPath></defs><g clip-path="url(#e59f9291d1)"><path fill="#ffffff" d="M 0 0.0390625 L 224.878906 0.0390625 L 224.878906 149.960938 L 0 149.960938 Z M 0 0.0390625 " fill-opacity="1" fill-rule="nonzero"/><path fill="#191919" d="M 0 0.0390625 L 224.878906 0.0390625 L 224.878906 149.960938 L 0 149.960938 Z M 0 0.0390625 " fill-opacity="1" fill-rule="nonzero"/></g><g fill="#fffff9" fill-opacity="1"><g transform="translate(73.92662, 82.121197)"><g><path d="M 7.515625 -20.40625 C 5.035156 -16.945312 3.78125 -12.972656 3.75 -8.484375 C 3.75 -6.328125 4.003906 -4.382812 4.515625 -2.65625 C 5.023438 -0.925781 6.023438 1.117188 7.515625 3.484375 L 5.921875 4.59375 C 4.523438 2.65625 3.457031 0.53125 2.71875 -1.78125 C 1.988281 -4.09375 1.625 -6.335938 1.625 -8.515625 C 1.625 -13.296875 3.054688 -17.648438 5.921875 -21.578125 Z M 7.515625 -20.40625 "/></g></g></g><g fill="#fffff9" fill-opacity="1"><g transform="translate(82.122155, 82.121197)"><g><path d="M 3.53125 -20.875 C 3.988281 -20.875 4.382812 -20.710938 4.71875 -20.390625 C 5.050781 -20.066406 5.21875 -19.664062 5.21875 -19.1875 C 5.21875 -18.695312 5.0625 -18.296875 4.75 -17.984375 C 4.4375 -17.671875 4.03125 -17.515625 3.53125 -17.515625 C 3.039062 -17.515625 2.640625 -17.671875 2.328125 -17.984375 C 2.015625 -18.296875 1.859375 -18.695312 1.859375 -19.1875 C 1.859375 -19.664062 2.023438 -20.066406 2.359375 -20.390625 C 2.691406 -20.710938 3.082031 -20.875 3.53125 -20.875 Z M 4.6875 -13.796875 L 4.6875 0 L 2.390625 0 L 2.390625 -13.796875 Z M 4.6875 -13.796875 "/></g></g></g><g fill="#fffff9" fill-opacity="1"><g transform="translate(89.197442, 82.121197)"><g><path d="M 2.265625 -21.578125 C 3.628906 -19.671875 4.6875 -17.585938 5.4375 -15.328125 C 6.195312 -13.066406 6.578125 -10.785156 6.578125 -8.484375 C 6.578125 -3.691406 5.140625 0.664062 2.265625 4.59375 L 0.671875 3.421875 C 3.148438 -0.0351562 4.410156 -4.015625 4.453125 -8.515625 C 4.453125 -10.640625 4.207031 -12.546875 3.71875 -14.234375 C 3.238281 -15.929688 2.222656 -18.007812 0.671875 -20.46875 Z M 2.265625 -21.578125 "/></g></g></g><g fill="#fffff9" fill-opacity="1"><g transform="translate(97.392978, 82.121197)"><g/></g></g><g fill="#fffff9" fill-opacity="1"><g transform="translate(105.588513, 82.121197)"><g><path d="M 4.484375 -13.796875 L 4.484375 -5.421875 C 4.484375 -4.359375 4.734375 -3.488281 5.234375 -2.8125 C 5.734375 -2.132812 6.535156 -1.785156 7.640625 -1.765625 C 9.054688 -1.765625 10.117188 -2.234375 10.828125 -3.171875 C 11.546875 -4.117188 11.90625 -5.378906 11.90625 -6.953125 L 11.90625 -13.796875 L 14.21875 -13.796875 L 14.21875 -3.0625 C 14.226562 -2.507812 14.265625 -1.488281 14.328125 0 L 12.140625 0 C 12.128906 -0.945312 12.113281 -1.703125 12.09375 -2.265625 L 12.03125 -2.265625 C 11.675781 -1.503906 11.082031 -0.875 10.25 -0.375 C 9.414062 0.113281 8.46875 0.359375 7.40625 0.359375 C 5.707031 0.335938 4.410156 -0.164062 3.515625 -1.15625 C 2.628906 -2.15625 2.1875 -3.488281 2.1875 -5.15625 L 2.1875 -13.796875 Z M 4.484375 -13.796875 "/></g></g></g><g fill="#fffff9" fill-opacity="1"><g transform="translate(121.979584, 82.121197)"><g><path d="M 6.390625 -14.15625 C 8.597656 -14.132812 10.164062 -13.296875 11.09375 -11.640625 L 9.171875 -10.375 C 8.503906 -11.476562 7.53125 -12.03125 6.25 -12.03125 C 5.476562 -12.03125 4.832031 -11.851562 4.3125 -11.5 C 3.789062 -11.144531 3.53125 -10.679688 3.53125 -10.109375 C 3.53125 -9.191406 4.679688 -8.523438 6.984375 -8.109375 C 8.640625 -7.816406 9.8125 -7.332031 10.5 -6.65625 C 11.1875 -5.988281 11.53125 -5.097656 11.53125 -3.984375 C 11.53125 -2.628906 11.023438 -1.566406 10.015625 -0.796875 C 9.015625 -0.0234375 7.679688 0.359375 6.015625 0.359375 C 4.710938 0.359375 3.644531 0.148438 2.8125 -0.265625 C 1.976562 -0.679688 1.257812 -1.332031 0.65625 -2.21875 L 2.484375 -3.625 C 3.046875 -2.9375 3.601562 -2.453125 4.15625 -2.171875 C 4.707031 -1.898438 5.328125 -1.765625 6.015625 -1.765625 C 6.898438 -1.765625 7.625 -1.957031 8.1875 -2.34375 C 8.757812 -2.726562 9.046875 -3.242188 9.046875 -3.890625 C 9.046875 -4.554688 8.742188 -5.054688 8.140625 -5.390625 C 7.546875 -5.722656 6.550781 -6.03125 5.15625 -6.3125 C 3.78125 -6.601562 2.78125 -7.039062 2.15625 -7.625 C 1.539062 -8.21875 1.234375 -9.035156 1.234375 -10.078125 C 1.234375 -11.242188 1.707031 -12.207031 2.65625 -12.96875 C 3.613281 -13.738281 4.859375 -14.132812 6.390625 -14.15625 Z M 6.390625 -14.15625 "/></g></g></g><g fill="#fffff9" fill-opacity="1"><g transform="translate(134.538208, 82.121197)"><g><path d="M 8.46875 -14.15625 C 10.507812 -14.15625 12.101562 -13.507812 13.25 -12.21875 C 14.40625 -10.9375 14.988281 -9.113281 15 -6.75 L 15 -6.1875 L 3.859375 -6.1875 C 3.984375 -4.914062 4.46875 -3.863281 5.3125 -3.03125 C 6.15625 -2.207031 7.1875 -1.785156 8.40625 -1.765625 C 10.269531 -1.765625 11.722656 -2.460938 12.765625 -3.859375 L 14.5 -2.5 C 13.78125 -1.5625 12.925781 -0.847656 11.9375 -0.359375 C 10.957031 0.117188 9.78125 0.359375 8.40625 0.359375 C 6.300781 0.359375 4.609375 -0.320312 3.328125 -1.6875 C 2.054688 -3.0625 1.410156 -4.800781 1.390625 -6.90625 C 1.390625 -8.988281 2.039062 -10.707031 3.34375 -12.0625 C 4.65625 -13.414062 6.363281 -14.113281 8.46875 -14.15625 Z M 12.53125 -8.140625 C 12.46875 -9.335938 12.078125 -10.285156 11.359375 -10.984375 C 10.648438 -11.679688 9.644531 -12.03125 8.34375 -12.03125 C 7.164062 -12.03125 6.171875 -11.695312 5.359375 -11.03125 C 4.554688 -10.363281 4.054688 -9.398438 3.859375 -8.140625 Z M 12.53125 -8.140625 "/></g></g></g><g clip-path="url(#6195ee2241)"><path stroke-linecap="butt" transform="matrix(0.7496, 0, 0, 0.7496, -0.00000000000004261, 0.0400041)" fill="none" stroke-linejoin="miter" d="M 0.000000000000056843 1.999811 L 299.998567 1.999811 " stroke="#ffffff" stroke-width="4" stroke-opacity="1" stroke-miterlimit="4"/></g><g clip-path="url(#583c1721eb)"><path stroke-linecap="butt" transform="matrix(0.7496, 0, 0, 0.7496, 0, 1.539204)" fill="none" stroke-linejoin="miter" d="M 0 2.000879 L 299.998567 2.000879 " stroke="#ff3131" stroke-width="4" stroke-opacity="1" stroke-miterlimit="4"/></g></svg>