<svg xmlns="http://www.w3.org/2000/svg" xmlns:xlink="http://www.w3.org/1999/xlink" width="300" zoomAndPan="magnify" viewBox="0 0 224.87999 149.999998" height="200" preserveAspectRatio="xMidYMid meet" version="1.0"><defs><g/><clipPath id="e1937dbaf0"><path d="M 0 0.0390625 L 224.761719 0.0390625 L 224.761719 149.960938 L 0 149.960938 Z M 0 0.0390625 " clip-rule="nonzero"/></clipPath><clipPath id="15a7698219"><path d="M 0 0.0390625 L 224.761719 0.0390625 L 224.761719 4 L 0 4 Z M 0 0.0390625 " clip-rule="nonzero"/></clipPath><clipPath id="c9a3aa5990"><path d="M 0 3 L 224.761719 3 L 224.761719 7 L 0 7 Z M 0 3 " clip-rule="nonzero"/></clipPath></defs><g clip-path="url(#e1937dbaf0)"><path fill="#ffffff" d="M 0 0.0390625 L 224.878906 0.0390625 L 224.878906 149.960938 L 0 149.960938 Z M 0 0.0390625 " fill-opacity="1" fill-rule="nonzero"/><path fill="#ff3131" d="M 0 0.0390625 L 224.878906 0.0390625 L 224.878906 149.960938 L 0 149.960938 Z M 0 0.0390625 " fill-opacity="1" fill-rule="nonzero"/></g><g fill="#fffff9" fill-opacity="1"><g transform="translate(77.182695, 82.121197)"><g><path d="M 5.65625 -17.71875 L 5.65625 -13.796875 L 9.734375 -13.796875 L 9.734375 -11.859375 L 5.65625 -11.859375 L 5.65625 -4.484375 C 5.65625 -3.378906 5.832031 -2.648438 6.1875 -2.296875 C 6.539062 -1.941406 7.050781 -1.765625 7.71875 -1.765625 C 8.488281 -1.765625 9.171875 -1.921875 9.765625 -2.234375 L 9.84375 -0.140625 C 9.0625 0.191406 8.171875 0.359375 7.171875 0.359375 C 5.753906 0.359375 4.765625 0.0078125 4.203125 -0.6875 C 3.640625 -1.382812 3.359375 -2.53125 3.359375 -4.125 L 3.359375 -11.859375 L 0.359375 -11.859375 L 0.359375 -13.796875 L 3.359375 -13.796875 L 3.359375 -17.71875 Z M 5.65625 -17.71875 "/></g></g></g><g fill="#fffff9" fill-opacity="1"><g transform="translate(87.559774, 82.121197)"><g><path d="M 16.25 -7.9375 C 16.25 -5.320312 15.582031 -3.296875 14.25 -1.859375 C 12.925781 -0.421875 11.132812 0.296875 8.875 0.296875 C 7.476562 0.296875 6.234375 -0.0195312 5.140625 -0.65625 C 4.054688 -1.300781 3.195312 -2.238281 2.5625 -3.46875 C 1.9375 -4.695312 1.625 -6.1875 1.625 -7.9375 C 1.625 -10.550781 2.273438 -12.5625 3.578125 -13.96875 C 4.890625 -15.382812 6.6875 -16.09375 8.96875 -16.09375 C 10.382812 -16.09375 11.640625 -15.773438 12.734375 -15.140625 C 13.835938 -14.503906 14.695312 -13.582031 15.3125 -12.375 C 15.9375 -11.164062 16.25 -9.6875 16.25 -7.9375 Z M 4.3125 -7.9375 C 4.3125 -6.0625 4.675781 -4.578125 5.40625 -3.484375 C 6.144531 -2.398438 7.320312 -1.859375 8.9375 -1.859375 C 10.53125 -1.859375 11.695312 -2.398438 12.4375 -3.484375 C 13.1875 -4.578125 13.5625 -6.0625 13.5625 -7.9375 C 13.5625 -9.800781 13.1875 -11.265625 12.4375 -12.328125 C 11.695312 -13.390625 10.519531 -13.921875 8.90625 -13.921875 C 7.289062 -13.921875 6.117188 -13.390625 5.390625 -12.328125 C 4.671875 -11.265625 4.3125 -9.800781 4.3125 -7.9375 Z M 4.1875 -20.671875 C 3.644531 -21.078125 3.117188 -21.53125 2.609375 -22.03125 C 2.109375 -22.539062 1.644531 -23.078125 1.21875 -23.640625 L 1.21875 -23.9375 L 3.78125 -23.9375 C 4.09375 -23.3125 4.378906 -22.785156 4.640625 -22.359375 C 4.910156 -21.941406 5.234375 -21.488281 5.609375 -21 L 5.609375 -20.671875 Z M 4.453125 -17.875 L 4.453125 -18.1875 C 4.953125 -18.757812 5.484375 -19.363281 6.046875 -20 C 6.617188 -20.644531 7.128906 -21.300781 7.578125 -21.96875 L 10.328125 -21.96875 C 10.773438 -21.300781 11.285156 -20.644531 11.859375 -20 C 12.429688 -19.363281 12.960938 -18.757812 13.453125 -18.1875 L 13.453125 -17.875 L 11.984375 -17.875 C 11.484375 -18.1875 10.976562 -18.546875 10.46875 -18.953125 C 9.957031 -19.367188 9.445312 -19.800781 8.9375 -20.25 C 8.425781 -19.800781 7.914062 -19.367188 7.40625 -18.953125 C 6.894531 -18.546875 6.394531 -18.1875 5.90625 -17.875 Z M 4.453125 -17.875 "/></g></g></g><g fill="#fffff9" fill-opacity="1"><g transform="translate(105.395382, 82.121197)"><g><path d="M 3.53125 -20.875 C 3.988281 -20.875 4.382812 -20.710938 4.71875 -20.390625 C 5.050781 -20.066406 5.21875 -19.664062 5.21875 -19.1875 C 5.21875 -18.695312 5.0625 -18.296875 4.75 -17.984375 C 4.4375 -17.671875 4.03125 -17.515625 3.53125 -17.515625 C 3.039062 -17.515625 2.640625 -17.671875 2.328125 -17.984375 C 2.015625 -18.296875 1.859375 -18.695312 1.859375 -19.1875 C 1.859375 -19.664062 2.023438 -20.066406 2.359375 -20.390625 C 2.691406 -20.710938 3.082031 -20.875 3.53125 -20.875 Z M 4.6875 -13.796875 L 4.6875 0 L 2.390625 0 L 2.390625 -13.796875 Z M 4.6875 -13.796875 "/></g></g></g><g fill="#fffff9" fill-opacity="1"><g transform="translate(112.470669, 82.121197)"><g/></g></g><g fill="#fffff9" fill-opacity="1"><g transform="translate(120.666205, 82.121197)"><g><path d="M 5.65625 -17.71875 L 5.65625 -13.796875 L 9.734375 -13.796875 L 9.734375 -11.859375 L 5.65625 -11.859375 L 5.65625 -4.484375 C 5.65625 -3.378906 5.832031 -2.648438 6.1875 -2.296875 C 6.539062 -1.941406 7.050781 -1.765625 7.71875 -1.765625 C 8.488281 -1.765625 9.171875 -1.921875 9.765625 -2.234375 L 9.84375 -0.140625 C 9.0625 0.191406 8.171875 0.359375 7.171875 0.359375 C 5.753906 0.359375 4.765625 0.0078125 4.203125 -0.6875 C 3.640625 -1.382812 3.359375 -2.53125 3.359375 -4.125 L 3.359375 -11.859375 L 0.359375 -11.859375 L 0.359375 -13.796875 L 3.359375 -13.796875 L 3.359375 -17.71875 Z M 5.65625 -17.71875 "/></g></g></g><g fill="#fffff9" fill-opacity="1"><g transform="translate(131.043285, 82.121197)"><g><path d="M 8.609375 -16.09375 C 9.941406 -16.09375 11.097656 -15.796875 12.078125 -15.203125 C 13.066406 -14.617188 13.820312 -13.789062 14.34375 -12.71875 C 14.863281 -11.644531 15.125 -10.394531 15.125 -8.96875 L 15.125 -7.40625 L 4.3125 -7.40625 C 4.34375 -5.613281 4.796875 -4.25 5.671875 -3.3125 C 6.546875 -2.382812 7.769531 -1.921875 9.34375 -1.921875 C 10.34375 -1.921875 11.226562 -2.015625 12 -2.203125 C 12.78125 -2.390625 13.585938 -2.65625 14.421875 -3 L 14.421875 -0.734375 C 13.609375 -0.378906 12.804688 -0.117188 12.015625 0.046875 C 11.234375 0.210938 10.304688 0.296875 9.234375 0.296875 C 7.710938 0.296875 6.378906 -0.00390625 5.234375 -0.609375 C 4.097656 -1.222656 3.210938 -2.128906 2.578125 -3.328125 C 1.941406 -4.523438 1.625 -6.007812 1.625 -7.78125 C 1.625 -9.507812 1.910156 -10.992188 2.484375 -12.234375 C 3.066406 -13.472656 3.882812 -14.425781 4.9375 -15.09375 C 5.988281 -15.757812 7.210938 -16.09375 8.609375 -16.09375 Z M 8.578125 -13.96875 C 7.335938 -13.96875 6.359375 -13.570312 5.640625 -12.78125 C 4.921875 -11.988281 4.492188 -10.882812 4.359375 -9.46875 L 12.40625 -9.46875 C 12.394531 -10.800781 12.082031 -11.882812 11.46875 -12.71875 C 10.863281 -13.550781 9.898438 -13.96875 8.578125 -13.96875 Z M 9.75 -22.578125 C 9.988281 -22.148438 10.328125 -21.664062 10.765625 -21.125 C 11.210938 -20.582031 11.675781 -20.050781 12.15625 -19.53125 C 12.632812 -19.007812 13.0625 -18.5625 13.4375 -18.1875 L 13.4375 -17.875 L 11.609375 -17.875 C 11.097656 -18.1875 10.566406 -18.570312 10.015625 -19.03125 C 9.472656 -19.488281 8.9375 -19.984375 8.40625 -20.515625 C 7.875 -19.984375 7.34375 -19.488281 6.8125 -19.03125 C 6.28125 -18.570312 5.757812 -18.1875 5.25 -17.875 L 3.46875 -17.875 L 3.46875 -18.1875 C 3.820312 -18.5625 4.234375 -19.007812 4.703125 -19.53125 C 5.179688 -20.050781 5.632812 -20.582031 6.0625 -21.125 C 6.5 -21.664062 6.847656 -22.148438 7.109375 -22.578125 Z M 8.84375 5.1875 C 8.425781 5.1875 8.066406 5.046875 7.765625 4.765625 C 7.460938 4.492188 7.3125 4.082031 7.3125 3.53125 C 7.3125 2.96875 7.460938 2.550781 7.765625 2.28125 C 8.066406 2.019531 8.425781 1.890625 8.84375 1.890625 C 9.25 1.890625 9.601562 2.019531 9.90625 2.28125 C 10.21875 2.550781 10.375 2.96875 10.375 3.53125 C 10.375 4.082031 10.21875 4.492188 9.90625 4.765625 C 9.601562 5.046875 9.25 5.1875 8.84375 5.1875 Z M 8.84375 5.1875 "/></g></g></g><g clip-path="url(#15a7698219)"><path stroke-linecap="butt" transform="matrix(0.7496, 0, 0, 0.7496, -0.00000000000004261, 0.0400041)" fill="none" stroke-linejoin="miter" d="M 0.000000000000056843 1.999811 L 299.998567 1.999811 " stroke="#ffffff" stroke-width="4" stroke-opacity="1" stroke-miterlimit="4"/></g><g clip-path="url(#c9a3aa5990)"><path stroke-linecap="butt" transform="matrix(0.7496, 0, 0, 0.7496, 0, 3.038404)" fill="none" stroke-linejoin="miter" d="M 0 2.001946 L 299.998567 2.001946 " stroke="#ffde59" stroke-width="4" stroke-opacity="1" stroke-miterlimit="4"/></g></svg>