<svg xmlns="http://www.w3.org/2000/svg" xmlns:xlink="http://www.w3.org/1999/xlink" width="300" zoomAndPan="magnify" viewBox="0 0 224.87999 149.999998" height="200" preserveAspectRatio="xMidYMid meet" version="1.0"><defs><g/><clipPath id="03e5c7bee8"><path d="M 0 0.0390625 L 224.761719 0.0390625 L 224.761719 149.960938 L 0 149.960938 Z M 0 0.0390625 " clip-rule="nonzero"/></clipPath><clipPath id="f77278a788"><path d="M 0 0.0390625 L 224.761719 0.0390625 L 224.761719 4 L 0 4 Z M 0 0.0390625 " clip-rule="nonzero"/></clipPath><clipPath id="392981eca7"><path d="M 0 3 L 224.761719 3 L 224.761719 7 L 0 7 Z M 0 3 " clip-rule="nonzero"/></clipPath></defs><g clip-path="url(#03e5c7bee8)"><path fill="#ffffff" d="M 0 0.0390625 L 224.878906 0.0390625 L 224.878906 149.960938 L 0 149.960938 Z M 0 0.0390625 " fill-opacity="1" fill-rule="nonzero"/><path fill="#ff3131" d="M 0 0.0390625 L 224.878906 0.0390625 L 224.878906 149.960938 L 0 149.960938 Z M 0 0.0390625 " fill-opacity="1" fill-rule="nonzero"/></g><g fill="#fffff9" fill-opacity="1"><g transform="translate(86.915781, 82.121197)"><g><path d="M 15.953125 -22.296875 L 15.953125 -18.578125 L 18.078125 -18.578125 L 18.078125 -16.8125 L 15.953125 -16.8125 L 15.953125 0 L 13.65625 0 L 13.65625 -2.453125 L 13.59375 -2.453125 C 13.125 -1.566406 12.40625 -0.875 11.4375 -0.375 C 10.476562 0.113281 9.425781 0.359375 8.28125 0.359375 C 6.332031 0.359375 4.703125 -0.332031 3.390625 -1.71875 C 2.078125 -3.101562 1.410156 -4.832031 1.390625 -6.90625 C 1.390625 -9 2.0625 -10.722656 3.40625 -12.078125 C 4.75 -13.441406 6.492188 -14.132812 8.640625 -14.15625 C 10.617188 -14.15625 12.269531 -13.367188 13.59375 -11.796875 L 13.65625 -11.796875 L 13.65625 -16.8125 L 9.9375 -16.8125 L 9.9375 -18.578125 L 13.65625 -18.578125 L 13.65625 -22.296875 Z M 3.859375 -6.90625 C 3.859375 -5.382812 4.316406 -4.15625 5.234375 -3.21875 C 6.148438 -2.289062 7.320312 -1.804688 8.75 -1.765625 C 10.1875 -1.765625 11.351562 -2.238281 12.25 -3.1875 C 13.144531 -4.144531 13.613281 -5.382812 13.65625 -6.90625 C 13.65625 -8.394531 13.195312 -9.617188 12.28125 -10.578125 C 11.363281 -11.546875 10.179688 -12.03125 8.734375 -12.03125 C 7.316406 -12.03125 6.15625 -11.550781 5.25 -10.59375 C 4.34375 -9.644531 3.878906 -8.414062 3.859375 -6.90625 Z M 3.859375 -6.90625 "/></g></g></g><g fill="#fffff9" fill-opacity="1"><g transform="translate(104.928267, 82.121197)"><g><path d="M 8.609375 -16.09375 C 9.941406 -16.09375 11.097656 -15.796875 12.078125 -15.203125 C 13.066406 -14.617188 13.820312 -13.789062 14.34375 -12.71875 C 14.863281 -11.644531 15.125 -10.394531 15.125 -8.96875 L 15.125 -7.40625 L 4.3125 -7.40625 C 4.34375 -5.613281 4.796875 -4.25 5.671875 -3.3125 C 6.546875 -2.382812 7.769531 -1.921875 9.34375 -1.921875 C 10.34375 -1.921875 11.226562 -2.015625 12 -2.203125 C 12.78125 -2.390625 13.585938 -2.65625 14.421875 -3 L 14.421875 -0.734375 C 13.609375 -0.378906 12.804688 -0.117188 12.015625 0.046875 C 11.234375 0.210938 10.304688 0.296875 9.234375 0.296875 C 7.710938 0.296875 6.378906 -0.00390625 5.234375 -0.609375 C 4.097656 -1.222656 3.210938 -2.128906 2.578125 -3.328125 C 1.941406 -4.523438 1.625 -6.007812 1.625 -7.78125 C 1.625 -9.507812 1.910156 -10.992188 2.484375 -12.234375 C 3.066406 -13.472656 3.882812 -14.425781 4.9375 -15.09375 C 5.988281 -15.757812 7.210938 -16.09375 8.609375 -16.09375 Z M 8.578125 -13.96875 C 7.335938 -13.96875 6.359375 -13.570312 5.640625 -12.78125 C 4.921875 -11.988281 4.492188 -10.882812 4.359375 -9.46875 L 12.40625 -9.46875 C 12.394531 -10.800781 12.082031 -11.882812 11.46875 -12.71875 C 10.863281 -13.550781 9.898438 -13.96875 8.578125 -13.96875 Z M 11.890625 -21.015625 C 12.265625 -21.515625 12.582031 -21.96875 12.84375 -22.375 C 13.101562 -22.789062 13.394531 -23.3125 13.71875 -23.9375 L 16.3125 -23.9375 L 16.3125 -23.640625 C 15.875 -23.078125 15.398438 -22.539062 14.890625 -22.03125 C 14.378906 -21.53125 13.867188 -21.078125 13.359375 -20.671875 L 11.890625 -20.671875 Z M 13.03125 -17.875 L 11.59375 -17.875 C 11.101562 -18.1875 10.601562 -18.546875 10.09375 -18.953125 C 9.582031 -19.367188 9.066406 -19.800781 8.546875 -20.25 C 8.035156 -19.800781 7.523438 -19.367188 7.015625 -18.953125 C 6.503906 -18.546875 6.003906 -18.1875 5.515625 -17.875 L 4.078125 -17.875 L 4.078125 -18.21875 C 4.566406 -18.769531 5.09375 -19.367188 5.65625 -20.015625 C 6.226562 -20.671875 6.742188 -21.332031 7.203125 -22 L 9.90625 -22 C 10.363281 -21.332031 10.867188 -20.671875 11.421875 -20.015625 C 11.984375 -19.367188 12.519531 -18.769531 13.03125 -18.21875 Z M 13.03125 -17.875 "/></g></g></g><g fill="#fffff9" fill-opacity="1"><g transform="translate(121.555177, 82.121197)"><g><path d="M 8.96875 -14.15625 C 10.695312 -14.15625 12.003906 -13.648438 12.890625 -12.640625 C 13.773438 -11.640625 14.21875 -10.304688 14.21875 -8.640625 L 14.21875 0 L 11.90625 0 L 11.90625 -8.375 C 11.90625 -9.4375 11.660156 -10.304688 11.171875 -10.984375 C 10.679688 -11.660156 9.875 -12.007812 8.75 -12.03125 C 7.34375 -12.03125 6.28125 -11.5625 5.5625 -10.625 C 4.84375 -9.695312 4.484375 -8.40625 4.484375 -6.75 L 4.484375 0 L 2.1875 0 L 2.1875 -10.734375 C 2.1875 -10.828125 2.144531 -11.847656 2.0625 -13.796875 L 4.25 -13.796875 C 4.289062 -12.421875 4.3125 -11.664062 4.3125 -11.53125 L 4.359375 -11.53125 C 4.734375 -12.3125 5.335938 -12.941406 6.171875 -13.421875 C 7.015625 -13.910156 7.945312 -14.15625 8.96875 -14.15625 Z M 8.96875 -14.15625 "/></g></g></g><g clip-path="url(#f77278a788)"><path stroke-linecap="butt" transform="matrix(0.7496, 0, 0, 0.7496, -0.00000000000004261, 0.0400041)" fill="none" stroke-linejoin="miter" d="M 0.000000000000056843 1.999811 L 299.998567 1.999811 " stroke="#ffffff" stroke-width="4" stroke-opacity="1" stroke-miterlimit="4"/></g><g clip-path="url(#392981eca7)"><path stroke-linecap="butt" transform="matrix(0.7496, 0, 0, 0.7496, 0, 3.038404)" fill="none" stroke-linejoin="miter" d="M 0 2.001946 L 299.998567 2.001946 " stroke="#ffde59" stroke-width="4" stroke-opacity="1" stroke-miterlimit="4"/></g></svg>