<svg xmlns="http://www.w3.org/2000/svg" xmlns:xlink="http://www.w3.org/1999/xlink" width="300" zoomAndPan="magnify" viewBox="0 0 224.87999 149.999998" height="200" preserveAspectRatio="xMidYMid meet" version="1.0"><defs><g/><clipPath id="9d26a1cbf3"><path d="M 0 0.0390625 L 224.761719 0.0390625 L 224.761719 149.960938 L 0 149.960938 Z M 0 0.0390625 " clip-rule="nonzero"/></clipPath><clipPath id="ca0c0ed165"><path d="M 0 0.0390625 L 224.761719 0.0390625 L 224.761719 4 L 0 4 Z M 0 0.0390625 " clip-rule="nonzero"/></clipPath><clipPath id="16014ec269"><path d="M 0 1 L 224.761719 1 L 224.761719 5 L 0 5 Z M 0 1 " clip-rule="nonzero"/></clipPath></defs><g clip-path="url(#9d26a1cbf3)"><path fill="#ffffff" d="M 0 0.0390625 L 224.878906 0.0390625 L 224.878906 149.960938 L 0 149.960938 Z M 0 0.0390625 " fill-opacity="1" fill-rule="nonzero"/><path fill="#191919" d="M 0 0.0390625 L 224.878906 0.0390625 L 224.878906 149.960938 L 0 149.960938 Z M 0 0.0390625 " fill-opacity="1" fill-rule="nonzero"/></g><g fill="#fffff9" fill-opacity="1"><g transform="translate(49.576334, 82.121197)"><g><path d="M 7.515625 -20.40625 C 5.035156 -16.945312 3.78125 -12.972656 3.75 -8.484375 C 3.75 -6.328125 4.003906 -4.382812 4.515625 -2.65625 C 5.023438 -0.925781 6.023438 1.117188 7.515625 3.484375 L 5.921875 4.59375 C 4.523438 2.65625 3.457031 0.53125 2.71875 -1.78125 C 1.988281 -4.09375 1.625 -6.335938 1.625 -8.515625 C 1.625 -13.296875 3.054688 -17.648438 5.921875 -21.578125 Z M 7.515625 -20.40625 "/></g></g></g><g fill="#fffff9" fill-opacity="1"><g transform="translate(57.77187, 82.121197)"><g><path d="M 5.65625 -17.71875 L 5.65625 -13.796875 L 9.734375 -13.796875 L 9.734375 -11.859375 L 5.65625 -11.859375 L 5.65625 -4.484375 C 5.65625 -3.378906 5.832031 -2.648438 6.1875 -2.296875 C 6.539062 -1.941406 7.050781 -1.765625 7.71875 -1.765625 C 8.488281 -1.765625 9.171875 -1.921875 9.765625 -2.234375 L 9.84375 -0.140625 C 9.0625 0.191406 8.171875 0.359375 7.171875 0.359375 C 5.753906 0.359375 4.765625 0.0078125 4.203125 -0.6875 C 3.640625 -1.382812 3.359375 -2.53125 3.359375 -4.125 L 3.359375 -11.859375 L 0.359375 -11.859375 L 0.359375 -13.796875 L 3.359375 -13.796875 L 3.359375 -17.71875 Z M 5.65625 -17.71875 "/></g></g></g><g fill="#fffff9" fill-opacity="1"><g transform="translate(68.148949, 82.121197)"><g><path d="M 8.75 -14.15625 C 10.894531 -14.15625 12.644531 -13.488281 14 -12.15625 C 15.363281 -10.832031 16.070312 -9.082031 16.125 -6.90625 C 16.125 -4.800781 15.4375 -3.070312 14.0625 -1.71875 C 12.6875 -0.375 10.914062 0.316406 8.75 0.359375 C 6.59375 0.359375 4.832031 -0.320312 3.46875 -1.6875 C 2.113281 -3.0625 1.421875 -4.800781 1.390625 -6.90625 C 1.390625 -9.019531 2.078125 -10.75 3.453125 -12.09375 C 4.828125 -13.445312 6.59375 -14.132812 8.75 -14.15625 Z M 3.859375 -6.90625 C 3.859375 -5.382812 4.316406 -4.15625 5.234375 -3.21875 C 6.148438 -2.289062 7.320312 -1.804688 8.75 -1.765625 C 10.1875 -1.765625 11.359375 -2.238281 12.265625 -3.1875 C 13.171875 -4.144531 13.632812 -5.382812 13.65625 -6.90625 C 13.65625 -8.394531 13.195312 -9.617188 12.28125 -10.578125 C 11.363281 -11.546875 10.179688 -12.03125 8.734375 -12.03125 C 7.316406 -12.03125 6.15625 -11.550781 5.25 -10.59375 C 4.34375 -9.644531 3.878906 -8.414062 3.859375 -6.90625 Z M 3.859375 -6.90625 "/></g></g></g><g fill="#fffff9" fill-opacity="1"><g transform="translate(85.660268, 82.121197)"><g><path d="M 2.265625 -21.578125 C 3.628906 -19.671875 4.6875 -17.585938 5.4375 -15.328125 C 6.195312 -13.066406 6.578125 -10.785156 6.578125 -8.484375 C 6.578125 -3.691406 5.140625 0.664062 2.265625 4.59375 L 0.671875 3.421875 C 3.148438 -0.0351562 4.410156 -4.015625 4.453125 -8.515625 C 4.453125 -10.640625 4.207031 -12.546875 3.71875 -14.234375 C 3.238281 -15.929688 2.222656 -18.007812 0.671875 -20.46875 Z M 2.265625 -21.578125 "/></g></g></g><g fill="#fffff9" fill-opacity="1"><g transform="translate(93.855803, 82.121197)"><g/></g></g><g fill="#fffff9" fill-opacity="1"><g transform="translate(102.051338, 82.121197)"><g><path d="M 8.546875 -14.15625 C 10.734375 -14.15625 12.492188 -13.425781 13.828125 -11.96875 L 12 -10.34375 C 11.070312 -11.46875 9.910156 -12.03125 8.515625 -12.03125 C 7.085938 -12.03125 5.953125 -11.5625 5.109375 -10.625 C 4.273438 -9.695312 3.859375 -8.457031 3.859375 -6.90625 C 3.859375 -5.425781 4.304688 -4.203125 5.203125 -3.234375 C 6.097656 -2.273438 7.203125 -1.785156 8.515625 -1.765625 C 10.035156 -1.765625 11.207031 -2.335938 12.03125 -3.484375 L 13.734375 -1.859375 C 12.460938 -0.398438 10.722656 0.335938 8.515625 0.359375 C 6.410156 0.335938 4.703125 -0.328125 3.390625 -1.640625 C 2.085938 -2.960938 1.421875 -4.71875 1.390625 -6.90625 C 1.410156 -9.101562 2.097656 -10.859375 3.453125 -12.171875 C 4.804688 -13.492188 6.503906 -14.15625 8.546875 -14.15625 Z M 8.546875 -14.15625 "/></g></g></g><g fill="#fffff9" fill-opacity="1"><g transform="translate(116.260864, 82.121197)"><g><path d="M 8.75 -14.15625 C 10.894531 -14.15625 12.644531 -13.488281 14 -12.15625 C 15.363281 -10.832031 16.070312 -9.082031 16.125 -6.90625 C 16.125 -4.800781 15.4375 -3.070312 14.0625 -1.71875 C 12.6875 -0.375 10.914062 0.316406 8.75 0.359375 C 6.59375 0.359375 4.832031 -0.320312 3.46875 -1.6875 C 2.113281 -3.0625 1.421875 -4.800781 1.390625 -6.90625 C 1.390625 -9.019531 2.078125 -10.75 3.453125 -12.09375 C 4.828125 -13.445312 6.59375 -14.132812 8.75 -14.15625 Z M 3.859375 -6.90625 C 3.859375 -5.382812 4.316406 -4.15625 5.234375 -3.21875 C 6.148438 -2.289062 7.320312 -1.804688 8.75 -1.765625 C 10.1875 -1.765625 11.359375 -2.238281 12.265625 -3.1875 C 13.171875 -4.144531 13.632812 -5.382812 13.65625 -6.90625 C 13.65625 -8.394531 13.195312 -9.617188 12.28125 -10.578125 C 11.363281 -11.546875 10.179688 -12.03125 8.734375 -12.03125 C 7.316406 -12.03125 6.15625 -11.550781 5.25 -10.59375 C 4.34375 -9.644531 3.878906 -8.414062 3.859375 -6.90625 Z M 3.859375 -6.90625 "/></g></g></g><g fill="#fffff9" fill-opacity="1"><g transform="translate(133.772183, 82.121197)"><g><path d="M 9 -14.15625 C 11.09375 -14.15625 12.535156 -13.28125 13.328125 -11.53125 C 13.878906 -12.4375 14.5 -13.097656 15.1875 -13.515625 C 15.875 -13.941406 16.71875 -14.15625 17.71875 -14.15625 C 19.507812 -14.15625 20.828125 -13.6875 21.671875 -12.75 C 22.515625 -11.8125 22.9375 -10.398438 22.9375 -8.515625 L 22.9375 0 L 20.640625 0 L 20.640625 -8.34375 C 20.640625 -10.757812 19.519531 -11.988281 17.28125 -12.03125 C 16.238281 -12.03125 15.378906 -11.640625 14.703125 -10.859375 C 14.035156 -10.085938 13.703125 -9.148438 13.703125 -8.046875 L 13.703125 0 L 11.40625 0 L 11.40625 -7.984375 C 11.40625 -9.347656 11.207031 -10.363281 10.8125 -11.03125 C 10.425781 -11.695312 9.734375 -12.03125 8.734375 -12.03125 C 7.335938 -12.03125 6.28125 -11.5625 5.5625 -10.625 C 4.84375 -9.695312 4.484375 -8.40625 4.484375 -6.75 L 4.484375 0 L 2.1875 0 L 2.1875 -10.734375 C 2.164062 -11.421875 2.125 -12.441406 2.0625 -13.796875 L 4.25 -13.796875 C 4.289062 -12.441406 4.3125 -11.6875 4.3125 -11.53125 L 4.359375 -11.53125 C 4.734375 -12.3125 5.332031 -12.941406 6.15625 -13.421875 C 6.988281 -13.910156 7.9375 -14.15625 9 -14.15625 Z M 9 -14.15625 "/></g></g></g><g fill="#fffff9" fill-opacity="1"><g transform="translate(158.889431, 82.121197)"><g><path d="M 8.46875 -14.15625 C 10.507812 -14.15625 12.101562 -13.507812 13.25 -12.21875 C 14.40625 -10.9375 14.988281 -9.113281 15 -6.75 L 15 -6.1875 L 3.859375 -6.1875 C 3.984375 -4.914062 4.46875 -3.863281 5.3125 -3.03125 C 6.15625 -2.207031 7.1875 -1.785156 8.40625 -1.765625 C 10.269531 -1.765625 11.722656 -2.460938 12.765625 -3.859375 L 14.5 -2.5 C 13.78125 -1.5625 12.925781 -0.847656 11.9375 -0.359375 C 10.957031 0.117188 9.78125 0.359375 8.40625 0.359375 C 6.300781 0.359375 4.609375 -0.320312 3.328125 -1.6875 C 2.054688 -3.0625 1.410156 -4.800781 1.390625 -6.90625 C 1.390625 -8.988281 2.039062 -10.707031 3.34375 -12.0625 C 4.65625 -13.414062 6.363281 -14.113281 8.46875 -14.15625 Z M 12.53125 -8.140625 C 12.46875 -9.335938 12.078125 -10.285156 11.359375 -10.984375 C 10.648438 -11.679688 9.644531 -12.03125 8.34375 -12.03125 C 7.164062 -12.03125 6.171875 -11.695312 5.359375 -11.03125 C 4.554688 -10.363281 4.054688 -9.398438 3.859375 -8.140625 Z M 12.53125 -8.140625 "/></g></g></g><g clip-path="url(#ca0c0ed165)"><path stroke-linecap="butt" transform="matrix(0.7496, 0, 0, 0.7496, -0.00000000000004261, 0.0400041)" fill="none" stroke-linejoin="miter" d="M 0.000000000000056843 1.999811 L 299.998567 1.999811 " stroke="#ffffff" stroke-width="4" stroke-opacity="1" stroke-miterlimit="4"/></g><g clip-path="url(#16014ec269)"><path stroke-linecap="butt" transform="matrix(0.7496, 0, 0, 0.7496, 0, 1.539204)" fill="none" stroke-linejoin="miter" d="M 0 2.000879 L 299.998567 2.000879 " stroke="#ff3131" stroke-width="4" stroke-opacity="1" stroke-miterlimit="4"/></g></svg>