<svg xmlns="http://www.w3.org/2000/svg" xmlns:xlink="http://www.w3.org/1999/xlink" width="300" zoomAndPan="magnify" viewBox="0 0 224.87999 149.999998" height="200" preserveAspectRatio="xMidYMid meet" version="1.0"><defs><g/><clipPath id="9612af5122"><path d="M 0 0.0390625 L 224.761719 0.0390625 L 224.761719 149.960938 L 0 149.960938 Z M 0 0.0390625 " clip-rule="nonzero"/></clipPath><clipPath id="f369edfe5c"><path d="M 0 0.0390625 L 224.761719 0.0390625 L 224.761719 4 L 0 4 Z M 0 0.0390625 " clip-rule="nonzero"/></clipPath><clipPath id="6c1166b27a"><path d="M 0 3 L 224.761719 3 L 224.761719 7 L 0 7 Z M 0 3 " clip-rule="nonzero"/></clipPath></defs><g clip-path="url(#9612af5122)"><path fill="#ffffff" d="M 0 0.0390625 L 224.878906 0.0390625 L 224.878906 149.960938 L 0 149.960938 Z M 0 0.0390625 " fill-opacity="1" fill-rule="nonzero"/><path fill="#ff3131" d="M 0 0.0390625 L 224.878906 0.0390625 L 224.878906 149.960938 L 0 149.960938 Z M 0 0.0390625 " fill-opacity="1" fill-rule="nonzero"/></g><g fill="#fffff9" fill-opacity="1"><g transform="translate(97.41018, 82.121197)"><g><path d="M 3.796875 -13.796875 L 7.453125 -8.84375 L 10.90625 -13.796875 L 13.703125 -13.796875 L 8.96875 -7.4375 L 14.65625 0 L 11.609375 0 L 7.25 -5.953125 L 2.953125 0 L 0.09375 0 L 5.75 -7.4375 L 0.796875 -13.796875 Z M 3.796875 -13.796875 "/></g></g></g><g fill="#fffff9" fill-opacity="1"><g transform="translate(112.150349, 82.121197)"><g><path d="M 7.484375 -14.15625 C 9.492188 -14.15625 10.953125 -13.679688 11.859375 -12.734375 C 12.773438 -11.796875 13.242188 -10.375 13.265625 -8.46875 L 13.265625 -2.265625 C 13.265625 -1.679688 13.332031 -0.925781 13.46875 0 L 11.265625 0 C 11.160156 -0.175781 11.109375 -0.863281 11.109375 -2.0625 L 11.0625 -2.0625 C 10.019531 -0.488281 8.503906 0.316406 6.515625 0.359375 C 5.003906 0.359375 3.769531 -0.0195312 2.8125 -0.78125 C 1.863281 -1.539062 1.390625 -2.53125 1.390625 -3.75 C 1.390625 -5.414062 2.078125 -6.632812 3.453125 -7.40625 C 4.828125 -8.1875 6.976562 -8.578125 9.90625 -8.578125 L 10.96875 -8.578125 L 10.96875 -8.96875 C 10.96875 -10.96875 9.828125 -11.988281 7.546875 -12.03125 C 5.898438 -12.03125 4.535156 -11.53125 3.453125 -10.53125 L 2 -12.03125 C 3.414062 -13.40625 5.242188 -14.113281 7.484375 -14.15625 Z M 3.859375 -3.984375 C 3.859375 -2.429688 4.875 -1.632812 6.90625 -1.59375 C 8.101562 -1.59375 9.078125 -1.972656 9.828125 -2.734375 C 10.585938 -3.503906 10.96875 -4.628906 10.96875 -6.109375 L 10.96875 -6.640625 L 8.4375 -6.640625 C 7.070312 -6.640625 5.972656 -6.421875 5.140625 -5.984375 C 4.304688 -5.554688 3.878906 -4.890625 3.859375 -3.984375 Z M 3.859375 -3.984375 "/></g></g></g><g clip-path="url(#f369edfe5c)"><path stroke-linecap="butt" transform="matrix(0.7496, 0, 0, 0.7496, -0.00000000000004261, 0.0400041)" fill="none" stroke-linejoin="miter" d="M 0.000000000000056843 1.999811 L 299.998567 1.999811 " stroke="#ffffff" stroke-width="4" stroke-opacity="1" stroke-miterlimit="4"/></g><g clip-path="url(#6c1166b27a)"><path stroke-linecap="butt" transform="matrix(0.7496, 0, 0, 0.7496, 0, 3.038404)" fill="none" stroke-linejoin="miter" d="M 0 2.001946 L 299.998567 2.001946 " stroke="#ffde59" stroke-width="4" stroke-opacity="1" stroke-miterlimit="4"/></g></svg>