<svg xmlns="http://www.w3.org/2000/svg" xmlns:xlink="http://www.w3.org/1999/xlink" width="300" zoomAndPan="magnify" viewBox="0 0 224.87999 149.999998" height="200" preserveAspectRatio="xMidYMid meet" version="1.0"><defs><g/><clipPath id="e27cca064c"><path d="M 0 0.0390625 L 224.761719 0.0390625 L 224.761719 149.960938 L 0 149.960938 Z M 0 0.0390625 " clip-rule="nonzero"/></clipPath><clipPath id="7e55577aba"><path d="M 0 0.0390625 L 224.761719 0.0390625 L 224.761719 4 L 0 4 Z M 0 0.0390625 " clip-rule="nonzero"/></clipPath><clipPath id="88002d58db"><path d="M 0 3 L 224.761719 3 L 224.761719 7 L 0 7 Z M 0 3 " clip-rule="nonzero"/></clipPath></defs><g clip-path="url(#e27cca064c)"><path fill="#ffffff" d="M 0 0.0390625 L 224.878906 0.0390625 L 224.878906 149.960938 L 0 149.960938 Z M 0 0.0390625 " fill-opacity="1" fill-rule="nonzero"/><path fill="#ff3131" d="M 0 0.0390625 L 224.878906 0.0390625 L 224.878906 149.960938 L 0 149.960938 Z M 0 0.0390625 " fill-opacity="1" fill-rule="nonzero"/></g><g fill="#fffff9" fill-opacity="1"><g transform="translate(90.804331, 82.121197)"><g><path d="M 8.703125 -14.15625 C 9.765625 -14.15625 10.738281 -13.90625 11.625 -13.40625 C 12.519531 -12.914062 13.175781 -12.257812 13.59375 -11.4375 L 13.65625 -11.4375 L 13.65625 -13.796875 L 15.953125 -13.796875 L 15.953125 -0.46875 C 15.953125 1.882812 15.320312 3.71875 14.0625 5.03125 C 12.800781 6.351562 10.925781 7.035156 8.4375 7.078125 C 7.070312 7.078125 5.835938 6.878906 4.734375 6.484375 C 3.640625 6.085938 2.613281 5.410156 1.65625 4.453125 L 3.296875 2.5625 C 4.773438 4.15625 6.488281 4.953125 8.4375 4.953125 C 11.914062 4.953125 13.65625 3.101562 13.65625 -0.59375 L 13.65625 -2.390625 L 13.59375 -2.390625 C 13.082031 -1.566406 12.375 -0.929688 11.46875 -0.484375 C 10.5625 -0.046875 9.640625 0.171875 8.703125 0.171875 C 6.578125 0.171875 4.832031 -0.488281 3.46875 -1.8125 C 2.113281 -3.132812 1.421875 -4.832031 1.390625 -6.90625 C 1.390625 -9.125 2.054688 -10.878906 3.390625 -12.171875 C 4.722656 -13.472656 6.492188 -14.132812 8.703125 -14.15625 Z M 3.859375 -6.90625 C 3.859375 -5.519531 4.328125 -4.347656 5.265625 -3.390625 C 6.210938 -2.441406 7.367188 -1.960938 8.734375 -1.953125 C 10.222656 -1.953125 11.414062 -2.429688 12.3125 -3.390625 C 13.207031 -4.347656 13.65625 -5.535156 13.65625 -6.953125 C 13.65625 -8.472656 13.195312 -9.691406 12.28125 -10.609375 C 11.363281 -11.535156 10.171875 -12.007812 8.703125 -12.03125 C 7.304688 -12.03125 6.148438 -11.535156 5.234375 -10.546875 C 4.316406 -9.566406 3.859375 -8.351562 3.859375 -6.90625 Z M 3.859375 -6.90625 "/></g></g></g><g fill="#fffff9" fill-opacity="1"><g transform="translate(108.816816, 82.121197)"><g><path d="M 3.53125 -20.875 C 3.988281 -20.875 4.382812 -20.710938 4.71875 -20.390625 C 5.050781 -20.066406 5.21875 -19.664062 5.21875 -19.1875 C 5.21875 -18.695312 5.0625 -18.296875 4.75 -17.984375 C 4.4375 -17.671875 4.03125 -17.515625 3.53125 -17.515625 C 3.039062 -17.515625 2.640625 -17.671875 2.328125 -17.984375 C 2.015625 -18.296875 1.859375 -18.695312 1.859375 -19.1875 C 1.859375 -19.664062 2.023438 -20.066406 2.359375 -20.390625 C 2.691406 -20.710938 3.082031 -20.875 3.53125 -20.875 Z M 4.6875 -13.796875 L 4.6875 0 L 2.390625 0 L 2.390625 -13.796875 Z M 4.6875 -13.796875 "/></g></g></g><g fill="#fffff9" fill-opacity="1"><g transform="translate(115.892103, 82.121197)"><g><path d="M 16.25 -7.9375 C 16.25 -5.320312 15.582031 -3.296875 14.25 -1.859375 C 12.925781 -0.421875 11.132812 0.296875 8.875 0.296875 C 7.476562 0.296875 6.234375 -0.0195312 5.140625 -0.65625 C 4.054688 -1.300781 3.195312 -2.238281 2.5625 -3.46875 C 1.9375 -4.695312 1.625 -6.1875 1.625 -7.9375 C 1.625 -10.550781 2.273438 -12.5625 3.578125 -13.96875 C 4.890625 -15.382812 6.6875 -16.09375 8.96875 -16.09375 C 9.988281 -16.09375 10.941406 -15.914062 11.828125 -15.5625 C 12.710938 -15.207031 13.46875 -14.707031 14.09375 -14.0625 C 14.976562 -14.320312 15.523438 -14.832031 15.734375 -15.59375 C 15.953125 -16.363281 16.0625 -17.238281 16.0625 -18.21875 L 18.84375 -18.21875 L 19.046875 -17.890625 C 18.773438 -16.535156 18.359375 -15.398438 17.796875 -14.484375 C 17.234375 -13.578125 16.382812 -12.914062 15.25 -12.5 C 15.5625 -11.875 15.804688 -11.179688 15.984375 -10.421875 C 16.160156 -9.660156 16.25 -8.832031 16.25 -7.9375 Z M 4.3125 -7.9375 C 4.3125 -5.945312 4.671875 -4.4375 5.390625 -3.40625 C 6.117188 -2.375 7.300781 -1.859375 8.9375 -1.859375 C 10.5625 -1.859375 11.738281 -2.375 12.46875 -3.40625 C 13.195312 -4.4375 13.5625 -5.945312 13.5625 -7.9375 C 13.5625 -9.914062 13.1875 -11.40625 12.4375 -12.40625 C 11.695312 -13.414062 10.519531 -13.921875 8.90625 -13.921875 C 7.289062 -13.921875 6.117188 -13.414062 5.390625 -12.40625 C 4.671875 -11.40625 4.3125 -9.914062 4.3125 -7.9375 Z M 8.171875 -22.578125 C 8.378906 -22.148438 8.644531 -21.664062 8.96875 -21.125 C 9.300781 -20.582031 9.644531 -20.050781 10 -19.53125 C 10.363281 -19.007812 10.695312 -18.570312 11 -18.21875 L 11 -17.875 L 9.25 -17.875 C 8.800781 -18.21875 8.289062 -18.671875 7.71875 -19.234375 C 7.15625 -19.796875 6.628906 -20.359375 6.140625 -20.921875 C 5.660156 -21.484375 5.300781 -21.941406 5.0625 -22.296875 L 5.0625 -22.578125 Z M 8.171875 -22.578125 "/></g></g></g><g clip-path="url(#7e55577aba)"><path stroke-linecap="butt" transform="matrix(0.7496, 0, 0, 0.7496, -0.00000000000004261, 0.0400041)" fill="none" stroke-linejoin="miter" d="M 0.000000000000056843 1.999811 L 299.998567 1.999811 " stroke="#ffffff" stroke-width="4" stroke-opacity="1" stroke-miterlimit="4"/></g><g clip-path="url(#88002d58db)"><path stroke-linecap="butt" transform="matrix(0.7496, 0, 0, 0.7496, 0, 3.038404)" fill="none" stroke-linejoin="miter" d="M 0 2.001946 L 299.998567 2.001946 " stroke="#ffde59" stroke-width="4" stroke-opacity="1" stroke-miterlimit="4"/></g></svg>