<svg xmlns="http://www.w3.org/2000/svg" xmlns:xlink="http://www.w3.org/1999/xlink" width="300" zoomAndPan="magnify" viewBox="0 0 224.87999 149.999998" height="200" preserveAspectRatio="xMidYMid meet" version="1.0"><defs><g/><clipPath id="afcf5de593"><path d="M 0 0.0390625 L 224.761719 0.0390625 L 224.761719 149.960938 L 0 149.960938 Z M 0 0.0390625 " clip-rule="nonzero"/></clipPath><clipPath id="fa1c0ac400"><path d="M 0 0.0390625 L 224.761719 0.0390625 L 224.761719 4 L 0 4 Z M 0 0.0390625 " clip-rule="nonzero"/></clipPath><clipPath id="190ab48cf3"><path d="M 0 1 L 224.761719 1 L 224.761719 5 L 0 5 Z M 0 1 " clip-rule="nonzero"/></clipPath></defs><g clip-path="url(#afcf5de593)"><path fill="#ffffff" d="M 0 0.0390625 L 224.878906 0.0390625 L 224.878906 149.960938 L 0 149.960938 Z M 0 0.0390625 " fill-opacity="1" fill-rule="nonzero"/><path fill="#191919" d="M 0 0.0390625 L 224.878906 0.0390625 L 224.878906 149.960938 L 0 149.960938 Z M 0 0.0390625 " fill-opacity="1" fill-rule="nonzero"/></g><g fill="#fffff9" fill-opacity="1"><g transform="translate(82.956957, 82.121197)"><g><path d="M 5.65625 -17.71875 L 5.65625 -13.796875 L 9.734375 -13.796875 L 9.734375 -11.859375 L 5.65625 -11.859375 L 5.65625 -4.484375 C 5.65625 -3.378906 5.832031 -2.648438 6.1875 -2.296875 C 6.539062 -1.941406 7.050781 -1.765625 7.71875 -1.765625 C 8.488281 -1.765625 9.171875 -1.921875 9.765625 -2.234375 L 9.84375 -0.140625 C 9.0625 0.191406 8.171875 0.359375 7.171875 0.359375 C 5.753906 0.359375 4.765625 0.0078125 4.203125 -0.6875 C 3.640625 -1.382812 3.359375 -2.53125 3.359375 -4.125 L 3.359375 -11.859375 L 0.359375 -11.859375 L 0.359375 -13.796875 L 3.359375 -13.796875 L 3.359375 -17.71875 Z M 5.65625 -17.71875 "/></g></g></g><g fill="#fffff9" fill-opacity="1"><g transform="translate(93.334036, 82.121197)"><g><path d="M 3.53125 -20.875 C 3.988281 -20.875 4.382812 -20.710938 4.71875 -20.390625 C 5.050781 -20.066406 5.21875 -19.664062 5.21875 -19.1875 C 5.21875 -18.695312 5.0625 -18.296875 4.75 -17.984375 C 4.4375 -17.671875 4.03125 -17.515625 3.53125 -17.515625 C 3.039062 -17.515625 2.640625 -17.671875 2.328125 -17.984375 C 2.015625 -18.296875 1.859375 -18.695312 1.859375 -19.1875 C 1.859375 -19.664062 2.023438 -20.066406 2.359375 -20.390625 C 2.691406 -20.710938 3.082031 -20.875 3.53125 -20.875 Z M 4.6875 -13.796875 L 4.6875 0 L 2.390625 0 L 2.390625 -13.796875 Z M 4.6875 -13.796875 "/></g></g></g><g fill="#fffff9" fill-opacity="1"><g transform="translate(100.409323, 82.121197)"><g><path d="M 9 -14.15625 C 11.09375 -14.15625 12.535156 -13.28125 13.328125 -11.53125 C 13.878906 -12.4375 14.5 -13.097656 15.1875 -13.515625 C 15.875 -13.941406 16.71875 -14.15625 17.71875 -14.15625 C 19.507812 -14.15625 20.828125 -13.6875 21.671875 -12.75 C 22.515625 -11.8125 22.9375 -10.398438 22.9375 -8.515625 L 22.9375 0 L 20.640625 0 L 20.640625 -8.34375 C 20.640625 -10.757812 19.519531 -11.988281 17.28125 -12.03125 C 16.238281 -12.03125 15.378906 -11.640625 14.703125 -10.859375 C 14.035156 -10.085938 13.703125 -9.148438 13.703125 -8.046875 L 13.703125 0 L 11.40625 0 L 11.40625 -7.984375 C 11.40625 -9.347656 11.207031 -10.363281 10.8125 -11.03125 C 10.425781 -11.695312 9.734375 -12.03125 8.734375 -12.03125 C 7.335938 -12.03125 6.28125 -11.5625 5.5625 -10.625 C 4.84375 -9.695312 4.484375 -8.40625 4.484375 -6.75 L 4.484375 0 L 2.1875 0 L 2.1875 -10.734375 C 2.164062 -11.421875 2.125 -12.441406 2.0625 -13.796875 L 4.25 -13.796875 C 4.289062 -12.441406 4.3125 -11.6875 4.3125 -11.53125 L 4.359375 -11.53125 C 4.734375 -12.3125 5.332031 -12.941406 6.15625 -13.421875 C 6.988281 -13.910156 7.9375 -14.15625 9 -14.15625 Z M 9 -14.15625 "/></g></g></g><g fill="#fffff9" fill-opacity="1"><g transform="translate(125.526572, 82.121197)"><g><path d="M 8.46875 -14.15625 C 10.507812 -14.15625 12.101562 -13.507812 13.25 -12.21875 C 14.40625 -10.9375 14.988281 -9.113281 15 -6.75 L 15 -6.1875 L 3.859375 -6.1875 C 3.984375 -4.914062 4.46875 -3.863281 5.3125 -3.03125 C 6.15625 -2.207031 7.1875 -1.785156 8.40625 -1.765625 C 10.269531 -1.765625 11.722656 -2.460938 12.765625 -3.859375 L 14.5 -2.5 C 13.78125 -1.5625 12.925781 -0.847656 11.9375 -0.359375 C 10.957031 0.117188 9.78125 0.359375 8.40625 0.359375 C 6.300781 0.359375 4.609375 -0.320312 3.328125 -1.6875 C 2.054688 -3.0625 1.410156 -4.800781 1.390625 -6.90625 C 1.390625 -8.988281 2.039062 -10.707031 3.34375 -12.0625 C 4.65625 -13.414062 6.363281 -14.113281 8.46875 -14.15625 Z M 12.53125 -8.140625 C 12.46875 -9.335938 12.078125 -10.285156 11.359375 -10.984375 C 10.648438 -11.679688 9.644531 -12.03125 8.34375 -12.03125 C 7.164062 -12.03125 6.171875 -11.695312 5.359375 -11.03125 C 4.554688 -10.363281 4.054688 -9.398438 3.859375 -8.140625 Z M 12.53125 -8.140625 "/></g></g></g><g clip-path="url(#fa1c0ac400)"><path stroke-linecap="butt" transform="matrix(0.7496, 0, 0, 0.7496, -0.00000000000004261, 0.0400041)" fill="none" stroke-linejoin="miter" d="M 0.000000000000056843 1.999811 L 299.998567 1.999811 " stroke="#ffffff" stroke-width="4" stroke-opacity="1" stroke-miterlimit="4"/></g><g clip-path="url(#190ab48cf3)"><path stroke-linecap="butt" transform="matrix(0.7496, 0, 0, 0.7496, 0, 1.539204)" fill="none" stroke-linejoin="miter" d="M 0 2.000879 L 299.998567 2.000879 " stroke="#ff3131" stroke-width="4" stroke-opacity="1" stroke-miterlimit="4"/></g></svg>