<svg xmlns="http://www.w3.org/2000/svg" xmlns:xlink="http://www.w3.org/1999/xlink" width="300" zoomAndPan="magnify" viewBox="0 0 224.87999 149.999998" height="200" preserveAspectRatio="xMidYMid meet" version="1.0"><defs><g/><clipPath id="bc9439cbaa"><path d="M 0 0.0390625 L 224.761719 0.0390625 L 224.761719 149.960938 L 0 149.960938 Z M 0 0.0390625 " clip-rule="nonzero"/></clipPath><clipPath id="7796c73549"><path d="M 0 0.0390625 L 224.761719 0.0390625 L 224.761719 4 L 0 4 Z M 0 0.0390625 " clip-rule="nonzero"/></clipPath><clipPath id="7e6500b04a"><path d="M 0 3 L 224.761719 3 L 224.761719 7 L 0 7 Z M 0 3 " clip-rule="nonzero"/></clipPath></defs><g clip-path="url(#bc9439cbaa)"><path fill="#ffffff" d="M 0 0.0390625 L 224.878906 0.0390625 L 224.878906 149.960938 L 0 149.960938 Z M 0 0.0390625 " fill-opacity="1" fill-rule="nonzero"/><path fill="#ff3131" d="M 0 0.0390625 L 224.878906 0.0390625 L 224.878906 149.960938 L 0 149.960938 Z M 0 0.0390625 " fill-opacity="1" fill-rule="nonzero"/></g><g fill="#fffff9" fill-opacity="1"><g transform="translate(82.863257, 82.121197)"><g/></g></g><g fill="#fffff9" fill-opacity="1"><g transform="translate(91.062006, 82.121197)"><g><path d="M 8.703125 -14.15625 C 9.765625 -14.15625 10.738281 -13.90625 11.625 -13.40625 C 12.519531 -12.914062 13.175781 -12.257812 13.59375 -11.4375 L 13.65625 -11.4375 L 13.65625 -13.796875 L 15.953125 -13.796875 L 15.953125 -0.46875 C 15.953125 1.882812 15.320312 3.71875 14.0625 5.03125 C 12.800781 6.351562 10.925781 7.035156 8.4375 7.078125 C 7.070312 7.078125 5.835938 6.878906 4.734375 6.484375 C 3.640625 6.085938 2.613281 5.410156 1.65625 4.453125 L 3.296875 2.5625 C 4.773438 4.15625 6.488281 4.953125 8.4375 4.953125 C 11.914062 4.953125 13.65625 3.101562 13.65625 -0.59375 L 13.65625 -2.390625 L 13.59375 -2.390625 C 13.082031 -1.566406 12.375 -0.929688 11.46875 -0.484375 C 10.5625 -0.046875 9.640625 0.171875 8.703125 0.171875 C 6.578125 0.171875 4.832031 -0.488281 3.46875 -1.8125 C 2.113281 -3.132812 1.421875 -4.832031 1.390625 -6.90625 C 1.390625 -9.125 2.054688 -10.878906 3.390625 -12.171875 C 4.722656 -13.472656 6.492188 -14.132812 8.703125 -14.15625 Z M 3.859375 -6.90625 C 3.859375 -5.519531 4.328125 -4.347656 5.265625 -3.390625 C 6.210938 -2.441406 7.367188 -1.960938 8.734375 -1.953125 C 10.222656 -1.953125 11.414062 -2.429688 12.3125 -3.390625 C 13.207031 -4.347656 13.65625 -5.535156 13.65625 -6.953125 C 13.65625 -8.472656 13.195312 -9.691406 12.28125 -10.609375 C 11.363281 -11.535156 10.171875 -12.007812 8.703125 -12.03125 C 7.304688 -12.03125 6.148438 -11.535156 5.234375 -10.546875 C 4.316406 -9.566406 3.859375 -8.351562 3.859375 -6.90625 Z M 3.859375 -6.90625 "/></g></g></g><g fill="#fffff9" fill-opacity="1"><g transform="translate(109.074491, 82.121197)"><g><path d="M 8.484375 -16.0625 C 10.410156 -16.0625 11.835938 -15.640625 12.765625 -14.796875 C 13.691406 -13.953125 14.15625 -12.609375 14.15625 -10.765625 L 14.15625 0 L 12.265625 0 L 11.765625 -2.234375 L 11.640625 -2.234375 C 10.953125 -1.367188 10.222656 -0.726562 9.453125 -0.3125 C 8.691406 0.09375 7.65625 0.296875 6.34375 0.296875 C 4.90625 0.296875 3.710938 -0.078125 2.765625 -0.828125 C 1.828125 -1.585938 1.359375 -2.773438 1.359375 -4.390625 C 1.359375 -5.960938 1.976562 -7.175781 3.21875 -8.03125 C 4.457031 -8.882812 6.363281 -9.351562 8.9375 -9.4375 L 11.609375 -9.515625 L 11.609375 -10.46875 C 11.609375 -11.78125 11.320312 -12.691406 10.75 -13.203125 C 10.1875 -13.710938 9.382812 -13.96875 8.34375 -13.96875 C 7.519531 -13.96875 6.734375 -13.84375 5.984375 -13.59375 C 5.234375 -13.351562 4.535156 -13.078125 3.890625 -12.765625 L 3.09375 -14.71875 C 3.78125 -15.082031 4.59375 -15.394531 5.53125 -15.65625 C 6.476562 -15.925781 7.460938 -16.0625 8.484375 -16.0625 Z M 11.59375 -7.71875 L 9.265625 -7.640625 C 7.296875 -7.554688 5.929688 -7.238281 5.171875 -6.6875 C 4.421875 -6.144531 4.046875 -5.367188 4.046875 -4.359375 C 4.046875 -3.472656 4.3125 -2.820312 4.84375 -2.40625 C 5.382812 -2 6.078125 -1.796875 6.921875 -1.796875 C 8.242188 -1.796875 9.351562 -2.164062 10.25 -2.90625 C 11.144531 -3.644531 11.59375 -4.78125 11.59375 -6.3125 Z M 3.5 -20.671875 C 2.957031 -21.078125 2.429688 -21.53125 1.921875 -22.03125 C 1.421875 -22.539062 0.957031 -23.078125 0.53125 -23.640625 L 0.53125 -23.9375 L 3.09375 -23.9375 C 3.40625 -23.3125 3.691406 -22.785156 3.953125 -22.359375 C 4.222656 -21.941406 4.546875 -21.488281 4.921875 -21 L 4.921875 -20.671875 Z M 3.765625 -17.875 L 3.765625 -18.1875 C 4.265625 -18.757812 4.796875 -19.363281 5.359375 -20 C 5.929688 -20.644531 6.441406 -21.300781 6.890625 -21.96875 L 9.640625 -21.96875 C 10.085938 -21.300781 10.597656 -20.644531 11.171875 -20 C 11.742188 -19.363281 12.273438 -18.757812 12.765625 -18.1875 L 12.765625 -17.875 L 11.296875 -17.875 C 10.796875 -18.1875 10.289062 -18.546875 9.78125 -18.953125 C 9.269531 -19.367188 8.757812 -19.800781 8.25 -20.25 C 7.738281 -19.800781 7.226562 -19.367188 6.71875 -18.953125 C 6.207031 -18.546875 5.707031 -18.1875 5.21875 -17.875 Z M 3.765625 -17.875 "/></g></g></g><g fill="#fffff9" fill-opacity="1"><g transform="translate(125.612963, 82.121197)"><g><path d="M 8.96875 -14.15625 C 10.695312 -14.15625 12.003906 -13.648438 12.890625 -12.640625 C 13.773438 -11.640625 14.21875 -10.304688 14.21875 -8.640625 L 14.21875 0 L 11.90625 0 L 11.90625 -8.375 C 11.90625 -9.4375 11.660156 -10.304688 11.171875 -10.984375 C 10.679688 -11.660156 9.875 -12.007812 8.75 -12.03125 C 7.34375 -12.03125 6.28125 -11.5625 5.5625 -10.625 C 4.84375 -9.695312 4.484375 -8.40625 4.484375 -6.75 L 4.484375 0 L 2.1875 0 L 2.1875 -10.734375 C 2.1875 -10.828125 2.144531 -11.847656 2.0625 -13.796875 L 4.25 -13.796875 C 4.289062 -12.421875 4.3125 -11.664062 4.3125 -11.53125 L 4.359375 -11.53125 C 4.734375 -12.3125 5.335938 -12.941406 6.171875 -13.421875 C 7.015625 -13.910156 7.945312 -14.15625 8.96875 -14.15625 Z M 8.96875 -14.15625 "/></g></g></g><g clip-path="url(#7796c73549)"><path stroke-linecap="butt" transform="matrix(0.7496, 0, 0, 0.7496, -0.00000000000004261, 0.0400041)" fill="none" stroke-linejoin="miter" d="M 0.000000000000056843 1.999811 L 299.998567 1.999811 " stroke="#ffffff" stroke-width="4" stroke-opacity="1" stroke-miterlimit="4"/></g><g clip-path="url(#7e6500b04a)"><path stroke-linecap="butt" transform="matrix(0.7496, 0, 0, 0.7496, 0, 3.038404)" fill="none" stroke-linejoin="miter" d="M 0 2.001946 L 299.998567 2.001946 " stroke="#ffde59" stroke-width="4" stroke-opacity="1" stroke-miterlimit="4"/></g></svg>