<svg xmlns="http://www.w3.org/2000/svg" xmlns:xlink="http://www.w3.org/1999/xlink" width="300" zoomAndPan="magnify" viewBox="0 0 224.87999 149.999998" height="200" preserveAspectRatio="xMidYMid meet" version="1.0"><defs><g/><clipPath id="cd96981e2f"><path d="M 0 0.0390625 L 224.761719 0.0390625 L 224.761719 149.960938 L 0 149.960938 Z M 0 0.0390625 " clip-rule="nonzero"/></clipPath><clipPath id="ab9cb8e206"><path d="M 0 0.0390625 L 224.761719 0.0390625 L 224.761719 4 L 0 4 Z M 0 0.0390625 " clip-rule="nonzero"/></clipPath><clipPath id="fb502f02a2"><path d="M 0 3 L 224.761719 3 L 224.761719 7 L 0 7 Z M 0 3 " clip-rule="nonzero"/></clipPath></defs><g clip-path="url(#cd96981e2f)"><path fill="#ffffff" d="M 0 0.0390625 L 224.878906 0.0390625 L 224.878906 149.960938 L 0 149.960938 Z M 0 0.0390625 " fill-opacity="1" fill-rule="nonzero"/><path fill="#ff3131" d="M 0 0.0390625 L 224.878906 0.0390625 L 224.878906 149.960938 L 0 149.960938 Z M 0 0.0390625 " fill-opacity="1" fill-rule="nonzero"/></g><g fill="#fffff9" fill-opacity="1"><g transform="translate(80.473907, 82.121197)"><g><path d="M 2.984375 -13.796875 L 7.28125 -2.984375 L 7.34375 -2.984375 L 11.4375 -13.796875 L 13.921875 -13.796875 L 8.46875 0 L 5.921875 0 L 0.296875 -13.796875 Z M 2.984375 -13.796875 "/></g></g></g><g fill="#fffff9" fill-opacity="1"><g transform="translate(94.683433, 82.121197)"><g><path d="M 7.484375 -14.15625 C 9.492188 -14.15625 10.953125 -13.679688 11.859375 -12.734375 C 12.773438 -11.796875 13.242188 -10.375 13.265625 -8.46875 L 13.265625 -2.265625 C 13.265625 -1.679688 13.332031 -0.925781 13.46875 0 L 11.265625 0 C 11.160156 -0.175781 11.109375 -0.863281 11.109375 -2.0625 L 11.0625 -2.0625 C 10.019531 -0.488281 8.503906 0.316406 6.515625 0.359375 C 5.003906 0.359375 3.769531 -0.0195312 2.8125 -0.78125 C 1.863281 -1.539062 1.390625 -2.53125 1.390625 -3.75 C 1.390625 -5.414062 2.078125 -6.632812 3.453125 -7.40625 C 4.828125 -8.1875 6.976562 -8.578125 9.90625 -8.578125 L 10.96875 -8.578125 L 10.96875 -8.96875 C 10.96875 -10.96875 9.828125 -11.988281 7.546875 -12.03125 C 5.898438 -12.03125 4.535156 -11.53125 3.453125 -10.53125 L 2 -12.03125 C 3.414062 -13.40625 5.242188 -14.113281 7.484375 -14.15625 Z M 3.859375 -3.984375 C 3.859375 -2.429688 4.875 -1.632812 6.90625 -1.59375 C 8.101562 -1.59375 9.078125 -1.972656 9.828125 -2.734375 C 10.585938 -3.503906 10.96875 -4.628906 10.96875 -6.109375 L 10.96875 -6.640625 L 8.4375 -6.640625 C 7.070312 -6.640625 5.972656 -6.421875 5.140625 -5.984375 C 4.304688 -5.554688 3.878906 -4.890625 3.859375 -3.984375 Z M 8.984375 -21.34375 L 12.296875 -17.09375 L 9.90625 -17.09375 L 7.578125 -20.109375 L 5.28125 -17.09375 L 3.03125 -17.09375 L 6.3125 -21.34375 Z M 8.984375 -21.34375 "/></g></g></g><g fill="#fffff9" fill-opacity="1"><g transform="translate(109.98373, 82.121197)"><g><path d="M 8.96875 -14.15625 C 10.695312 -14.15625 12.003906 -13.648438 12.890625 -12.640625 C 13.773438 -11.640625 14.21875 -10.304688 14.21875 -8.640625 L 14.21875 0 L 11.90625 0 L 11.90625 -8.375 C 11.90625 -9.4375 11.660156 -10.304688 11.171875 -10.984375 C 10.679688 -11.660156 9.875 -12.007812 8.75 -12.03125 C 7.34375 -12.03125 6.28125 -11.5625 5.5625 -10.625 C 4.84375 -9.695312 4.484375 -8.40625 4.484375 -6.75 L 4.484375 0 L 2.1875 0 L 2.1875 -10.734375 C 2.1875 -10.828125 2.144531 -11.847656 2.0625 -13.796875 L 4.25 -13.796875 C 4.289062 -12.421875 4.3125 -11.664062 4.3125 -11.53125 L 4.359375 -11.53125 C 4.734375 -12.3125 5.335938 -12.941406 6.171875 -13.421875 C 7.015625 -13.910156 7.945312 -14.15625 8.96875 -14.15625 Z M 8.96875 -14.15625 "/></g></g></g><g fill="#fffff9" fill-opacity="1"><g transform="translate(126.374801, 82.121197)"><g><path d="M 8.703125 -14.15625 C 9.765625 -14.15625 10.738281 -13.90625 11.625 -13.40625 C 12.519531 -12.914062 13.175781 -12.257812 13.59375 -11.4375 L 13.65625 -11.4375 L 13.65625 -13.796875 L 15.953125 -13.796875 L 15.953125 -0.46875 C 15.953125 1.882812 15.320312 3.71875 14.0625 5.03125 C 12.800781 6.351562 10.925781 7.035156 8.4375 7.078125 C 7.070312 7.078125 5.835938 6.878906 4.734375 6.484375 C 3.640625 6.085938 2.613281 5.410156 1.65625 4.453125 L 3.296875 2.5625 C 4.773438 4.15625 6.488281 4.953125 8.4375 4.953125 C 11.914062 4.953125 13.65625 3.101562 13.65625 -0.59375 L 13.65625 -2.390625 L 13.59375 -2.390625 C 13.082031 -1.566406 12.375 -0.929688 11.46875 -0.484375 C 10.5625 -0.046875 9.640625 0.171875 8.703125 0.171875 C 6.578125 0.171875 4.832031 -0.488281 3.46875 -1.8125 C 2.113281 -3.132812 1.421875 -4.832031 1.390625 -6.90625 C 1.390625 -9.125 2.054688 -10.878906 3.390625 -12.171875 C 4.722656 -13.472656 6.492188 -14.132812 8.703125 -14.15625 Z M 3.859375 -6.90625 C 3.859375 -5.519531 4.328125 -4.347656 5.265625 -3.390625 C 6.210938 -2.441406 7.367188 -1.960938 8.734375 -1.953125 C 10.222656 -1.953125 11.414062 -2.429688 12.3125 -3.390625 C 13.207031 -4.347656 13.65625 -5.535156 13.65625 -6.953125 C 13.65625 -8.472656 13.195312 -9.691406 12.28125 -10.609375 C 11.363281 -11.535156 10.171875 -12.007812 8.703125 -12.03125 C 7.304688 -12.03125 6.148438 -11.535156 5.234375 -10.546875 C 4.316406 -9.566406 3.859375 -8.351562 3.859375 -6.90625 Z M 3.859375 -6.90625 "/></g></g></g><g clip-path="url(#ab9cb8e206)"><path stroke-linecap="butt" transform="matrix(0.7496, 0, 0, 0.7496, -0.00000000000004261, 0.0400041)" fill="none" stroke-linejoin="miter" d="M 0.000000000000056843 1.999811 L 299.998567 1.999811 " stroke="#ffffff" stroke-width="4" stroke-opacity="1" stroke-miterlimit="4"/></g><g clip-path="url(#fb502f02a2)"><path stroke-linecap="butt" transform="matrix(0.7496, 0, 0, 0.7496, 0, 3.038404)" fill="none" stroke-linejoin="miter" d="M 0 2.001946 L 299.998567 2.001946 " stroke="#ffde59" stroke-width="4" stroke-opacity="1" stroke-miterlimit="4"/></g></svg>