<svg xmlns="http://www.w3.org/2000/svg" xmlns:xlink="http://www.w3.org/1999/xlink" width="300" zoomAndPan="magnify" viewBox="0 0 224.87999 149.999998" height="200" preserveAspectRatio="xMidYMid meet" version="1.0"><defs><g/><clipPath id="8c9d9b6c60"><path d="M 0 0.0390625 L 224.761719 0.0390625 L 224.761719 149.960938 L 0 149.960938 Z M 0 0.0390625 " clip-rule="nonzero"/></clipPath><clipPath id="8d94f9b8db"><path d="M 0 0.0390625 L 224.761719 0.0390625 L 224.761719 4 L 0 4 Z M 0 0.0390625 " clip-rule="nonzero"/></clipPath><clipPath id="eaee5b4d97"><path d="M 0 3 L 224.761719 3 L 224.761719 7 L 0 7 Z M 0 3 " clip-rule="nonzero"/></clipPath></defs><g clip-path="url(#8c9d9b6c60)"><path fill="#ffffff" d="M 0 0.0390625 L 224.878906 0.0390625 L 224.878906 149.960938 L 0 149.960938 Z M 0 0.0390625 " fill-opacity="1" fill-rule="nonzero"/><path fill="#ff3131" d="M 0 0.0390625 L 224.878906 0.0390625 L 224.878906 149.960938 L 0 149.960938 Z M 0 0.0390625 " fill-opacity="1" fill-rule="nonzero"/></g><g fill="#fffff9" fill-opacity="1"><g transform="translate(51.450334, 82.121197)"><g><path d="M 8.96875 -14.15625 C 10.695312 -14.15625 12.003906 -13.648438 12.890625 -12.640625 C 13.773438 -11.640625 14.21875 -10.304688 14.21875 -8.640625 L 14.21875 0 L 11.90625 0 L 11.90625 -8.375 C 11.90625 -9.4375 11.660156 -10.304688 11.171875 -10.984375 C 10.679688 -11.660156 9.875 -12.007812 8.75 -12.03125 C 7.34375 -12.03125 6.28125 -11.5625 5.5625 -10.625 C 4.84375 -9.695312 4.484375 -8.40625 4.484375 -6.75 L 4.484375 0 L 2.1875 0 L 2.1875 -10.734375 C 2.1875 -10.828125 2.144531 -11.847656 2.0625 -13.796875 L 4.25 -13.796875 C 4.289062 -12.421875 4.3125 -11.664062 4.3125 -11.53125 L 4.359375 -11.53125 C 4.734375 -12.3125 5.335938 -12.941406 6.171875 -13.421875 C 7.015625 -13.910156 7.945312 -14.15625 8.96875 -14.15625 Z M 8.96875 -14.15625 "/></g></g></g><g fill="#fffff9" fill-opacity="1"><g transform="translate(67.841405, 82.121197)"><g><path d="M 4.484375 -22.296875 L 4.484375 -11.875 L 4.546875 -11.875 C 4.953125 -12.570312 5.554688 -13.125 6.359375 -13.53125 C 7.171875 -13.945312 8.050781 -14.15625 9 -14.15625 C 10.726562 -14.15625 12.03125 -13.648438 12.90625 -12.640625 C 13.78125 -11.640625 14.21875 -10.304688 14.21875 -8.640625 L 14.21875 0 L 11.90625 0 L 11.90625 -8.375 C 11.90625 -9.4375 11.660156 -10.304688 11.171875 -10.984375 C 10.679688 -11.660156 9.875 -12.007812 8.75 -12.03125 C 7.34375 -12.03125 6.28125 -11.5625 5.5625 -10.625 C 4.84375 -9.695312 4.484375 -8.4375 4.484375 -6.84375 L 4.484375 0 L 2.1875 0 L 2.1875 -22.296875 Z M 4.484375 -22.296875 "/></g></g></g><g fill="#fffff9" fill-opacity="1"><g transform="translate(84.232476, 82.121197)"><g><path d="M 4.6875 -13.796875 L 4.6875 0 L 2.390625 0 L 2.390625 -13.796875 Z M 2.5 -21.34375 L 5.578125 -17.09375 L 3.484375 -17.09375 L -0.734375 -21.34375 Z M 2.5 -21.34375 "/></g></g></g><g fill="#fffff9" fill-opacity="1"><g transform="translate(91.307763, 82.121197)"><g><path d="M 8.96875 -14.15625 C 10.695312 -14.15625 12.003906 -13.648438 12.890625 -12.640625 C 13.773438 -11.640625 14.21875 -10.304688 14.21875 -8.640625 L 14.21875 0 L 11.90625 0 L 11.90625 -8.375 C 11.90625 -9.4375 11.660156 -10.304688 11.171875 -10.984375 C 10.679688 -11.660156 9.875 -12.007812 8.75 -12.03125 C 7.34375 -12.03125 6.28125 -11.5625 5.5625 -10.625 C 4.84375 -9.695312 4.484375 -8.40625 4.484375 -6.75 L 4.484375 0 L 2.1875 0 L 2.1875 -10.734375 C 2.1875 -10.828125 2.144531 -11.847656 2.0625 -13.796875 L 4.25 -13.796875 C 4.289062 -12.421875 4.3125 -11.664062 4.3125 -11.53125 L 4.359375 -11.53125 C 4.734375 -12.3125 5.335938 -12.941406 6.171875 -13.421875 C 7.015625 -13.910156 7.945312 -14.15625 8.96875 -14.15625 Z M 8.96875 -14.15625 "/></g></g></g><g fill="#fffff9" fill-opacity="1"><g transform="translate(107.698834, 82.121197)"><g/></g></g><g fill="#fffff9" fill-opacity="1"><g transform="translate(115.894369, 82.121197)"><g><path d="M 5.65625 -17.71875 L 5.65625 -13.796875 L 9.734375 -13.796875 L 9.734375 -11.859375 L 5.65625 -11.859375 L 5.65625 -4.484375 C 5.65625 -3.378906 5.832031 -2.648438 6.1875 -2.296875 C 6.539062 -1.941406 7.050781 -1.765625 7.71875 -1.765625 C 8.488281 -1.765625 9.171875 -1.921875 9.765625 -2.234375 L 9.84375 -0.140625 C 9.0625 0.191406 8.171875 0.359375 7.171875 0.359375 C 5.753906 0.359375 4.765625 0.0078125 4.203125 -0.6875 C 3.640625 -1.382812 3.359375 -2.53125 3.359375 -4.125 L 3.359375 -11.859375 L 0.359375 -11.859375 L 0.359375 -13.796875 L 3.359375 -13.796875 L 3.359375 -17.71875 Z M 5.65625 -17.71875 "/></g></g></g><g fill="#fffff9" fill-opacity="1"><g transform="translate(126.271449, 82.121197)"><g><path d="M 4.484375 -22.296875 L 4.484375 -11.875 L 4.546875 -11.875 C 4.953125 -12.570312 5.554688 -13.125 6.359375 -13.53125 C 7.171875 -13.945312 8.050781 -14.15625 9 -14.15625 C 10.726562 -14.15625 12.03125 -13.648438 12.90625 -12.640625 C 13.78125 -11.640625 14.21875 -10.304688 14.21875 -8.640625 L 14.21875 0 L 11.90625 0 L 11.90625 -8.375 C 11.90625 -9.4375 11.660156 -10.304688 11.171875 -10.984375 C 10.679688 -11.660156 9.875 -12.007812 8.75 -12.03125 C 7.34375 -12.03125 6.28125 -11.5625 5.5625 -10.625 C 4.84375 -9.695312 4.484375 -8.4375 4.484375 -6.84375 L 4.484375 0 L 2.1875 0 L 2.1875 -22.296875 Z M 4.484375 -22.296875 "/></g></g></g><g fill="#fffff9" fill-opacity="1"><g transform="translate(142.662518, 82.121197)"><g><path d="M 8.484375 -16.0625 C 10.410156 -16.0625 11.835938 -15.640625 12.765625 -14.796875 C 13.691406 -13.953125 14.15625 -12.609375 14.15625 -10.765625 L 14.15625 0 L 12.265625 0 L 11.765625 -2.234375 L 11.640625 -2.234375 C 10.953125 -1.367188 10.222656 -0.726562 9.453125 -0.3125 C 8.691406 0.09375 7.65625 0.296875 6.34375 0.296875 C 4.90625 0.296875 3.710938 -0.078125 2.765625 -0.828125 C 1.828125 -1.585938 1.359375 -2.773438 1.359375 -4.390625 C 1.359375 -5.960938 1.976562 -7.175781 3.21875 -8.03125 C 4.457031 -8.882812 6.363281 -9.351562 8.9375 -9.4375 L 11.609375 -9.515625 L 11.609375 -10.46875 C 11.609375 -11.78125 11.320312 -12.691406 10.75 -13.203125 C 10.1875 -13.710938 9.382812 -13.96875 8.34375 -13.96875 C 7.519531 -13.96875 6.734375 -13.84375 5.984375 -13.59375 C 5.234375 -13.351562 4.535156 -13.078125 3.890625 -12.765625 L 3.09375 -14.71875 C 3.78125 -15.082031 4.59375 -15.394531 5.53125 -15.65625 C 6.476562 -15.925781 7.460938 -16.0625 8.484375 -16.0625 Z M 11.59375 -7.71875 L 9.265625 -7.640625 C 7.296875 -7.554688 5.929688 -7.238281 5.171875 -6.6875 C 4.421875 -6.144531 4.046875 -5.367188 4.046875 -4.359375 C 4.046875 -3.472656 4.3125 -2.820312 4.84375 -2.40625 C 5.382812 -2 6.078125 -1.796875 6.921875 -1.796875 C 8.242188 -1.796875 9.351562 -2.164062 10.25 -2.90625 C 11.144531 -3.644531 11.59375 -4.78125 11.59375 -6.3125 Z M 11.53125 -21.015625 C 11.90625 -21.515625 12.222656 -21.96875 12.484375 -22.375 C 12.742188 -22.789062 13.035156 -23.3125 13.359375 -23.9375 L 15.953125 -23.9375 L 15.953125 -23.640625 C 15.515625 -23.078125 15.039062 -22.539062 14.53125 -22.03125 C 14.019531 -21.53125 13.507812 -21.078125 13 -20.671875 L 11.53125 -20.671875 Z M 12.671875 -17.875 L 11.234375 -17.875 C 10.742188 -18.1875 10.242188 -18.546875 9.734375 -18.953125 C 9.222656 -19.367188 8.707031 -19.800781 8.1875 -20.25 C 7.675781 -19.800781 7.164062 -19.367188 6.65625 -18.953125 C 6.144531 -18.546875 5.644531 -18.1875 5.15625 -17.875 L 3.71875 -17.875 L 3.71875 -18.21875 C 4.207031 -18.769531 4.734375 -19.367188 5.296875 -20.015625 C 5.867188 -20.671875 6.382812 -21.332031 6.84375 -22 L 9.546875 -22 C 10.003906 -21.332031 10.507812 -20.671875 11.0625 -20.015625 C 11.625 -19.367188 12.160156 -18.769531 12.671875 -18.21875 Z M 12.671875 -17.875 "/></g></g></g><g fill="#fffff9" fill-opacity="1"><g transform="translate(159.20099, 82.121197)"><g><path d="M 2.984375 -13.796875 L 7.25 -2.984375 L 7.3125 -2.984375 L 11.40625 -13.796875 L 13.921875 -13.796875 L 7.171875 3.390625 C 6.640625 4.765625 6.03125 5.722656 5.34375 6.265625 C 4.664062 6.804688 3.769531 7.078125 2.65625 7.078125 C 1.8125 7.078125 1.125 6.957031 0.59375 6.71875 L 0.890625 4.71875 C 1.160156 4.875 1.726562 4.953125 2.59375 4.953125 C 3.695312 4.953125 4.492188 4.273438 4.984375 2.921875 L 6.015625 0.09375 L 0.296875 -13.796875 Z M 2.984375 -13.796875 "/></g></g></g><g clip-path="url(#8d94f9b8db)"><path stroke-linecap="butt" transform="matrix(0.7496, 0, 0, 0.7496, -0.00000000000004261, 0.0400041)" fill="none" stroke-linejoin="miter" d="M 0.000000000000056843 1.999811 L 299.998567 1.999811 " stroke="#ffffff" stroke-width="4" stroke-opacity="1" stroke-miterlimit="4"/></g><g clip-path="url(#eaee5b4d97)"><path stroke-linecap="butt" transform="matrix(0.7496, 0, 0, 0.7496, 0, 3.038404)" fill="none" stroke-linejoin="miter" d="M 0 2.001946 L 299.998567 2.001946 " stroke="#ffde59" stroke-width="4" stroke-opacity="1" stroke-miterlimit="4"/></g></svg>