<svg xmlns="http://www.w3.org/2000/svg" xmlns:xlink="http://www.w3.org/1999/xlink" width="300" zoomAndPan="magnify" viewBox="0 0 224.87999 149.999998" height="200" preserveAspectRatio="xMidYMid meet" version="1.0"><defs><g/><clipPath id="5cd781301b"><path d="M 0 0.0390625 L 224.761719 0.0390625 L 224.761719 149.960938 L 0 149.960938 Z M 0 0.0390625 " clip-rule="nonzero"/></clipPath><clipPath id="0bd388edeb"><path d="M 0 0.0390625 L 224.761719 0.0390625 L 224.761719 4 L 0 4 Z M 0 0.0390625 " clip-rule="nonzero"/></clipPath><clipPath id="68747e2191"><path d="M 0 1 L 224.761719 1 L 224.761719 5 L 0 5 Z M 0 1 " clip-rule="nonzero"/></clipPath></defs><g clip-path="url(#5cd781301b)"><path fill="#ffffff" d="M 0 0.0390625 L 224.878906 0.0390625 L 224.878906 149.960938 L 0 149.960938 Z M 0 0.0390625 " fill-opacity="1" fill-rule="nonzero"/><path fill="#191919" d="M 0 0.0390625 L 224.878906 0.0390625 L 224.878906 149.960938 L 0 149.960938 Z M 0 0.0390625 " fill-opacity="1" fill-rule="nonzero"/></g><g fill="#fffff9" fill-opacity="1"><g transform="translate(52.352197, 82.121197)"><g><path d="M 16.59375 -20.875 L 16.59375 -18.578125 L 9.703125 -18.578125 L 9.703125 0 L 7.21875 0 L 7.21875 -18.578125 L 0.328125 -18.578125 L 0.328125 -20.875 Z M 16.59375 -20.875 "/></g></g></g><g fill="#fffff9" fill-opacity="1"><g transform="translate(69.27391, 82.121197)"><g><path d="M 4.484375 -22.296875 L 4.484375 -11.875 L 4.546875 -11.875 C 4.953125 -12.570312 5.554688 -13.125 6.359375 -13.53125 C 7.171875 -13.945312 8.050781 -14.15625 9 -14.15625 C 10.726562 -14.15625 12.03125 -13.648438 12.90625 -12.640625 C 13.78125 -11.640625 14.21875 -10.304688 14.21875 -8.640625 L 14.21875 0 L 11.90625 0 L 11.90625 -8.375 C 11.90625 -9.4375 11.660156 -10.304688 11.171875 -10.984375 C 10.679688 -11.660156 9.875 -12.007812 8.75 -12.03125 C 7.34375 -12.03125 6.28125 -11.5625 5.5625 -10.625 C 4.84375 -9.695312 4.484375 -8.4375 4.484375 -6.84375 L 4.484375 0 L 2.1875 0 L 2.1875 -22.296875 Z M 4.484375 -22.296875 "/></g></g></g><g fill="#fffff9" fill-opacity="1"><g transform="translate(85.664981, 82.121197)"><g><path d="M 4.484375 -13.796875 L 4.484375 -5.421875 C 4.484375 -4.359375 4.734375 -3.488281 5.234375 -2.8125 C 5.734375 -2.132812 6.535156 -1.785156 7.640625 -1.765625 C 9.054688 -1.765625 10.117188 -2.234375 10.828125 -3.171875 C 11.546875 -4.117188 11.90625 -5.378906 11.90625 -6.953125 L 11.90625 -13.796875 L 14.21875 -13.796875 L 14.21875 -3.0625 C 14.226562 -2.507812 14.265625 -1.488281 14.328125 0 L 12.140625 0 C 12.128906 -0.945312 12.113281 -1.703125 12.09375 -2.265625 L 12.03125 -2.265625 C 11.675781 -1.503906 11.082031 -0.875 10.25 -0.375 C 9.414062 0.113281 8.46875 0.359375 7.40625 0.359375 C 5.707031 0.335938 4.410156 -0.164062 3.515625 -1.15625 C 2.628906 -2.15625 2.1875 -3.488281 2.1875 -5.15625 L 2.1875 -13.796875 Z M 4.484375 -13.796875 "/></g></g></g><g fill="#fffff9" fill-opacity="1"><g transform="translate(102.056052, 82.121197)"><g><path d="M 8.96875 -14.15625 C 9.320312 -14.15625 9.632812 -14.101562 9.90625 -14 L 9.765625 -11.671875 C 9.328125 -11.796875 8.910156 -11.859375 8.515625 -11.859375 C 7.179688 -11.859375 6.175781 -11.421875 5.5 -10.546875 C 4.820312 -9.671875 4.484375 -8.4375 4.484375 -6.84375 L 4.484375 0 L 2.1875 0 L 2.1875 -10.734375 C 2.1875 -11.003906 2.144531 -12.023438 2.0625 -13.796875 L 4.25 -13.796875 C 4.289062 -12.421875 4.3125 -11.664062 4.3125 -11.53125 L 4.359375 -11.53125 C 4.734375 -12.3125 5.335938 -12.941406 6.171875 -13.421875 C 7.015625 -13.910156 7.945312 -14.15625 8.96875 -14.15625 Z M 8.96875 -14.15625 "/></g></g></g><g fill="#fffff9" fill-opacity="1"><g transform="translate(112.433131, 82.121197)"><g><path d="M 6.390625 -14.15625 C 8.597656 -14.132812 10.164062 -13.296875 11.09375 -11.640625 L 9.171875 -10.375 C 8.503906 -11.476562 7.53125 -12.03125 6.25 -12.03125 C 5.476562 -12.03125 4.832031 -11.851562 4.3125 -11.5 C 3.789062 -11.144531 3.53125 -10.679688 3.53125 -10.109375 C 3.53125 -9.191406 4.679688 -8.523438 6.984375 -8.109375 C 8.640625 -7.816406 9.8125 -7.332031 10.5 -6.65625 C 11.1875 -5.988281 11.53125 -5.097656 11.53125 -3.984375 C 11.53125 -2.628906 11.023438 -1.566406 10.015625 -0.796875 C 9.015625 -0.0234375 7.679688 0.359375 6.015625 0.359375 C 4.710938 0.359375 3.644531 0.148438 2.8125 -0.265625 C 1.976562 -0.679688 1.257812 -1.332031 0.65625 -2.21875 L 2.484375 -3.625 C 3.046875 -2.9375 3.601562 -2.453125 4.15625 -2.171875 C 4.707031 -1.898438 5.328125 -1.765625 6.015625 -1.765625 C 6.898438 -1.765625 7.625 -1.957031 8.1875 -2.34375 C 8.757812 -2.726562 9.046875 -3.242188 9.046875 -3.890625 C 9.046875 -4.554688 8.742188 -5.054688 8.140625 -5.390625 C 7.546875 -5.722656 6.550781 -6.03125 5.15625 -6.3125 C 3.78125 -6.601562 2.78125 -7.039062 2.15625 -7.625 C 1.539062 -8.21875 1.234375 -9.035156 1.234375 -10.078125 C 1.234375 -11.242188 1.707031 -12.207031 2.65625 -12.96875 C 3.613281 -13.738281 4.859375 -14.132812 6.390625 -14.15625 Z M 6.390625 -14.15625 "/></g></g></g><g fill="#fffff9" fill-opacity="1"><g transform="translate(124.991755, 82.121197)"><g><path d="M 15.953125 -22.296875 L 15.953125 0 L 13.65625 0 L 13.65625 -2.453125 L 13.59375 -2.453125 C 13.125 -1.566406 12.40625 -0.875 11.4375 -0.375 C 10.476562 0.113281 9.425781 0.359375 8.28125 0.359375 C 6.332031 0.359375 4.703125 -0.332031 3.390625 -1.71875 C 2.085938 -3.101562 1.421875 -4.832031 1.390625 -6.90625 C 1.390625 -9 2.0625 -10.722656 3.40625 -12.078125 C 4.75 -13.441406 6.492188 -14.132812 8.640625 -14.15625 C 10.617188 -14.15625 12.269531 -13.367188 13.59375 -11.796875 L 13.65625 -11.796875 L 13.65625 -22.296875 Z M 3.859375 -6.90625 C 3.859375 -5.382812 4.316406 -4.148438 5.234375 -3.203125 C 6.148438 -2.265625 7.320312 -1.785156 8.75 -1.765625 C 10.1875 -1.765625 11.351562 -2.234375 12.25 -3.171875 C 13.144531 -4.117188 13.613281 -5.363281 13.65625 -6.90625 C 13.65625 -8.394531 13.195312 -9.617188 12.28125 -10.578125 C 11.363281 -11.546875 10.179688 -12.03125 8.734375 -12.03125 C 7.316406 -12.03125 6.160156 -11.550781 5.265625 -10.59375 C 4.367188 -9.644531 3.898438 -8.414062 3.859375 -6.90625 Z M 3.859375 -6.90625 "/></g></g></g><g fill="#fffff9" fill-opacity="1"><g transform="translate(143.004241, 82.121197)"><g><path d="M 7.484375 -14.15625 C 9.492188 -14.15625 10.953125 -13.679688 11.859375 -12.734375 C 12.773438 -11.796875 13.242188 -10.375 13.265625 -8.46875 L 13.265625 -2.265625 C 13.265625 -1.679688 13.332031 -0.925781 13.46875 0 L 11.265625 0 C 11.160156 -0.175781 11.109375 -0.863281 11.109375 -2.0625 L 11.0625 -2.0625 C 10.019531 -0.488281 8.503906 0.316406 6.515625 0.359375 C 5.003906 0.359375 3.769531 -0.0195312 2.8125 -0.78125 C 1.863281 -1.539062 1.390625 -2.53125 1.390625 -3.75 C 1.390625 -5.414062 2.078125 -6.632812 3.453125 -7.40625 C 4.828125 -8.1875 6.976562 -8.578125 9.90625 -8.578125 L 10.96875 -8.578125 L 10.96875 -8.96875 C 10.96875 -10.96875 9.828125 -11.988281 7.546875 -12.03125 C 5.898438 -12.03125 4.535156 -11.53125 3.453125 -10.53125 L 2 -12.03125 C 3.414062 -13.40625 5.242188 -14.113281 7.484375 -14.15625 Z M 3.859375 -3.984375 C 3.859375 -2.429688 4.875 -1.632812 6.90625 -1.59375 C 8.101562 -1.59375 9.078125 -1.972656 9.828125 -2.734375 C 10.585938 -3.503906 10.96875 -4.628906 10.96875 -6.109375 L 10.96875 -6.640625 L 8.4375 -6.640625 C 7.070312 -6.640625 5.972656 -6.421875 5.140625 -5.984375 C 4.304688 -5.554688 3.878906 -4.890625 3.859375 -3.984375 Z M 3.859375 -3.984375 "/></g></g></g><g fill="#fffff9" fill-opacity="1"><g transform="translate(158.304539, 82.121197)"><g><path d="M 2.984375 -13.796875 L 7.25 -2.984375 L 7.3125 -2.984375 L 11.40625 -13.796875 L 13.921875 -13.796875 L 7.171875 3.390625 C 6.640625 4.765625 6.03125 5.722656 5.34375 6.265625 C 4.664062 6.804688 3.769531 7.078125 2.65625 7.078125 C 1.8125 7.078125 1.125 6.957031 0.59375 6.71875 L 0.890625 4.71875 C 1.160156 4.875 1.726562 4.953125 2.59375 4.953125 C 3.695312 4.953125 4.492188 4.273438 4.984375 2.921875 L 6.015625 0.09375 L 0.296875 -13.796875 Z M 2.984375 -13.796875 "/></g></g></g><g clip-path="url(#0bd388edeb)"><path stroke-linecap="butt" transform="matrix(0.7496, 0, 0, 0.7496, -0.00000000000004261, 0.0400041)" fill="none" stroke-linejoin="miter" d="M 0.000000000000056843 1.999811 L 299.998567 1.999811 " stroke="#ffffff" stroke-width="4" stroke-opacity="1" stroke-miterlimit="4"/></g><g clip-path="url(#68747e2191)"><path stroke-linecap="butt" transform="matrix(0.7496, 0, 0, 0.7496, 0, 1.539204)" fill="none" stroke-linejoin="miter" d="M 0 2.000879 L 299.998567 2.000879 " stroke="#ff3131" stroke-width="4" stroke-opacity="1" stroke-miterlimit="4"/></g></svg>