<svg xmlns="http://www.w3.org/2000/svg" xmlns:xlink="http://www.w3.org/1999/xlink" width="300" zoomAndPan="magnify" viewBox="0 0 224.87999 149.999998" height="200" preserveAspectRatio="xMidYMid meet" version="1.0"><defs><g/><clipPath id="e37c973140"><path d="M 0 0.0390625 L 224.761719 0.0390625 L 224.761719 149.960938 L 0 149.960938 Z M 0 0.0390625 " clip-rule="nonzero"/></clipPath><clipPath id="bd7ff00ba8"><path d="M 0 0.0390625 L 224.761719 0.0390625 L 224.761719 4 L 0 4 Z M 0 0.0390625 " clip-rule="nonzero"/></clipPath><clipPath id="519e6ea2c7"><path d="M 0 1 L 224.761719 1 L 224.761719 5 L 0 5 Z M 0 1 " clip-rule="nonzero"/></clipPath></defs><g clip-path="url(#e37c973140)"><path fill="#ffffff" d="M 0 0.0390625 L 224.878906 0.0390625 L 224.878906 149.960938 L 0 149.960938 Z M 0 0.0390625 " fill-opacity="1" fill-rule="nonzero"/><path fill="#191919" d="M 0 0.0390625 L 224.878906 0.0390625 L 224.878906 149.960938 L 0 149.960938 Z M 0 0.0390625 " fill-opacity="1" fill-rule="nonzero"/></g><g fill="#fffff9" fill-opacity="1"><g transform="translate(55.046071, 82.121197)"><g><path d="M 7.515625 -20.40625 C 5.035156 -16.945312 3.78125 -12.972656 3.75 -8.484375 C 3.75 -6.328125 4.003906 -4.382812 4.515625 -2.65625 C 5.023438 -0.925781 6.023438 1.117188 7.515625 3.484375 L 5.921875 4.59375 C 4.523438 2.65625 3.457031 0.53125 2.71875 -1.78125 C 1.988281 -4.09375 1.625 -6.335938 1.625 -8.515625 C 1.625 -13.296875 3.054688 -17.648438 5.921875 -21.578125 Z M 7.515625 -20.40625 "/></g></g></g><g fill="#fffff9" fill-opacity="1"><g transform="translate(63.241607, 82.121197)"><g><path d="M 5.65625 -17.71875 L 5.65625 -13.796875 L 9.734375 -13.796875 L 9.734375 -11.859375 L 5.65625 -11.859375 L 5.65625 -4.484375 C 5.65625 -3.378906 5.832031 -2.648438 6.1875 -2.296875 C 6.539062 -1.941406 7.050781 -1.765625 7.71875 -1.765625 C 8.488281 -1.765625 9.171875 -1.921875 9.765625 -2.234375 L 9.84375 -0.140625 C 9.0625 0.191406 8.171875 0.359375 7.171875 0.359375 C 5.753906 0.359375 4.765625 0.0078125 4.203125 -0.6875 C 3.640625 -1.382812 3.359375 -2.53125 3.359375 -4.125 L 3.359375 -11.859375 L 0.359375 -11.859375 L 0.359375 -13.796875 L 3.359375 -13.796875 L 3.359375 -17.71875 Z M 5.65625 -17.71875 "/></g></g></g><g fill="#fffff9" fill-opacity="1"><g transform="translate(73.618686, 82.121197)"><g><path d="M 8.75 -14.15625 C 10.894531 -14.15625 12.644531 -13.488281 14 -12.15625 C 15.363281 -10.832031 16.070312 -9.082031 16.125 -6.90625 C 16.125 -4.800781 15.4375 -3.070312 14.0625 -1.71875 C 12.6875 -0.375 10.914062 0.316406 8.75 0.359375 C 6.59375 0.359375 4.832031 -0.320312 3.46875 -1.6875 C 2.113281 -3.0625 1.421875 -4.800781 1.390625 -6.90625 C 1.390625 -9.019531 2.078125 -10.75 3.453125 -12.09375 C 4.828125 -13.445312 6.59375 -14.132812 8.75 -14.15625 Z M 3.859375 -6.90625 C 3.859375 -5.382812 4.316406 -4.15625 5.234375 -3.21875 C 6.148438 -2.289062 7.320312 -1.804688 8.75 -1.765625 C 10.1875 -1.765625 11.359375 -2.238281 12.265625 -3.1875 C 13.171875 -4.144531 13.632812 -5.382812 13.65625 -6.90625 C 13.65625 -8.394531 13.195312 -9.617188 12.28125 -10.578125 C 11.363281 -11.546875 10.179688 -12.03125 8.734375 -12.03125 C 7.316406 -12.03125 6.15625 -11.550781 5.25 -10.59375 C 4.34375 -9.644531 3.878906 -8.414062 3.859375 -6.90625 Z M 3.859375 -6.90625 "/></g></g></g><g fill="#fffff9" fill-opacity="1"><g transform="translate(91.130005, 82.121197)"><g><path d="M 2.265625 -21.578125 C 3.628906 -19.671875 4.6875 -17.585938 5.4375 -15.328125 C 6.195312 -13.066406 6.578125 -10.785156 6.578125 -8.484375 C 6.578125 -3.691406 5.140625 0.664062 2.265625 4.59375 L 0.671875 3.421875 C 3.148438 -0.0351562 4.410156 -4.015625 4.453125 -8.515625 C 4.453125 -10.640625 4.207031 -12.546875 3.71875 -14.234375 C 3.238281 -15.929688 2.222656 -18.007812 0.671875 -20.46875 Z M 2.265625 -21.578125 "/></g></g></g><g fill="#fffff9" fill-opacity="1"><g transform="translate(99.32554, 82.121197)"><g/></g></g><g fill="#fffff9" fill-opacity="1"><g transform="translate(107.521075, 82.121197)"><g><path d="M 4.484375 -22.296875 L 4.484375 -11.875 L 4.546875 -11.875 C 4.953125 -12.570312 5.554688 -13.125 6.359375 -13.53125 C 7.171875 -13.945312 8.050781 -14.15625 9 -14.15625 C 10.726562 -14.15625 12.03125 -13.648438 12.90625 -12.640625 C 13.78125 -11.640625 14.21875 -10.304688 14.21875 -8.640625 L 14.21875 0 L 11.90625 0 L 11.90625 -8.375 C 11.90625 -9.4375 11.660156 -10.304688 11.171875 -10.984375 C 10.679688 -11.660156 9.875 -12.007812 8.75 -12.03125 C 7.34375 -12.03125 6.28125 -11.5625 5.5625 -10.625 C 4.84375 -9.695312 4.484375 -8.4375 4.484375 -6.84375 L 4.484375 0 L 2.1875 0 L 2.1875 -22.296875 Z M 4.484375 -22.296875 "/></g></g></g><g fill="#fffff9" fill-opacity="1"><g transform="translate(123.912146, 82.121197)"><g><path d="M 7.484375 -14.15625 C 9.492188 -14.15625 10.953125 -13.679688 11.859375 -12.734375 C 12.773438 -11.796875 13.242188 -10.375 13.265625 -8.46875 L 13.265625 -2.265625 C 13.265625 -1.679688 13.332031 -0.925781 13.46875 0 L 11.265625 0 C 11.160156 -0.175781 11.109375 -0.863281 11.109375 -2.0625 L 11.0625 -2.0625 C 10.019531 -0.488281 8.503906 0.316406 6.515625 0.359375 C 5.003906 0.359375 3.769531 -0.0195312 2.8125 -0.78125 C 1.863281 -1.539062 1.390625 -2.53125 1.390625 -3.75 C 1.390625 -5.414062 2.078125 -6.632812 3.453125 -7.40625 C 4.828125 -8.1875 6.976562 -8.578125 9.90625 -8.578125 L 10.96875 -8.578125 L 10.96875 -8.96875 C 10.96875 -10.96875 9.828125 -11.988281 7.546875 -12.03125 C 5.898438 -12.03125 4.535156 -11.53125 3.453125 -10.53125 L 2 -12.03125 C 3.414062 -13.40625 5.242188 -14.113281 7.484375 -14.15625 Z M 3.859375 -3.984375 C 3.859375 -2.429688 4.875 -1.632812 6.90625 -1.59375 C 8.101562 -1.59375 9.078125 -1.972656 9.828125 -2.734375 C 10.585938 -3.503906 10.96875 -4.628906 10.96875 -6.109375 L 10.96875 -6.640625 L 8.4375 -6.640625 C 7.070312 -6.640625 5.972656 -6.421875 5.140625 -5.984375 C 4.304688 -5.554688 3.878906 -4.890625 3.859375 -3.984375 Z M 3.859375 -3.984375 "/></g></g></g><g fill="#fffff9" fill-opacity="1"><g transform="translate(139.212444, 82.121197)"><g><path d="M 2.984375 -13.796875 L 7.28125 -2.984375 L 7.34375 -2.984375 L 11.4375 -13.796875 L 13.921875 -13.796875 L 8.46875 0 L 5.921875 0 L 0.296875 -13.796875 Z M 2.984375 -13.796875 "/></g></g></g><g fill="#fffff9" fill-opacity="1"><g transform="translate(153.42197, 82.121197)"><g><path d="M 8.46875 -14.15625 C 10.507812 -14.15625 12.101562 -13.507812 13.25 -12.21875 C 14.40625 -10.9375 14.988281 -9.113281 15 -6.75 L 15 -6.1875 L 3.859375 -6.1875 C 3.984375 -4.914062 4.46875 -3.863281 5.3125 -3.03125 C 6.15625 -2.207031 7.1875 -1.785156 8.40625 -1.765625 C 10.269531 -1.765625 11.722656 -2.460938 12.765625 -3.859375 L 14.5 -2.5 C 13.78125 -1.5625 12.925781 -0.847656 11.9375 -0.359375 C 10.957031 0.117188 9.78125 0.359375 8.40625 0.359375 C 6.300781 0.359375 4.609375 -0.320312 3.328125 -1.6875 C 2.054688 -3.0625 1.410156 -4.800781 1.390625 -6.90625 C 1.390625 -8.988281 2.039062 -10.707031 3.34375 -12.0625 C 4.65625 -13.414062 6.363281 -14.113281 8.46875 -14.15625 Z M 12.53125 -8.140625 C 12.46875 -9.335938 12.078125 -10.285156 11.359375 -10.984375 C 10.648438 -11.679688 9.644531 -12.03125 8.34375 -12.03125 C 7.164062 -12.03125 6.171875 -11.695312 5.359375 -11.03125 C 4.554688 -10.363281 4.054688 -9.398438 3.859375 -8.140625 Z M 12.53125 -8.140625 "/></g></g></g><g clip-path="url(#bd7ff00ba8)"><path stroke-linecap="butt" transform="matrix(0.7496, 0, 0, 0.7496, -0.00000000000004261, 0.0400041)" fill="none" stroke-linejoin="miter" d="M 0.000000000000056843 1.999811 L 299.998567 1.999811 " stroke="#ffffff" stroke-width="4" stroke-opacity="1" stroke-miterlimit="4"/></g><g clip-path="url(#519e6ea2c7)"><path stroke-linecap="butt" transform="matrix(0.7496, 0, 0, 0.7496, 0, 1.539204)" fill="none" stroke-linejoin="miter" d="M 0 2.000879 L 299.998567 2.000879 " stroke="#ff3131" stroke-width="4" stroke-opacity="1" stroke-miterlimit="4"/></g></svg>