<svg xmlns="http://www.w3.org/2000/svg" xmlns:xlink="http://www.w3.org/1999/xlink" width="300" zoomAndPan="magnify" viewBox="0 0 224.87999 149.999998" height="200" preserveAspectRatio="xMidYMid meet" version="1.0"><defs><g/><clipPath id="faa6d42367"><path d="M 0 0.0390625 L 224.761719 0.0390625 L 224.761719 149.960938 L 0 149.960938 Z M 0 0.0390625 " clip-rule="nonzero"/></clipPath><clipPath id="01c5d7bf81"><path d="M 0 0.0390625 L 224.761719 0.0390625 L 224.761719 4 L 0 4 Z M 0 0.0390625 " clip-rule="nonzero"/></clipPath><clipPath id="c86112c252"><path d="M 0 3 L 224.761719 3 L 224.761719 7 L 0 7 Z M 0 3 " clip-rule="nonzero"/></clipPath></defs><g clip-path="url(#faa6d42367)"><path fill="#ffffff" d="M 0 0.0390625 L 224.878906 0.0390625 L 224.878906 149.960938 L 0 149.960938 Z M 0 0.0390625 " fill-opacity="1" fill-rule="nonzero"/><path fill="#ff3131" d="M 0 0.0390625 L 224.878906 0.0390625 L 224.878906 149.960938 L 0 149.960938 Z M 0 0.0390625 " fill-opacity="1" fill-rule="nonzero"/></g><g fill="#fffff9" fill-opacity="1"><g transform="translate(87.126606, 82.121197)"><g><path d="M 8.96875 -14.15625 C 10.695312 -14.15625 12.003906 -13.648438 12.890625 -12.640625 C 13.773438 -11.640625 14.21875 -10.304688 14.21875 -8.640625 L 14.21875 0 L 11.90625 0 L 11.90625 -8.375 C 11.90625 -9.4375 11.660156 -10.304688 11.171875 -10.984375 C 10.679688 -11.660156 9.875 -12.007812 8.75 -12.03125 C 7.34375 -12.03125 6.28125 -11.5625 5.5625 -10.625 C 4.84375 -9.695312 4.484375 -8.40625 4.484375 -6.75 L 4.484375 0 L 2.1875 0 L 2.1875 -10.734375 C 2.1875 -10.828125 2.144531 -11.847656 2.0625 -13.796875 L 4.25 -13.796875 C 4.289062 -12.421875 4.3125 -11.664062 4.3125 -11.53125 L 4.359375 -11.53125 C 4.734375 -12.3125 5.335938 -12.941406 6.171875 -13.421875 C 7.015625 -13.910156 7.945312 -14.15625 8.96875 -14.15625 Z M 8.96875 -14.15625 "/></g></g></g><g fill="#fffff9" fill-opacity="1"><g transform="translate(103.517677, 82.121197)"><g><path d="M 4.484375 -22.296875 L 4.484375 -11.875 L 4.546875 -11.875 C 4.953125 -12.570312 5.554688 -13.125 6.359375 -13.53125 C 7.171875 -13.945312 8.050781 -14.15625 9 -14.15625 C 10.726562 -14.15625 12.03125 -13.648438 12.90625 -12.640625 C 13.78125 -11.640625 14.21875 -10.304688 14.21875 -8.640625 L 14.21875 0 L 11.90625 0 L 11.90625 -8.375 C 11.90625 -9.4375 11.660156 -10.304688 11.171875 -10.984375 C 10.679688 -11.660156 9.875 -12.007812 8.75 -12.03125 C 7.34375 -12.03125 6.28125 -11.5625 5.5625 -10.625 C 4.84375 -9.695312 4.484375 -8.4375 4.484375 -6.84375 L 4.484375 0 L 2.1875 0 L 2.1875 -22.296875 Z M 4.484375 -22.296875 "/></g></g></g><g fill="#fffff9" fill-opacity="1"><g transform="translate(119.908747, 82.121197)"><g><path d="M 16.25 -7.9375 C 16.25 -5.320312 15.582031 -3.296875 14.25 -1.859375 C 12.925781 -0.421875 11.132812 0.296875 8.875 0.296875 C 7.476562 0.296875 6.234375 -0.0195312 5.140625 -0.65625 C 4.054688 -1.300781 3.195312 -2.238281 2.5625 -3.46875 C 1.9375 -4.695312 1.625 -6.1875 1.625 -7.9375 C 1.625 -10.550781 2.273438 -12.5625 3.578125 -13.96875 C 4.890625 -15.382812 6.6875 -16.09375 8.96875 -16.09375 C 10.382812 -16.09375 11.640625 -15.773438 12.734375 -15.140625 C 13.835938 -14.503906 14.695312 -13.582031 15.3125 -12.375 C 15.9375 -11.164062 16.25 -9.6875 16.25 -7.9375 Z M 4.3125 -7.9375 C 4.3125 -6.0625 4.675781 -4.578125 5.40625 -3.484375 C 6.144531 -2.398438 7.320312 -1.859375 8.9375 -1.859375 C 10.53125 -1.859375 11.695312 -2.398438 12.4375 -3.484375 C 13.1875 -4.578125 13.5625 -6.0625 13.5625 -7.9375 C 13.5625 -9.800781 13.1875 -11.265625 12.4375 -12.328125 C 11.695312 -13.390625 10.519531 -13.921875 8.90625 -13.921875 C 7.289062 -13.921875 6.117188 -13.390625 5.390625 -12.328125 C 4.671875 -11.265625 4.3125 -9.800781 4.3125 -7.9375 Z M 12.21875 -21.53125 C 12.21875 -20.78125 11.988281 -20.203125 11.53125 -19.796875 C 11.082031 -19.390625 10.515625 -19.109375 9.828125 -18.953125 L 9.671875 -17.390625 L 8.09375 -17.390625 L 7.875 -19.90625 C 8.582031 -20.019531 9.144531 -20.1875 9.5625 -20.40625 C 9.988281 -20.632812 10.203125 -20.976562 10.203125 -21.4375 C 10.203125 -21.90625 10.019531 -22.21875 9.65625 -22.375 C 9.300781 -22.53125 8.847656 -22.609375 8.296875 -22.609375 C 8.035156 -22.609375 7.769531 -22.59375 7.5 -22.5625 C 7.238281 -22.539062 7.03125 -22.519531 6.875 -22.5 L 6.875 -24.03125 C 7.226562 -24.144531 7.769531 -24.203125 8.5 -24.203125 C 9.675781 -24.203125 10.585938 -23.976562 11.234375 -23.53125 C 11.890625 -23.09375 12.21875 -22.425781 12.21875 -21.53125 Z M 12.21875 -21.53125 "/></g></g></g><g clip-path="url(#01c5d7bf81)"><path stroke-linecap="butt" transform="matrix(0.7496, 0, 0, 0.7496, -0.00000000000004261, 0.0400041)" fill="none" stroke-linejoin="miter" d="M 0.000000000000056843 1.999811 L 299.998567 1.999811 " stroke="#ffffff" stroke-width="4" stroke-opacity="1" stroke-miterlimit="4"/></g><g clip-path="url(#c86112c252)"><path stroke-linecap="butt" transform="matrix(0.7496, 0, 0, 0.7496, 0, 3.038404)" fill="none" stroke-linejoin="miter" d="M 0 2.001946 L 299.998567 2.001946 " stroke="#ffde59" stroke-width="4" stroke-opacity="1" stroke-miterlimit="4"/></g></svg>