<svg xmlns="http://www.w3.org/2000/svg" xmlns:xlink="http://www.w3.org/1999/xlink" width="300" zoomAndPan="magnify" viewBox="0 0 224.87999 149.999998" height="200" preserveAspectRatio="xMidYMid meet" version="1.0"><defs><g/><clipPath id="f79bbf144f"><path d="M 0 0.0390625 L 224.761719 0.0390625 L 224.761719 149.960938 L 0 149.960938 Z M 0 0.0390625 " clip-rule="nonzero"/></clipPath><clipPath id="4b46f6689e"><path d="M 0 0.0390625 L 224.761719 0.0390625 L 224.761719 4 L 0 4 Z M 0 0.0390625 " clip-rule="nonzero"/></clipPath><clipPath id="c6186543e3"><path d="M 0 3 L 224.761719 3 L 224.761719 7 L 0 7 Z M 0 3 " clip-rule="nonzero"/></clipPath></defs><g clip-path="url(#f79bbf144f)"><path fill="#ffffff" d="M 0 0.0390625 L 224.878906 0.0390625 L 224.878906 149.960938 L 0 149.960938 Z M 0 0.0390625 " fill-opacity="1" fill-rule="nonzero"/><path fill="#ff3131" d="M 0 0.0390625 L 224.878906 0.0390625 L 224.878906 149.960938 L 0 149.960938 Z M 0 0.0390625 " fill-opacity="1" fill-rule="nonzero"/></g><g fill="#fffff9" fill-opacity="1"><g transform="translate(88.602381, 82.121197)"><g><path d="M 3.796875 -13.796875 L 7.453125 -8.84375 L 10.90625 -13.796875 L 13.703125 -13.796875 L 8.96875 -7.4375 L 14.65625 0 L 11.609375 0 L 7.25 -5.953125 L 2.953125 0 L 0.09375 0 L 5.75 -7.4375 L 0.796875 -13.796875 Z M 3.796875 -13.796875 "/></g></g></g><g fill="#fffff9" fill-opacity="1"><g transform="translate(103.342549, 82.121197)"><g><path d="M 8.484375 -16.0625 C 10.410156 -16.0625 11.835938 -15.640625 12.765625 -14.796875 C 13.691406 -13.953125 14.15625 -12.609375 14.15625 -10.765625 L 14.15625 0 L 12.265625 0 L 11.765625 -2.234375 L 11.640625 -2.234375 C 10.953125 -1.367188 10.222656 -0.726562 9.453125 -0.3125 C 8.691406 0.09375 7.65625 0.296875 6.34375 0.296875 C 4.90625 0.296875 3.710938 -0.078125 2.765625 -0.828125 C 1.828125 -1.585938 1.359375 -2.773438 1.359375 -4.390625 C 1.359375 -5.960938 1.976562 -7.175781 3.21875 -8.03125 C 4.457031 -8.882812 6.363281 -9.351562 8.9375 -9.4375 L 11.609375 -9.515625 L 11.609375 -10.46875 C 11.609375 -11.78125 11.320312 -12.691406 10.75 -13.203125 C 10.1875 -13.710938 9.382812 -13.96875 8.34375 -13.96875 C 7.519531 -13.96875 6.734375 -13.84375 5.984375 -13.59375 C 5.234375 -13.351562 4.535156 -13.078125 3.890625 -12.765625 L 3.09375 -14.71875 C 3.78125 -15.082031 4.59375 -15.394531 5.53125 -15.65625 C 6.476562 -15.925781 7.460938 -16.0625 8.484375 -16.0625 Z M 11.59375 -7.71875 L 9.265625 -7.640625 C 7.296875 -7.554688 5.929688 -7.238281 5.171875 -6.6875 C 4.421875 -6.144531 4.046875 -5.367188 4.046875 -4.359375 C 4.046875 -3.472656 4.3125 -2.820312 4.84375 -2.40625 C 5.382812 -2 6.078125 -1.796875 6.921875 -1.796875 C 8.242188 -1.796875 9.351562 -2.164062 10.25 -2.90625 C 11.144531 -3.644531 11.59375 -4.78125 11.59375 -6.3125 Z M 11.53125 -21.015625 C 11.90625 -21.515625 12.222656 -21.96875 12.484375 -22.375 C 12.742188 -22.789062 13.035156 -23.3125 13.359375 -23.9375 L 15.953125 -23.9375 L 15.953125 -23.640625 C 15.515625 -23.078125 15.039062 -22.539062 14.53125 -22.03125 C 14.019531 -21.53125 13.507812 -21.078125 13 -20.671875 L 11.53125 -20.671875 Z M 12.671875 -17.875 L 11.234375 -17.875 C 10.742188 -18.1875 10.242188 -18.546875 9.734375 -18.953125 C 9.222656 -19.367188 8.707031 -19.800781 8.1875 -20.25 C 7.675781 -19.800781 7.164062 -19.367188 6.65625 -18.953125 C 6.144531 -18.546875 5.644531 -18.1875 5.15625 -17.875 L 3.71875 -17.875 L 3.71875 -18.21875 C 4.207031 -18.769531 4.734375 -19.367188 5.296875 -20.015625 C 5.867188 -20.671875 6.382812 -21.332031 6.84375 -22 L 9.546875 -22 C 10.003906 -21.332031 10.507812 -20.671875 11.0625 -20.015625 C 11.625 -19.367188 12.160156 -18.769531 12.671875 -18.21875 Z M 12.671875 -17.875 "/></g></g></g><g fill="#fffff9" fill-opacity="1"><g transform="translate(119.881022, 82.121197)"><g><path d="M 4.484375 -13.796875 L 4.484375 -5.421875 C 4.484375 -4.359375 4.734375 -3.488281 5.234375 -2.8125 C 5.734375 -2.132812 6.535156 -1.785156 7.640625 -1.765625 C 9.054688 -1.765625 10.117188 -2.234375 10.828125 -3.171875 C 11.546875 -4.117188 11.90625 -5.378906 11.90625 -6.953125 L 11.90625 -13.796875 L 14.21875 -13.796875 L 14.21875 -3.0625 C 14.226562 -2.507812 14.265625 -1.488281 14.328125 0 L 12.140625 0 C 12.128906 -0.945312 12.113281 -1.703125 12.09375 -2.265625 L 12.03125 -2.265625 C 11.675781 -1.503906 11.082031 -0.875 10.25 -0.375 C 9.414062 0.113281 8.46875 0.359375 7.40625 0.359375 C 5.707031 0.335938 4.410156 -0.164062 3.515625 -1.15625 C 2.628906 -2.15625 2.1875 -3.488281 2.1875 -5.15625 L 2.1875 -13.796875 Z M 4.484375 -13.796875 "/></g></g></g><g clip-path="url(#4b46f6689e)"><path stroke-linecap="butt" transform="matrix(0.7496, 0, 0, 0.7496, -0.00000000000004261, 0.0400041)" fill="none" stroke-linejoin="miter" d="M 0.000000000000056843 1.999811 L 299.998567 1.999811 " stroke="#ffffff" stroke-width="4" stroke-opacity="1" stroke-miterlimit="4"/></g><g clip-path="url(#c6186543e3)"><path stroke-linecap="butt" transform="matrix(0.7496, 0, 0, 0.7496, 0, 3.038404)" fill="none" stroke-linejoin="miter" d="M 0 2.001946 L 299.998567 2.001946 " stroke="#ffde59" stroke-width="4" stroke-opacity="1" stroke-miterlimit="4"/></g></svg>